<?xml version="1.0" encoding="UTF-8"?>
<svg xmlns="http://www.w3.org/2000/svg" xmlns:xlink="http://www.w3.org/1999/xlink" width="500pt" height="500pt" viewBox="0 0 500 500" version="1.1">
<g id="surface27825">
<path style="fill:none;stroke-width:1;stroke-linecap:butt;stroke-linejoin:miter;stroke:rgb(78.431373%,0%,0%);stroke-opacity:1;stroke-miterlimit:10;" d="M -17.599418 17.59969 L 17.600054 17.600493 L 17.600856 -17.598979 L 5.866431 -17.600582 L 5.86713 5.86837 L -5.867295 5.866767 L -5.868096 -17.59828 L -17.598616 -17.599781 Z M -17.599418 17.59969 " transform="matrix(0.999659,-0.0261018,0.0261018,0.999659,41.594975,30.52896)"/>
<path style="fill:none;stroke-width:1;stroke-linecap:butt;stroke-linejoin:miter;stroke:rgb(78.431373%,0%,0%);stroke-opacity:1;stroke-miterlimit:10;" d="M -17.601848 17.598222 L 17.601529 17.59913 L 17.598429 -17.600444 L 5.867807 -17.598042 L 5.868606 5.867005 L -5.865819 5.865401 L -5.866618 -17.599646 L -17.601043 -17.60125 Z M -17.601848 17.598222 " transform="matrix(-0.999659,0.0261019,-0.0261019,-0.999659,42.847871,78.512606)"/>
<path style="fill:none;stroke-width:1;stroke-linecap:butt;stroke-linejoin:miter;stroke:rgb(78.431373%,0%,0%);stroke-opacity:1;stroke-miterlimit:10;" d="M -17.599035 17.601473 L 17.600538 17.598374 L 17.601344 -17.601098 L 5.866817 -17.598797 L 5.867616 5.86625 L -5.866911 5.868551 L -5.867608 -17.600401 L -17.598128 -17.601903 Z M -17.599035 17.601473 " transform="matrix(-0.999659,0.0261019,-0.0261019,-0.999659,44.100768,126.496251)"/>
<path style="fill:none;stroke-width:1;stroke-linecap:butt;stroke-linejoin:miter;stroke:rgb(78.431373%,0%,0%);stroke-opacity:1;stroke-miterlimit:10;" d="M -17.600026 17.600726 L 17.599446 17.601531 L 17.600354 -17.601846 L 5.865827 -17.599545 L 5.866625 5.865502 L -5.867902 5.867803 L -5.864693 -17.601047 L -17.59922 -17.598746 Z M -17.600026 17.600726 " transform="matrix(-0.999659,0.0261019,-0.0261019,-0.999659,45.353665,174.479905)"/>
<path style="fill:none;stroke-width:1;stroke-linecap:butt;stroke-linejoin:miter;stroke:rgb(78.431373%,0%,0%);stroke-opacity:1;stroke-miterlimit:10;" d="M -17.600776 17.598455 L 17.598695 17.599262 L 17.599502 -17.60021 L 5.865078 -17.601814 L 5.865773 5.867137 L -5.864747 5.865635 L -5.865544 -17.599412 L -17.599969 -17.601017 Z M -17.600776 17.598455 " transform="matrix(0.026102,0.999659,-0.999659,0.026102,46.606561,222.46355)"/>
<path style="fill:none;stroke-width:1;stroke-linecap:butt;stroke-linejoin:miter;stroke:rgb(78.431373%,0%,0%);stroke-opacity:1;stroke-miterlimit:10;" d="M -17.599505 17.600807 L 17.599966 17.601615 L 17.600877 -17.601762 L 5.86635 -17.599462 L 5.867147 5.865585 L -5.86738 5.867885 L -5.868075 -17.601067 L -17.598697 -17.598665 Z M -17.599505 17.600807 " transform="matrix(-0.026102,-0.999659,0.999659,-0.026102,89.578621,29.276063)"/>
<path style="fill:none;stroke-width:1;stroke-linecap:butt;stroke-linejoin:miter;stroke:rgb(78.431373%,0%,0%);stroke-opacity:1;stroke-miterlimit:10;" d="M -17.601577 17.599354 L 17.6018 17.600258 L 17.598697 -17.599316 L 5.868177 -17.600817 L 5.864971 5.868033 L -5.865549 5.866532 L -5.86635 -17.598515 L -17.600775 -17.600118 Z M -17.601577 17.599354 " transform="matrix(0.999659,-0.0261018,0.0261018,0.999659,90.831517,77.259709)"/>
<path style="fill:none;stroke-width:1;stroke-linecap:butt;stroke-linejoin:miter;stroke:rgb(78.431373%,0%,0%);stroke-opacity:1;stroke-miterlimit:10;" d="M -17.600587 17.600109 L 17.598885 17.600912 L 17.599687 -17.59856 L 5.865262 -17.600163 L 5.866063 5.864883 L -5.868464 5.867185 L -5.865258 -17.601665 L -17.599784 -17.599363 Z M -17.600587 17.600109 " transform="matrix(0.999659,-0.0261018,0.0261018,0.999659,92.084414,125.243355)"/>
<path style="fill:none;stroke-width:1;stroke-linecap:butt;stroke-linejoin:miter;stroke:rgb(78.431373%,0%,0%);stroke-opacity:1;stroke-miterlimit:10;" d="M -17.599597 17.600857 L 17.599875 17.601659 L 17.60078 -17.601717 L 5.866253 -17.599416 L 5.867053 5.865631 L -5.867474 5.867933 L -5.868172 -17.601019 L -17.598794 -17.598615 Z M -17.599597 17.600857 " transform="matrix(0.999659,-0.0261018,0.0261018,0.999659,93.337311,173.227008)"/>
<path style="fill:none;stroke-width:1;stroke-linecap:butt;stroke-linejoin:miter;stroke:rgb(78.431373%,0%,0%);stroke-opacity:1;stroke-miterlimit:10;" d="M -17.598606 17.601612 L 17.600967 17.59851 L 17.60177 -17.600962 L 5.867243 -17.59866 L 5.868044 5.866387 L -5.866381 5.864784 L -5.867182 -17.600263 L -17.601607 -17.601866 Z M -17.598606 17.601612 " transform="matrix(0.999659,-0.0261018,0.0261018,0.999659,94.590207,221.210654)"/>
<path style="fill:none;stroke-width:1;stroke-linecap:butt;stroke-linejoin:miter;stroke:rgb(78.431373%,0%,0%);stroke-opacity:1;stroke-miterlimit:10;" d="M -17.598464 17.60106 L 17.601008 17.601866 L 17.601915 -17.601511 L 5.867389 -17.599211 L 5.868187 5.865836 L -5.86634 5.868137 L -5.867036 -17.600815 L -17.601563 -17.598514 Z M -17.598464 17.60106 " transform="matrix(-0.999659,0.0261019,-0.0261019,-0.999659,137.562266,28.023167)"/>
<path style="fill:none;stroke-width:1;stroke-linecap:butt;stroke-linejoin:miter;stroke:rgb(78.431373%,0%,0%);stroke-opacity:1;stroke-miterlimit:10;" d="M -17.599454 17.600305 L 17.600018 17.60111 L 17.600823 -17.598362 L 5.866398 -17.599966 L 5.867197 5.865081 L -5.86733 5.867382 L -5.868027 -17.60157 L -17.598649 -17.599167 Z M -17.599454 17.600305 " transform="matrix(-0.999659,0.0261019,-0.0261019,-0.999659,138.815163,76.006813)"/>
<path style="fill:none;stroke-width:1;stroke-linecap:butt;stroke-linejoin:miter;stroke:rgb(78.431373%,0%,0%);stroke-opacity:1;stroke-miterlimit:10;" d="M -17.599924 17.599638 L 17.599548 17.600446 L 17.600356 -17.599026 L 5.865931 -17.600631 L 5.866626 5.868321 L -5.867799 5.866716 L -5.868596 -17.598331 L -17.599116 -17.599834 Z M -17.599924 17.599638 " transform="matrix(-0.026102,-0.999659,0.999659,-0.026102,140.068059,123.990458)"/>
<path style="fill:none;stroke-width:1;stroke-linecap:butt;stroke-linejoin:miter;stroke:rgb(78.431373%,0%,0%);stroke-opacity:1;stroke-miterlimit:10;" d="M -17.59971 17.601941 L 17.599864 17.598843 L 17.600671 -17.600628 L 5.866144 -17.598328 L 5.866942 5.866719 L -5.867483 5.865114 L -5.86828 -17.599933 L -17.598801 -17.601435 Z M -17.59971 17.601941 " transform="matrix(0.026102,0.999659,-0.999659,0.026102,141.320956,171.974111)"/>
<path style="fill:none;stroke-width:1;stroke-linecap:butt;stroke-linejoin:miter;stroke:rgb(78.431373%,0%,0%);stroke-opacity:1;stroke-miterlimit:10;" d="M -17.598954 17.600951 L 17.600518 17.601758 L 17.601427 -17.601619 L 5.8669 -17.599318 L 5.867698 5.865729 L -5.866829 5.868029 L -5.867525 -17.600923 L -17.598147 -17.598521 Z M -17.598954 17.600951 " transform="matrix(0.026102,0.999659,-0.999659,0.026102,142.573853,219.957757)"/>
<path style="fill:none;stroke-width:1;stroke-linecap:butt;stroke-linejoin:miter;stroke:rgb(78.431373%,0%,0%);stroke-opacity:1;stroke-miterlimit:10;" d="M -17.601328 17.598311 L 17.598144 17.599119 L 17.598952 -17.600353 L 5.868432 -17.601856 L 5.865222 5.866994 L -5.865298 5.865491 L -5.866095 -17.599556 L -17.60052 -17.601161 Z M -17.601328 17.598311 " transform="matrix(-0.026102,-0.999659,0.999659,-0.026102,185.545912,26.77027)"/>
<path style="fill:none;stroke-width:1;stroke-linecap:butt;stroke-linejoin:miter;stroke:rgb(78.431373%,0%,0%);stroke-opacity:1;stroke-miterlimit:10;" d="M -17.600168 17.601278 L 17.599406 17.598176 L 17.600208 -17.601296 L 5.865681 -17.598995 L 5.866482 5.866052 L -5.868045 5.868354 L -5.864839 -17.600496 L -17.599366 -17.598194 Z M -17.600168 17.601278 " transform="matrix(0.999659,-0.0261018,0.0261018,0.999659,186.798808,74.753916)"/>
<path style="fill:none;stroke-width:1;stroke-linecap:butt;stroke-linejoin:miter;stroke:rgb(78.431373%,0%,0%);stroke-opacity:1;stroke-miterlimit:10;" d="M -17.601346 17.598271 L 17.598126 17.599078 L 17.598933 -17.600394 L 5.868413 -17.601896 L 5.865204 5.866954 L -5.865316 5.865451 L -5.866114 -17.599596 L -17.600539 -17.601201 Z M -17.601346 17.598271 " transform="matrix(0.026102,0.999659,-0.999659,0.026102,188.051705,122.737562)"/>
<path style="fill:none;stroke-width:1;stroke-linecap:butt;stroke-linejoin:miter;stroke:rgb(78.431373%,0%,0%);stroke-opacity:1;stroke-miterlimit:10;" d="M -17.599682 17.601383 L 17.599892 17.598287 L 17.6007 -17.601185 L 5.866173 -17.598885 L 5.86697 5.866161 L -5.867557 5.868461 L -5.868252 -17.60049 L -17.598874 -17.598089 Z M -17.599682 17.601383 " transform="matrix(-0.026102,-0.999659,0.999659,-0.026102,189.304602,170.721215)"/>
<path style="fill:none;stroke-width:1;stroke-linecap:butt;stroke-linejoin:miter;stroke:rgb(78.431373%,0%,0%);stroke-opacity:1;stroke-miterlimit:10;" d="M -17.600335 17.598469 L 17.599137 17.599277 L 17.599945 -17.600195 L 5.86552 -17.6018 L 5.866215 5.867152 L -5.86821 5.865547 L -5.865102 -17.599398 L -17.599527 -17.601003 Z M -17.600335 17.598469 " transform="matrix(-0.026102,-0.999659,0.999659,-0.026102,190.557498,218.704861)"/>
<path style="fill:none;stroke-width:1;stroke-linecap:butt;stroke-linejoin:miter;stroke:rgb(78.431373%,0%,0%);stroke-opacity:1;stroke-miterlimit:10;" d="M -17.600338 17.599066 L 17.599134 17.599874 L 17.599942 -17.599598 L 5.865517 -17.601203 L 5.866212 5.867749 L -5.868213 5.866144 L -5.865104 -17.598801 L -17.599529 -17.600406 Z M -17.600338 17.599066 " transform="matrix(-0.026102,-0.999659,0.999659,-0.026102,233.529558,25.517374)"/>
<path style="fill:none;stroke-width:1;stroke-linecap:butt;stroke-linejoin:miter;stroke:rgb(78.431373%,0%,0%);stroke-opacity:1;stroke-miterlimit:10;" d="M -17.599186 17.598608 L 17.600285 17.599415 L 17.601093 -17.600057 L 5.866668 -17.601661 L 5.867363 5.86729 L -5.867062 5.865686 L -5.867859 -17.599361 L -17.598379 -17.600864 Z M -17.599186 17.598608 " transform="matrix(0.026102,0.999659,-0.999659,0.026102,234.782454,73.501019)"/>
<path style="fill:none;stroke-width:1;stroke-linecap:butt;stroke-linejoin:miter;stroke:rgb(78.431373%,0%,0%);stroke-opacity:1;stroke-miterlimit:10;" d="M -17.601955 17.60153 L 17.601523 17.598532 L 17.598424 -17.601042 L 5.867802 -17.598639 L 5.868601 5.866408 L -5.865824 5.864804 L -5.866623 -17.600243 L -17.601048 -17.601847 Z M -17.601955 17.60153 " transform="matrix(-0.999659,0.0261019,-0.0261019,-0.999659,236.035351,121.484665)"/>
<path style="fill:none;stroke-width:1;stroke-linecap:butt;stroke-linejoin:miter;stroke:rgb(78.431373%,0%,0%);stroke-opacity:1;stroke-miterlimit:10;" d="M -17.598589 17.598234 L 17.600882 17.599042 L 17.601691 -17.60043 L 5.867164 -17.59813 L 5.867961 5.866917 L -5.866464 5.865312 L -5.867261 -17.599735 L -17.601686 -17.60134 Z M -17.598589 17.598234 " transform="matrix(-0.026102,-0.999659,0.999659,-0.026102,237.288248,169.468318)"/>
<path style="fill:none;stroke-width:1;stroke-linecap:butt;stroke-linejoin:miter;stroke:rgb(78.431373%,0%,0%);stroke-opacity:1;stroke-miterlimit:10;" d="M -17.600245 17.59854 L 17.599227 17.599342 L 17.600029 -17.60013 L 5.865604 -17.601733 L 5.866303 5.867219 L -5.868122 5.865616 L -5.865018 -17.599329 L -17.599443 -17.600932 Z M -17.600245 17.59854 " transform="matrix(0.999659,-0.0261018,0.0261018,0.999659,238.541144,217.451964)"/>
<path style="fill:none;stroke-width:1;stroke-linecap:butt;stroke-linejoin:miter;stroke:rgb(78.431373%,0%,0%);stroke-opacity:1;stroke-miterlimit:10;" d="M -17.599648 17.598542 L 17.599824 17.599344 L 17.600627 -17.600127 L 5.866202 -17.601731 L 5.8669 5.867221 L -5.867524 5.865618 L -5.868325 -17.599429 L -17.598845 -17.60093 Z M -17.599648 17.598542 " transform="matrix(0.999659,-0.0261018,0.0261018,0.999659,281.513203,24.264477)"/>
<path style="fill:none;stroke-width:1;stroke-linecap:butt;stroke-linejoin:miter;stroke:rgb(78.431373%,0%,0%);stroke-opacity:1;stroke-miterlimit:10;" d="M -17.598657 17.599298 L 17.600815 17.6001 L 17.601617 -17.599372 L 5.867192 -17.600975 L 5.867891 5.867977 L -5.866534 5.866374 L -5.867335 -17.598673 L -17.60176 -17.600276 Z M -17.598657 17.599298 " transform="matrix(0.999659,-0.0261018,0.0261018,0.999659,282.7661,72.248123)"/>
<path style="fill:none;stroke-width:1;stroke-linecap:butt;stroke-linejoin:miter;stroke:rgb(78.431373%,0%,0%);stroke-opacity:1;stroke-miterlimit:10;" d="M -17.598704 17.598717 L 17.600768 17.599522 L 17.601574 -17.599949 L 5.867149 -17.601554 L 5.867845 5.867398 L -5.86658 5.865794 L -5.867378 -17.599253 L -17.601803 -17.600857 Z M -17.598704 17.598717 " transform="matrix(-0.999659,0.0261019,-0.0261019,-0.999659,284.018996,120.231768)"/>
<path style="fill:none;stroke-width:1;stroke-linecap:butt;stroke-linejoin:miter;stroke:rgb(78.431373%,0%,0%);stroke-opacity:1;stroke-miterlimit:10;" d="M -17.601504 17.598887 L 17.601873 17.599797 L 17.598776 -17.599776 L 5.868256 -17.601279 L 5.865046 5.86757 L -5.865474 5.866067 L -5.866271 -17.59898 L -17.600696 -17.600585 Z M -17.601504 17.598887 " transform="matrix(-0.026102,-0.999659,0.999659,-0.026102,285.271893,168.215422)"/>
<path style="fill:none;stroke-width:1;stroke-linecap:butt;stroke-linejoin:miter;stroke:rgb(78.431373%,0%,0%);stroke-opacity:1;stroke-miterlimit:10;" d="M -17.600786 17.601119 L 17.598787 17.598019 L 17.599593 -17.601453 L 5.865066 -17.599152 L 5.865865 5.865895 L -5.864757 5.868298 L -5.865454 -17.600654 L -17.599981 -17.598353 Z M -17.600786 17.601119 " transform="matrix(-0.999659,0.0261019,-0.0261019,-0.999659,286.52479,216.199067)"/>
<path style="fill:none;stroke-width:1;stroke-linecap:butt;stroke-linejoin:miter;stroke:rgb(78.431373%,0%,0%);stroke-opacity:1;stroke-miterlimit:10;" d="M -17.598018 17.598189 L 17.601454 17.598996 L 17.598357 -17.600577 L 5.867735 -17.598175 L 5.868532 5.866872 L -5.865893 5.865267 L -5.86669 -17.59978 L -17.601115 -17.601384 Z M -17.598018 17.598189 " transform="matrix(0.026102,0.999659,-0.999659,0.026102,329.496849,23.01158)"/>
<path style="fill:none;stroke-width:1;stroke-linecap:butt;stroke-linejoin:miter;stroke:rgb(78.431373%,0%,0%);stroke-opacity:1;stroke-miterlimit:10;" d="M -17.601269 17.601002 L 17.598203 17.601809 L 17.599112 -17.601568 L 5.86849 -17.599165 L 5.865383 5.86578 L -5.865239 5.868182 L -5.865935 -17.60077 L -17.600462 -17.59847 Z M -17.601269 17.601002 " transform="matrix(0.026102,0.999659,-0.999659,0.026102,330.749745,70.995226)"/>
<path style="fill:none;stroke-width:1;stroke-linecap:butt;stroke-linejoin:miter;stroke:rgb(78.431373%,0%,0%);stroke-opacity:1;stroke-miterlimit:10;" d="M -17.600513 17.600012 L 17.598958 17.600819 L 17.599765 -17.598653 L 5.865341 -17.600258 L 5.866138 5.864789 L -5.868389 5.86709 L -5.86518 -17.60176 L -17.599706 -17.59946 Z M -17.600513 17.600012 " transform="matrix(0.026102,0.999659,-0.999659,0.026102,332.002642,118.978872)"/>
<path style="fill:none;stroke-width:1;stroke-linecap:butt;stroke-linejoin:miter;stroke:rgb(78.431373%,0%,0%);stroke-opacity:1;stroke-miterlimit:10;" d="M -17.599766 17.599022 L 17.599706 17.599829 L 17.600513 -17.599643 L 5.866088 -17.601248 L 5.866784 5.867704 L -5.867641 5.866099 L -5.868439 -17.598948 L -17.598959 -17.60045 Z M -17.599766 17.599022 " transform="matrix(0.026102,0.999659,-0.999659,0.026102,333.255539,166.962525)"/>
<path style="fill:none;stroke-width:1;stroke-linecap:butt;stroke-linejoin:miter;stroke:rgb(78.431373%,0%,0%);stroke-opacity:1;stroke-miterlimit:10;" d="M -17.60144 17.598204 L 17.601937 17.599111 L 17.598838 -17.600462 L 5.868216 -17.59806 L 5.865109 5.866885 L -5.865411 5.865383 L -5.866209 -17.599664 L -17.600634 -17.601268 Z M -17.60144 17.598204 " transform="matrix(-0.999659,0.0261019,-0.0261019,-0.999659,334.508435,214.946171)"/>
<path style="fill:none;stroke-width:1;stroke-linecap:butt;stroke-linejoin:miter;stroke:rgb(78.431373%,0%,0%);stroke-opacity:1;stroke-miterlimit:10;" d="M -17.598239 17.600466 L 17.601233 17.601269 L 17.598131 -17.598305 L 5.867611 -17.599806 L 5.868411 5.865241 L -5.866116 5.867543 L -5.866814 -17.601409 L -17.601341 -17.599107 Z M -17.598239 17.600466 " transform="matrix(0.999659,-0.0261018,0.0261018,0.999659,377.480494,21.758684)"/>
<path style="fill:none;stroke-width:1;stroke-linecap:butt;stroke-linejoin:miter;stroke:rgb(78.431373%,0%,0%);stroke-opacity:1;stroke-miterlimit:10;" d="M -17.59802 17.598418 L 17.601452 17.599226 L 17.598355 -17.600348 L 5.867835 -17.601851 L 5.86853 5.867101 L -5.865895 5.865496 L -5.866692 -17.599551 L -17.601117 -17.601156 Z M -17.59802 17.598418 " transform="matrix(-0.026102,-0.999659,0.999659,-0.026102,378.733391,69.74233)"/>
<path style="fill:none;stroke-width:1;stroke-linecap:butt;stroke-linejoin:miter;stroke:rgb(78.431373%,0%,0%);stroke-opacity:1;stroke-miterlimit:10;" d="M -17.601504 17.599256 L 17.601873 17.600165 L 17.598775 -17.599409 L 5.868255 -17.600911 L 5.865046 5.867939 L -5.865474 5.866436 L -5.866272 -17.598611 L -17.600697 -17.600216 Z M -17.601504 17.599256 " transform="matrix(0.026102,0.999659,-0.999659,0.026102,379.986288,117.725975)"/>
<path style="fill:none;stroke-width:1;stroke-linecap:butt;stroke-linejoin:miter;stroke:rgb(78.431373%,0%,0%);stroke-opacity:1;stroke-miterlimit:10;" d="M -17.601205 17.59995 L 17.598267 17.600755 L 17.599072 -17.598717 L 5.868552 -17.600219 L 5.865446 5.864726 L -5.865176 5.867129 L -5.865873 -17.601823 L -17.6004 -17.599522 Z M -17.601205 17.59995 " transform="matrix(-0.999659,0.0261019,-0.0261019,-0.999659,381.239184,165.709628)"/>
<path style="fill:none;stroke-width:1;stroke-linecap:butt;stroke-linejoin:miter;stroke:rgb(78.431373%,0%,0%);stroke-opacity:1;stroke-miterlimit:10;" d="M -17.600102 17.601181 L 17.599471 17.598083 L 17.600278 -17.601389 L 5.865752 -17.599089 L 5.866549 5.865958 L -5.867978 5.868258 L -5.864768 -17.600591 L -17.599295 -17.598291 Z M -17.600102 17.601181 " transform="matrix(0.026102,0.999659,-0.999659,0.026102,382.492081,213.693274)"/>
<path style="fill:none;stroke-width:1;stroke-linecap:butt;stroke-linejoin:miter;stroke:rgb(78.431373%,0%,0%);stroke-opacity:1;stroke-miterlimit:10;" d="M -17.600179 17.598081 L 17.599292 17.598889 L 17.600101 -17.600583 L 5.865574 -17.598283 L 5.866371 5.866764 L -5.868054 5.865159 L -5.864946 -17.599786 L -17.599371 -17.601391 Z M -17.600179 17.598081 " transform="matrix(-0.026102,-0.999659,0.999659,-0.026102,425.46414,20.505787)"/>
<path style="fill:none;stroke-width:1;stroke-linecap:butt;stroke-linejoin:miter;stroke:rgb(78.431373%,0%,0%);stroke-opacity:1;stroke-miterlimit:10;" d="M -17.600398 17.60013 L 17.599074 17.600932 L 17.599876 -17.59854 L 5.865452 -17.600143 L 5.866252 5.864904 L -5.868275 5.867206 L -5.865069 -17.601644 L -17.599595 -17.599342 Z M -17.600398 17.60013 " transform="matrix(0.999659,-0.0261018,0.0261018,0.999659,426.717037,68.489433)"/>
<path style="fill:none;stroke-width:1;stroke-linecap:butt;stroke-linejoin:miter;stroke:rgb(78.431373%,0%,0%);stroke-opacity:1;stroke-miterlimit:10;" d="M -17.598589 17.598603 L 17.600883 17.59941 L 17.60169 -17.600062 L 5.867265 -17.601667 L 5.867961 5.867285 L -5.866464 5.865681 L -5.867262 -17.599366 L -17.601687 -17.600971 Z M -17.598589 17.598603 " transform="matrix(0.026102,0.999659,-0.999659,0.026102,427.969933,116.473079)"/>
<path style="fill:none;stroke-width:1;stroke-linecap:butt;stroke-linejoin:miter;stroke:rgb(78.431373%,0%,0%);stroke-opacity:1;stroke-miterlimit:10;" d="M -17.601848 17.601416 L 17.601631 17.59842 L 17.598533 -17.601154 L 5.867911 -17.598752 L 5.864803 5.866193 L -5.865819 5.868595 L -5.866514 -17.600357 L -17.600939 -17.601961 Z M -17.601848 17.601416 " transform="matrix(0.026102,0.999659,-0.999659,0.026102,429.22283,164.456732)"/>
<path style="fill:none;stroke-width:1;stroke-linecap:butt;stroke-linejoin:miter;stroke:rgb(78.431373%,0%,0%);stroke-opacity:1;stroke-miterlimit:10;" d="M -17.601093 17.600425 L 17.598379 17.601232 L 17.599186 -17.59824 L 5.864761 -17.599844 L 5.865559 5.865203 L -5.865063 5.867605 L -5.865759 -17.601347 L -17.600286 -17.599047 Z M -17.601093 17.600425 " transform="matrix(0.026102,0.999659,-0.999659,0.026102,430.475727,212.440378)"/>
<path style="fill:none;stroke-width:1;stroke-linecap:butt;stroke-linejoin:miter;stroke:rgb(78.431373%,0%,0%);stroke-opacity:1;stroke-miterlimit:10;" d="M -17.600633 17.598384 L 17.598839 17.599186 L 17.599642 -17.600286 L 5.865217 -17.601889 L 5.865915 5.867063 L -5.86851 5.86546 L -5.865405 -17.599485 L -17.59983 -17.601088 Z M -17.600633 17.598384 " transform="matrix(0.999659,-0.0261018,0.0261018,0.999659,473.447786,19.252891)"/>
<path style="fill:none;stroke-width:1;stroke-linecap:butt;stroke-linejoin:miter;stroke:rgb(78.431373%,0%,0%);stroke-opacity:1;stroke-miterlimit:10;" d="M -17.599945 17.599827 L 17.599527 17.600635 L 17.600335 -17.598837 L 5.86591 -17.600442 L 5.866605 5.86851 L -5.86782 5.866905 L -5.868616 -17.598142 L -17.599137 -17.599645 Z M -17.599945 17.599827 " transform="matrix(-0.026102,-0.999659,0.999659,-0.026102,474.700682,67.236536)"/>
<path style="fill:none;stroke-width:1;stroke-linecap:butt;stroke-linejoin:miter;stroke:rgb(78.431373%,0%,0%);stroke-opacity:1;stroke-miterlimit:10;" d="M -17.601624 17.598773 L 17.601753 17.599681 L 17.598654 -17.599893 L 5.868134 -17.601395 L 5.864925 5.867454 L -5.865595 5.865952 L -5.866393 -17.599095 L -17.600818 -17.600699 Z M -17.601624 17.598773 " transform="matrix(-0.999659,0.0261019,-0.0261019,-0.999659,475.953579,115.220182)"/>
<path style="fill:none;stroke-width:1;stroke-linecap:butt;stroke-linejoin:miter;stroke:rgb(78.431373%,0%,0%);stroke-opacity:1;stroke-miterlimit:10;" d="M -17.601567 17.600541 L 17.60181 17.601445 L 17.598708 -17.598129 L 5.868188 -17.59963 L 5.865083 5.865315 L -5.865539 5.867719 L -5.866237 -17.601233 L -17.600764 -17.598931 Z M -17.601567 17.600541 " transform="matrix(0.999659,-0.0261018,0.0261018,0.999659,477.206476,163.203835)"/>
<path style="fill:none;stroke-width:1;stroke-linecap:butt;stroke-linejoin:miter;stroke:rgb(78.431373%,0%,0%);stroke-opacity:1;stroke-miterlimit:10;" d="M -17.600577 17.601296 L 17.598997 17.598194 L 17.5998 -17.601278 L 5.865273 -17.598976 L 5.866074 5.866071 L -5.868453 5.868372 L -5.865247 -17.600478 L -17.599774 -17.598176 Z M -17.600577 17.601296 " transform="matrix(0.999659,-0.0261018,0.0261018,0.999659,478.459372,211.187481)"/>
<path style="fill:none;stroke-width:1;stroke-linecap:butt;stroke-linejoin:miter;stroke:rgb(78.431373%,0%,0%);stroke-opacity:1;stroke-miterlimit:10;" d="M -17.598623 17.598793 L 17.600858 17.601461 L 17.599621 -17.598104 L 5.866489 -17.600295 L 5.866012 5.866054 L -5.867205 5.867768 L -5.866728 -17.598581 L -17.59986 -17.600772 Z M -17.598623 17.598793 " transform="matrix(-0.999769,0.0214939,-0.0214939,-0.999769,26.717303,276.133146)"/>
<path style="fill:none;stroke-width:1;stroke-linecap:butt;stroke-linejoin:miter;stroke:rgb(78.431373%,0%,0%);stroke-opacity:1;stroke-miterlimit:10;" d="M -17.600154 17.601368 L 17.599411 17.600134 L 17.598177 -17.599431 L 5.865045 -17.601623 L 5.868471 5.864809 L -5.864745 5.866523 L -5.868172 -17.59991 L -17.601388 -17.598197 Z M -17.600154 17.601368 " transform="matrix(0.999769,-0.021494,0.021494,0.999769,27.749014,324.122057)"/>
<path style="fill:none;stroke-width:1;stroke-linecap:butt;stroke-linejoin:miter;stroke:rgb(78.431373%,0%,0%);stroke-opacity:1;stroke-miterlimit:10;" d="M -17.599494 17.598963 L 17.599986 17.601634 L 17.598836 -17.601836 L 5.86562 -17.600122 L 5.865141 5.866226 L -5.868075 5.867939 L -5.867596 -17.598409 L -17.600729 -17.600601 Z M -17.599494 17.598963 " transform="matrix(-0.021494,-0.999769,0.999769,-0.021494,28.780726,372.110968)"/>
<path style="fill:none;stroke-width:1;stroke-linecap:butt;stroke-linejoin:miter;stroke:rgb(78.431373%,0%,0%);stroke-opacity:1;stroke-miterlimit:10;" d="M -17.601186 17.600627 L 17.598379 17.59939 L 17.601047 -17.600091 L 5.867831 -17.598376 L 5.867354 5.867972 L -5.865778 5.865781 L -5.865301 -17.600568 L -17.598517 -17.598854 Z M -17.601186 17.600627 " transform="matrix(-0.999769,0.0214939,-0.0214939,-0.999769,29.812437,420.099879)"/>
<path style="fill:none;stroke-width:1;stroke-linecap:butt;stroke-linejoin:miter;stroke:rgb(78.431373%,0%,0%);stroke-opacity:1;stroke-miterlimit:10;" d="M -17.60003 17.598826 L 17.59945 17.601496 L 17.598299 -17.601974 L 5.865083 -17.600261 L 5.86851 5.866172 L -5.868612 5.867801 L -5.868134 -17.598547 L -17.601266 -17.600739 Z M -17.60003 17.598826 " transform="matrix(0.0214939,0.999769,-0.999769,0.0214939,30.844148,468.08879)"/>
<path style="fill:none;stroke-width:1;stroke-linecap:butt;stroke-linejoin:miter;stroke:rgb(78.431373%,0%,0%);stroke-opacity:1;stroke-miterlimit:10;" d="M -17.601221 17.599215 L 17.59826 17.601886 L 17.601015 -17.6015 L 5.867799 -17.599787 L 5.86732 5.866562 L -5.865896 5.868275 L -5.865418 -17.598073 L -17.59855 -17.600265 Z M -17.601221 17.599215 " transform="matrix(-0.021494,-0.999769,0.999769,-0.021494,74.706218,275.101435)"/>
<path style="fill:none;stroke-width:1;stroke-linecap:butt;stroke-linejoin:miter;stroke:rgb(78.431373%,0%,0%);stroke-opacity:1;stroke-miterlimit:10;" d="M -17.601437 17.598901 L 17.598043 17.601569 L 17.600796 -17.601817 L 5.867579 -17.600103 L 5.867102 5.866246 L -5.866114 5.86796 L -5.865637 -17.598389 L -17.598769 -17.60058 Z M -17.601437 17.598901 " transform="matrix(-0.999769,0.0214939,-0.0214939,-0.999769,75.737929,323.090346)"/>
<path style="fill:none;stroke-width:1;stroke-linecap:butt;stroke-linejoin:miter;stroke:rgb(78.431373%,0%,0%);stroke-opacity:1;stroke-miterlimit:10;" d="M -17.60099 17.59954 L 17.598575 17.598303 L 17.601243 -17.601178 L 5.868027 -17.599463 L 5.86755 5.866885 L -5.865666 5.868599 L -5.865105 -17.601655 L -17.598321 -17.599941 Z M -17.60099 17.59954 " transform="matrix(-0.999769,0.0214939,-0.0214939,-0.999769,76.76964,371.079257)"/>
<path style="fill:none;stroke-width:1;stroke-linecap:butt;stroke-linejoin:miter;stroke:rgb(78.431373%,0%,0%);stroke-opacity:1;stroke-miterlimit:10;" d="M -17.599386 17.601778 L 17.600178 17.600544 L 17.598944 -17.599021 L 5.865812 -17.601213 L 5.865333 5.865135 L -5.867883 5.866848 L -5.867405 -17.5995 L -17.600537 -17.601692 Z M -17.599386 17.601778 " transform="matrix(-0.021494,-0.999769,0.999769,-0.021494,77.801352,419.068168)"/>
<path style="fill:none;stroke-width:1;stroke-linecap:butt;stroke-linejoin:miter;stroke:rgb(78.431373%,0%,0%);stroke-opacity:1;stroke-miterlimit:10;" d="M -17.600095 17.600819 L 17.59947 17.599582 L 17.598233 -17.599983 L 5.865017 -17.598268 L 5.868445 5.868164 L -5.868593 5.865889 L -5.868116 -17.60046 L -17.601332 -17.598746 Z M -17.600095 17.600819 " transform="matrix(-0.999769,0.0214939,-0.0214939,-0.999769,78.833063,467.057079)"/>
<path style="fill:none;stroke-width:1;stroke-linecap:butt;stroke-linejoin:miter;stroke:rgb(78.431373%,0%,0%);stroke-opacity:1;stroke-miterlimit:10;" d="M -17.601668 17.598576 L 17.601718 17.601331 L 17.600483 -17.598234 L 5.867351 -17.600426 L 5.866872 5.865922 L -5.866344 5.867636 L -5.865865 -17.598713 L -17.598997 -17.600905 Z M -17.601668 17.598576 " transform="matrix(-0.021494,-0.999769,0.999769,-0.021494,122.695129,274.069724)"/>
<path style="fill:none;stroke-width:1;stroke-linecap:butt;stroke-linejoin:miter;stroke:rgb(78.431373%,0%,0%);stroke-opacity:1;stroke-miterlimit:10;" d="M -17.601353 17.598358 L 17.598128 17.601029 L 17.600799 -17.598452 L 5.867667 -17.600644 L 5.867188 5.865705 L -5.866028 5.867418 L -5.865549 -17.598931 L -17.598681 -17.601123 Z M -17.601353 17.598358 " transform="matrix(0.999769,-0.021494,0.021494,0.999769,123.72684,322.058635)"/>
<path style="fill:none;stroke-width:1;stroke-linecap:butt;stroke-linejoin:miter;stroke:rgb(78.431373%,0%,0%);stroke-opacity:1;stroke-miterlimit:10;" d="M -17.60035 17.599093 L 17.59913 17.601761 L 17.601883 -17.601625 L 5.864761 -17.599995 L 5.868189 5.866437 L -5.865027 5.868152 L -5.868455 -17.598281 L -17.601587 -17.600472 Z M -17.60035 17.599093 " transform="matrix(-0.999769,0.0214939,-0.0214939,-0.999769,124.758551,370.047546)"/>
<path style="fill:none;stroke-width:1;stroke-linecap:butt;stroke-linejoin:miter;stroke:rgb(78.431373%,0%,0%);stroke-opacity:1;stroke-miterlimit:10;" d="M -17.598426 17.601068 L 17.601138 17.599834 L 17.599904 -17.599731 L 5.866772 -17.601923 L 5.866209 5.868331 L -5.866923 5.866139 L -5.866444 -17.60021 L -17.59966 -17.598497 Z M -17.598426 17.601068 " transform="matrix(0.999769,-0.021494,0.021494,0.999769,125.790262,418.036457)"/>
<path style="fill:none;stroke-width:1;stroke-linecap:butt;stroke-linejoin:miter;stroke:rgb(78.431373%,0%,0%);stroke-opacity:1;stroke-miterlimit:10;" d="M -17.598874 17.600429 L 17.600691 17.599195 L 17.599457 -17.60037 L 5.866241 -17.598657 L 5.865761 5.867692 L -5.867371 5.865499 L -5.866892 -17.600849 L -17.600108 -17.599136 Z M -17.598874 17.600429 " transform="matrix(0.999769,-0.021494,0.021494,0.999769,126.821974,466.025368)"/>
<path style="fill:none;stroke-width:1;stroke-linecap:butt;stroke-linejoin:miter;stroke:rgb(78.431373%,0%,0%);stroke-opacity:1;stroke-miterlimit:10;" d="M -17.600035 17.598874 L 17.599445 17.601544 L 17.598294 -17.601926 L 5.865078 -17.600213 L 5.868505 5.86622 L -5.868617 5.867849 L -5.868139 -17.598499 L -17.601271 -17.600691 Z M -17.600035 17.598874 " transform="matrix(0.0214939,0.999769,-0.999769,0.0214939,170.68404,273.038013)"/>
<path style="fill:none;stroke-width:1;stroke-linecap:butt;stroke-linejoin:miter;stroke:rgb(78.431373%,0%,0%);stroke-opacity:1;stroke-miterlimit:10;" d="M -17.598087 17.598889 L 17.601394 17.601561 L 17.600244 -17.601909 L 5.867028 -17.600196 L 5.866549 5.866152 L -5.866668 5.867865 L -5.866188 -17.598483 L -17.599321 -17.600676 Z M -17.598087 17.598889 " transform="matrix(0.999769,-0.021494,0.021494,0.999769,171.715751,321.026924)"/>
<path style="fill:none;stroke-width:1;stroke-linecap:butt;stroke-linejoin:miter;stroke:rgb(78.431373%,0%,0%);stroke-opacity:1;stroke-miterlimit:10;" d="M -17.598534 17.59825 L 17.600946 17.600921 L 17.599712 -17.598644 L 5.86658 -17.600836 L 5.866101 5.865513 L -5.867115 5.867226 L -5.866636 -17.599123 L -17.599768 -17.601315 Z M -17.598534 17.59825 " transform="matrix(0.999769,-0.021494,0.021494,0.999769,172.747462,369.015835)"/>
<path style="fill:none;stroke-width:1;stroke-linecap:butt;stroke-linejoin:miter;stroke:rgb(78.431373%,0%,0%);stroke-opacity:1;stroke-miterlimit:10;" d="M -17.599263 17.599285 L 17.600217 17.601953 L 17.599064 -17.601517 L 5.865848 -17.599803 L 5.865371 5.866545 L -5.867845 5.86826 L -5.867368 -17.598089 L -17.6005 -17.60028 Z M -17.599263 17.599285 " transform="matrix(-0.999769,0.0214939,-0.0214939,-0.999769,173.779173,417.004745)"/>
<path style="fill:none;stroke-width:1;stroke-linecap:butt;stroke-linejoin:miter;stroke:rgb(78.431373%,0%,0%);stroke-opacity:1;stroke-miterlimit:10;" d="M -17.599642 17.600052 L 17.599923 17.598817 L 17.598688 -17.600748 L 5.865472 -17.599034 L 5.864993 5.867314 L -5.868139 5.865122 L -5.86766 -17.601226 L -17.600876 -17.599513 Z M -17.599642 17.600052 " transform="matrix(-0.021494,-0.999769,0.999769,-0.021494,174.810885,464.993656)"/>
<path style="fill:none;stroke-width:1;stroke-linecap:butt;stroke-linejoin:miter;stroke:rgb(78.431373%,0%,0%);stroke-opacity:1;stroke-miterlimit:10;" d="M -17.599588 17.599513 L 17.599977 17.598278 L 17.598741 -17.601287 L 5.865525 -17.599573 L 5.865047 5.866775 L -5.868169 5.868489 L -5.867607 -17.601765 L -17.600823 -17.600051 Z M -17.599588 17.599513 " transform="matrix(0.0214939,0.999769,-0.999769,0.0214939,218.672951,272.006301)"/>
<path style="fill:none;stroke-width:1;stroke-linecap:butt;stroke-linejoin:miter;stroke:rgb(78.431373%,0%,0%);stroke-opacity:1;stroke-miterlimit:10;" d="M -17.599603 17.601463 L 17.599962 17.600226 L 17.598725 -17.599338 L 5.865592 -17.601529 L 5.865115 5.864819 L -5.868101 5.866533 L -5.867624 -17.599815 L -17.60084 -17.598101 Z M -17.599603 17.601463 " transform="matrix(-0.999769,0.0214939,-0.0214939,-0.999769,219.704662,319.995212)"/>
<path style="fill:none;stroke-width:1;stroke-linecap:butt;stroke-linejoin:miter;stroke:rgb(78.431373%,0%,0%);stroke-opacity:1;stroke-miterlimit:10;" d="M -17.601368 17.600307 L 17.598196 17.599073 L 17.600867 -17.600408 L 5.867651 -17.598695 L 5.867172 5.867654 L -5.86596 5.865462 L -5.865481 -17.600887 L -17.598697 -17.599174 Z M -17.601368 17.600307 " transform="matrix(-0.021494,-0.999769,0.999769,-0.021494,220.736373,367.984123)"/>
<path style="fill:none;stroke-width:1;stroke-linecap:butt;stroke-linejoin:miter;stroke:rgb(78.431373%,0%,0%);stroke-opacity:1;stroke-miterlimit:10;" d="M -17.599621 17.598058 L 17.599859 17.600729 L 17.598625 -17.598835 L 5.865493 -17.601028 L 5.865014 5.865321 L -5.868202 5.867034 L -5.867723 -17.599315 L -17.600855 -17.601507 Z M -17.599621 17.598058 " transform="matrix(0.999769,-0.021494,0.021494,0.999769,221.768084,415.973034)"/>
<path style="fill:none;stroke-width:1;stroke-linecap:butt;stroke-linejoin:miter;stroke:rgb(78.431373%,0%,0%);stroke-opacity:1;stroke-miterlimit:10;" d="M -17.600153 17.601324 L 17.599412 17.60009 L 17.598178 -17.599475 L 5.865046 -17.601667 L 5.868472 5.864765 L -5.864744 5.866478 L -5.868171 -17.599954 L -17.601387 -17.598241 Z M -17.600153 17.601324 " transform="matrix(0.999769,-0.021494,0.021494,0.999769,222.799795,463.961945)"/>
<path style="fill:none;stroke-width:1;stroke-linecap:butt;stroke-linejoin:miter;stroke:rgb(78.431373%,0%,0%);stroke-opacity:1;stroke-miterlimit:10;" d="M -17.59919 17.600662 L 17.600375 17.599428 L 17.599141 -17.600137 L 5.865925 -17.598424 L 5.865446 5.867925 L -5.867687 5.865733 L -5.867208 -17.600616 L -17.600424 -17.598903 Z M -17.59919 17.600662 " transform="matrix(-0.021494,-0.999769,0.999769,-0.021494,266.661846,270.974591)"/>
<path style="fill:none;stroke-width:1;stroke-linecap:butt;stroke-linejoin:miter;stroke:rgb(78.431373%,0%,0%);stroke-opacity:1;stroke-miterlimit:10;" d="M -17.59855 17.600214 L 17.601015 17.59898 L 17.59978 -17.600585 L 5.866564 -17.598871 L 5.866085 5.867477 L -5.867047 5.865285 L -5.866568 -17.601063 L -17.599784 -17.59935 Z M -17.59855 17.600214 " transform="matrix(-0.021494,-0.999769,0.999769,-0.021494,267.693558,318.963502)"/>
<path style="fill:none;stroke-width:1;stroke-linecap:butt;stroke-linejoin:miter;stroke:rgb(78.431373%,0%,0%);stroke-opacity:1;stroke-miterlimit:10;" d="M -17.601816 17.599683 L 17.601654 17.598533 L 17.60042 -17.601032 L 5.867203 -17.599319 L 5.866725 5.86703 L -5.866408 5.864837 L -5.865929 -17.601511 L -17.599145 -17.599798 Z M -17.601816 17.599683 " transform="matrix(-0.021494,-0.999769,0.999769,-0.021494,268.725269,366.952412)"/>
<path style="fill:none;stroke-width:1;stroke-linecap:butt;stroke-linejoin:miter;stroke:rgb(78.431373%,0%,0%);stroke-opacity:1;stroke-miterlimit:10;" d="M -17.600245 17.598505 L 17.599235 17.601177 L 17.601907 -17.598304 L 5.864869 -17.60058 L 5.868295 5.865852 L -5.864921 5.867565 L -5.868347 -17.598867 L -17.601479 -17.601059 Z M -17.600245 17.598505 " transform="matrix(0.999769,-0.021494,0.021494,0.999769,269.75698,414.941323)"/>
<path style="fill:none;stroke-width:1;stroke-linecap:butt;stroke-linejoin:miter;stroke:rgb(78.431373%,0%,0%);stroke-opacity:1;stroke-miterlimit:10;" d="M -17.601458 17.598945 L 17.598023 17.601613 L 17.600775 -17.601773 L 5.867559 -17.600059 L 5.867082 5.86629 L -5.866134 5.868004 L -5.865657 -17.598345 L -17.598789 -17.600536 Z M -17.601458 17.598945 " transform="matrix(-0.999769,0.0214939,-0.0214939,-0.999769,270.788691,462.930234)"/>
<path style="fill:none;stroke-width:1;stroke-linecap:butt;stroke-linejoin:miter;stroke:rgb(78.431373%,0%,0%);stroke-opacity:1;stroke-miterlimit:10;" d="M -17.599637 17.600023 L 17.599928 17.598788 L 17.598693 -17.600776 L 5.865477 -17.599063 L 5.864998 5.867285 L -5.868134 5.865093 L -5.867655 -17.601255 L -17.600871 -17.599542 Z M -17.599637 17.600023 " transform="matrix(-0.021494,-0.999769,0.999769,-0.021494,314.650757,269.942879)"/>
<path style="fill:none;stroke-width:1;stroke-linecap:butt;stroke-linejoin:miter;stroke:rgb(78.431373%,0%,0%);stroke-opacity:1;stroke-miterlimit:10;" d="M -17.598998 17.599575 L 17.600567 17.598341 L 17.599333 -17.601224 L 5.866116 -17.599511 L 5.865638 5.866838 L -5.867579 5.868551 L -5.867016 -17.601703 L -17.600232 -17.59999 Z M -17.598998 17.599575 " transform="matrix(-0.021494,-0.999769,0.999769,-0.021494,315.682469,317.93179)"/>
<path style="fill:none;stroke-width:1;stroke-linecap:butt;stroke-linejoin:miter;stroke:rgb(78.431373%,0%,0%);stroke-opacity:1;stroke-miterlimit:10;" d="M -17.601797 17.601124 L 17.601673 17.599971 L 17.600436 -17.599594 L 5.867304 -17.601785 L 5.866743 5.868469 L -5.86639 5.866277 L -5.865913 -17.600071 L -17.599129 -17.598357 Z M -17.601797 17.601124 " transform="matrix(-0.999769,0.0214939,-0.0214939,-0.999769,316.71418,365.920701)"/>
<path style="fill:none;stroke-width:1;stroke-linecap:butt;stroke-linejoin:miter;stroke:rgb(78.431373%,0%,0%);stroke-opacity:1;stroke-miterlimit:10;" d="M -17.600527 17.598214 L 17.598954 17.600884 L 17.601624 -17.598597 L 5.868491 -17.600788 L 5.868013 5.86556 L -5.865203 5.867274 L -5.86863 -17.599159 L -17.601762 -17.60135 Z M -17.600527 17.598214 " transform="matrix(0.0214939,0.999769,-0.999769,0.0214939,317.745891,413.909612)"/>
<path style="fill:none;stroke-width:1;stroke-linecap:butt;stroke-linejoin:miter;stroke:rgb(78.431373%,0%,0%);stroke-opacity:1;stroke-miterlimit:10;" d="M -17.600985 17.598148 L 17.598496 17.600819 L 17.601167 -17.598661 L 5.868035 -17.600853 L 5.867556 5.865495 L -5.86566 5.867208 L -5.865181 -17.59914 L -17.598314 -17.601332 Z M -17.600985 17.598148 " transform="matrix(-0.021494,-0.999769,0.999769,-0.021494,318.777602,461.898523)"/>
<path style="fill:none;stroke-width:1;stroke-linecap:butt;stroke-linejoin:miter;stroke:rgb(78.431373%,0%,0%);stroke-opacity:1;stroke-miterlimit:10;" d="M -17.598147 17.599481 L 17.601417 17.598244 L 17.60018 -17.60132 L 5.866964 -17.599606 L 5.866487 5.866742 L -5.866729 5.868456 L -5.866168 -17.601797 L -17.599384 -17.600083 Z M -17.598147 17.599481 " transform="matrix(-0.999769,0.0214939,-0.0214939,-0.999769,362.639668,268.911168)"/>
<path style="fill:none;stroke-width:1;stroke-linecap:butt;stroke-linejoin:miter;stroke:rgb(78.431373%,0%,0%);stroke-opacity:1;stroke-miterlimit:10;" d="M -17.601605 17.600037 L 17.601865 17.598884 L 17.600628 -17.600681 L 5.867412 -17.598967 L 5.866934 5.867382 L -5.866198 5.86519 L -5.865721 -17.601158 L -17.598937 -17.599444 Z M -17.601605 17.600037 " transform="matrix(-0.999769,0.0214939,-0.0214939,-0.999769,363.671379,316.900079)"/>
<path style="fill:none;stroke-width:1;stroke-linecap:butt;stroke-linejoin:miter;stroke:rgb(78.431373%,0%,0%);stroke-opacity:1;stroke-miterlimit:10;" d="M -17.59944 17.598406 L 17.600041 17.601076 L 17.598805 -17.598489 L 5.865673 -17.60068 L 5.865195 5.865668 L -5.868021 5.867382 L -5.867543 -17.598967 L -17.600676 -17.601158 Z M -17.59944 17.598406 " transform="matrix(0.0214939,0.999769,-0.999769,0.0214939,364.703091,364.88899)"/>
<path style="fill:none;stroke-width:1;stroke-linecap:butt;stroke-linejoin:miter;stroke:rgb(78.431373%,0%,0%);stroke-opacity:1;stroke-miterlimit:10;" d="M -17.60071 17.601316 L 17.598855 17.600079 L 17.601523 -17.599402 L 5.868391 -17.601593 L 5.867913 5.864755 L -5.865303 5.866469 L -5.864826 -17.599879 L -17.601947 -17.598249 Z M -17.60071 17.601316 " transform="matrix(-0.999769,0.0214939,-0.0214939,-0.999769,365.734802,412.877901)"/>
<path style="fill:none;stroke-width:1;stroke-linecap:butt;stroke-linejoin:miter;stroke:rgb(78.431373%,0%,0%);stroke-opacity:1;stroke-miterlimit:10;" d="M -17.600179 17.59805 L 17.599302 17.600718 L 17.598065 -17.598847 L 5.864933 -17.601038 L 5.868361 5.865395 L -5.864855 5.867109 L -5.868283 -17.599324 L -17.601416 -17.601515 Z M -17.600179 17.59805 " transform="matrix(-0.999769,0.0214939,-0.0214939,-0.999769,366.766513,460.866812)"/>
<path style="fill:none;stroke-width:1;stroke-linecap:butt;stroke-linejoin:miter;stroke:rgb(78.431373%,0%,0%);stroke-opacity:1;stroke-miterlimit:10;" d="M -17.600532 17.598744 L 17.598949 17.601415 L 17.60162 -17.598066 L 5.868487 -17.600258 L 5.868008 5.86609 L -5.865208 5.867804 L -5.868634 -17.598629 L -17.601767 -17.600821 Z M -17.600532 17.598744 " transform="matrix(-0.021494,-0.999769,0.999769,-0.021494,410.628579,267.879457)"/>
<path style="fill:none;stroke-width:1;stroke-linecap:butt;stroke-linejoin:miter;stroke:rgb(78.431373%,0%,0%);stroke-opacity:1;stroke-miterlimit:10;" d="M -17.601269 17.601127 L 17.598296 17.599893 L 17.600967 -17.599588 L 5.867835 -17.60178 L 5.867272 5.868474 L -5.86586 5.866282 L -5.865381 -17.600067 L -17.598597 -17.598354 Z M -17.601269 17.601127 " transform="matrix(0.999769,-0.021494,0.021494,0.999769,411.66029,315.868368)"/>
<path style="fill:none;stroke-width:1;stroke-linecap:butt;stroke-linejoin:miter;stroke:rgb(78.431373%,0%,0%);stroke-opacity:1;stroke-miterlimit:10;" d="M -17.600518 17.600229 L 17.599046 17.598992 L 17.601715 -17.600489 L 5.868499 -17.598775 L 5.868021 5.867574 L -5.865111 5.865382 L -5.868539 -17.60105 L -17.601755 -17.599336 Z M -17.600518 17.600229 " transform="matrix(-0.999769,0.0214939,-0.0214939,-0.999769,412.692002,363.857279)"/>
<path style="fill:none;stroke-width:1;stroke-linecap:butt;stroke-linejoin:miter;stroke:rgb(78.431373%,0%,0%);stroke-opacity:1;stroke-miterlimit:10;" d="M -17.600071 17.600868 L 17.599494 17.599631 L 17.598257 -17.599933 L 5.865041 -17.598219 L 5.868469 5.868213 L -5.868569 5.865938 L -5.868092 -17.600411 L -17.601308 -17.598696 Z M -17.600071 17.600868 " transform="matrix(-0.999769,0.0214939,-0.0214939,-0.999769,413.723713,411.84619)"/>
<path style="fill:none;stroke-width:1;stroke-linecap:butt;stroke-linejoin:miter;stroke:rgb(78.431373%,0%,0%);stroke-opacity:1;stroke-miterlimit:10;" d="M -17.600271 17.599941 L 17.599293 17.598705 L 17.601963 -17.600775 L 5.864842 -17.599146 L 5.868269 5.867287 L -5.864863 5.865095 L -5.868291 -17.601338 L -17.601507 -17.599624 Z M -17.600271 17.599941 " transform="matrix(0.0214939,0.999769,-0.999769,0.0214939,414.755424,459.835101)"/>
<path style="fill:none;stroke-width:1;stroke-linecap:butt;stroke-linejoin:miter;stroke:rgb(78.431373%,0%,0%);stroke-opacity:1;stroke-miterlimit:10;" d="M -17.600774 17.598502 L 17.598707 17.601171 L 17.601375 -17.59831 L 5.868243 -17.600501 L 5.867766 5.865847 L -5.86545 5.867561 L -5.864973 -17.598787 L -17.598106 -17.600978 Z M -17.600774 17.598502 " transform="matrix(-0.999769,0.0214939,-0.0214939,-0.999769,458.61749,266.847746)"/>
<path style="fill:none;stroke-width:1;stroke-linecap:butt;stroke-linejoin:miter;stroke:rgb(78.431373%,0%,0%);stroke-opacity:1;stroke-miterlimit:10;" d="M -17.600424 17.601562 L 17.59914 17.600328 L 17.601811 -17.599153 L 5.864774 -17.601429 L 5.8682 5.865003 L -5.865016 5.866717 L -5.868442 -17.599716 L -17.601575 -17.601908 Z M -17.600424 17.601562 " transform="matrix(-0.021494,-0.999769,0.999769,-0.021494,459.649201,314.836657)"/>
<path style="fill:none;stroke-width:1;stroke-linecap:butt;stroke-linejoin:miter;stroke:rgb(78.431373%,0%,0%);stroke-opacity:1;stroke-miterlimit:10;" d="M -17.59845 17.601019 L 17.601114 17.599785 L 17.59988 -17.59978 L 5.866664 -17.598067 L 5.866185 5.868282 L -5.866947 5.86609 L -5.866468 -17.600259 L -17.599684 -17.598546 Z M -17.59845 17.601019 " transform="matrix(0.999769,-0.021494,0.021494,0.999769,460.680912,362.825568)"/>
<path style="fill:none;stroke-width:1;stroke-linecap:butt;stroke-linejoin:miter;stroke:rgb(78.431373%,0%,0%);stroke-opacity:1;stroke-miterlimit:10;" d="M -17.598898 17.60038 L 17.600667 17.599146 L 17.599433 -17.600419 L 5.866217 -17.598706 L 5.865737 5.867642 L -5.867395 5.86545 L -5.866916 -17.600898 L -17.600132 -17.599185 Z M -17.598898 17.60038 " transform="matrix(0.999769,-0.021494,0.021494,0.999769,461.712624,410.814479)"/>
<path style="fill:none;stroke-width:1;stroke-linecap:butt;stroke-linejoin:miter;stroke:rgb(78.431373%,0%,0%);stroke-opacity:1;stroke-miterlimit:10;" d="M -17.598506 17.600219 L 17.601059 17.598985 L 17.599824 -17.60058 L 5.866608 -17.598866 L 5.866129 5.867482 L -5.867003 5.86529 L -5.866524 -17.601058 L -17.59974 -17.599345 Z M -17.598506 17.600219 " transform="matrix(-0.021494,-0.999769,0.999769,-0.021494,462.744335,458.80339)"/>
</g>
</svg>
