<?xml version="1.0" encoding="UTF-8" standalone="no"?>
<svg
   xmlns:dc="http://purl.org/dc/elements/1.1/"
   xmlns:cc="http://creativecommons.org/ns#"
   xmlns:rdf="http://www.w3.org/1999/02/22-rdf-syntax-ns#"
   xmlns:svg="http://www.w3.org/2000/svg"
   xmlns="http://www.w3.org/2000/svg"
   xmlns:sodipodi="http://sodipodi.sourceforge.net/DTD/sodipodi-0.dtd"
   xmlns:inkscape="http://www.inkscape.org/namespaces/inkscape"
   width="7in"
   height="5in"
   viewBox="0 0 503.99999 359.99999"
   version="1.1"
   id="svg3926"
   inkscape:version="0.91 r13725"
   sodipodi:docname="output.svg">
  <metadata
     id="metadata4137">
    <rdf:RDF>
      <cc:Work
         rdf:about="">
        <dc:format>image/svg+xml</dc:format>
        <dc:type
           rdf:resource="http://purl.org/dc/dcmitype/StillImage" />
        <dc:title></dc:title>
      </cc:Work>
    </rdf:RDF>
  </metadata>
  <defs
     id="defs4135" />
  <sodipodi:namedview
     pagecolor="#ffffff"
     bordercolor="#666666"
     borderopacity="1"
     objecttolerance="10"
     gridtolerance="10"
     guidetolerance="10"
     inkscape:pageopacity="0"
     inkscape:pageshadow="2"
     inkscape:window-width="816"
     inkscape:window-height="582"
     id="namedview4133"
     showgrid="false"
     units="in"
     inkscape:zoom="0.3776"
     inkscape:cx="-18.538136"
     inkscape:cy="312.5"
     inkscape:window-x="0"
     inkscape:window-y="0"
     inkscape:window-maximized="0"
     inkscape:current-layer="svg3926" />
  <g
     id="surface796769"
     transform="matrix(0.67104651,0,0,0.67104651,84.238372,15.192348)">
    <path
       style="fill:none;stroke:#c70000;stroke-width:1;stroke-linecap:butt;stroke-linejoin:miter;stroke-miterlimit:10;stroke-opacity:1"
       d="m -17.600955,17.600814 35.202679,-0.002 -0.0022,-35.198777 -11.731503,-0.0018 1.14e-4,23.467092 -11.735588,0.00192 -1.14e-4,-23.467092 -11.731503,-0.0018 z m 0,0"
       transform="matrix(-0.0467694,-0.998906,0.998906,-0.0467694,27.013229,30.327423)"
       id="path3933"
       inkscape:connector-curvature="0" />
    <path
       style="fill:none;stroke:#c70000;stroke-width:1;stroke-linecap:butt;stroke-linejoin:miter;stroke-miterlimit:10;stroke-opacity:1"
       d="m -17.598663,17.598173 35.198594,0.0017 0.0017,-35.198595 -11.735405,-0.002 1.14e-4,23.467092 -11.731686,0.0021 -1.14e-4,-23.467091 -11.735406,-0.002 z m 0,0"
       transform="matrix(-0.0467694,-0.998906,0.998906,-0.0467694,29.258162,78.274901)"
       id="path3935"
       inkscape:connector-curvature="0" />
    <path
       style="fill:none;stroke:#c70000;stroke-width:1;stroke-linecap:butt;stroke-linejoin:miter;stroke-miterlimit:10;stroke-opacity:1"
       d="m -17.600468,17.599252 35.198595,0.0017 0.0019,-35.202497 -11.731686,0.0021 1.15e-4,23.467091 -11.735406,-0.00198 -1.14e-4,-23.467091 -11.731686,0.0021 z m 0,0"
       transform="matrix(-0.0467694,-0.998906,0.998906,-0.0467694,31.503093,126.22237)"
       id="path3937"
       inkscape:connector-curvature="0" />
    <path
       style="fill:none;stroke:#c70000;stroke-width:1;stroke-linecap:butt;stroke-linejoin:miter;stroke-miterlimit:10;stroke-opacity:1"
       d="m -17.598298,17.600423 35.198777,-0.0022 -0.0022,-35.198777 -11.731686,0.0021 1.17e-4,23.467091 -11.731504,-0.0018 -1.16e-4,-23.467091 -11.735588,0.0019 z m 0,0"
       transform="matrix(-0.998906,0.0467693,-0.0467693,-0.998906,33.748025,174.16985)"
       id="path3939"
       inkscape:connector-curvature="0" />
    <path
       style="fill:none;stroke:#c70000;stroke-width:1;stroke-linecap:butt;stroke-linejoin:miter;stroke-miterlimit:10;stroke-opacity:1"
       d="m -17.600152,17.601593 35.198777,-0.0022 0.0017,-35.198595 -11.735406,-0.002 1.15e-4,23.467091 -11.731686,0.0021 -1.15e-4,-23.467092 -11.731503,-0.0018 z m 0,0"
       transform="matrix(-0.0467694,-0.998906,0.998906,-0.0467694,35.992957,222.11732)"
       id="path3941"
       inkscape:connector-curvature="0" />
    <path
       style="fill:none;stroke:#c70000;stroke-width:1;stroke-linecap:butt;stroke-linejoin:miter;stroke-miterlimit:10;stroke-opacity:1"
       d="m -17.60007,17.60191 35.198778,-0.0022 0.0017,-35.198594 -11.735406,-0.002 1.19e-4,23.467091 -11.731686,0.0021 -1.19e-4,-23.467091 -11.731503,-0.0018 z m 0,0"
       transform="matrix(0.998906,-0.0467692,0.0467692,0.998906,74.960707,28.08249)"
       id="path3943"
       inkscape:connector-curvature="0" />
    <path
       style="fill:none;stroke:#c70000;stroke-width:1;stroke-linecap:butt;stroke-linejoin:miter;stroke-miterlimit:10;stroke-opacity:1"
       d="m -17.598808,17.599802 35.198595,0.0017 0.0019,-35.202497 -11.735588,0.0019 1.19e-4,23.467091 -11.731504,-0.0018 -1.18e-4,-23.467092 -11.735588,0.0019 z m 0,0"
       transform="matrix(0.998906,-0.0467692,0.0467692,0.998906,77.20564,76.029968)"
       id="path3945"
       inkscape:connector-curvature="0" />
    <path
       style="fill:none;stroke:#c70000;stroke-width:1;stroke-linecap:butt;stroke-linejoin:miter;stroke-miterlimit:10;stroke-opacity:1"
       d="m -17.601076,17.599764 35.202497,0.0019 -0.002,-35.20268 -11.731686,0.0021 1.15e-4,23.467091 -11.735405,-0.00198 -1.16e-4,-23.467092 -11.731686,0.0021 z m 0,0"
       transform="matrix(0.0467694,0.998906,-0.998906,0.0467694,79.450571,123.97744)"
       id="path3947"
       inkscape:connector-curvature="0" />
    <path
       style="fill:none;stroke:#c70000;stroke-width:1;stroke-linecap:butt;stroke-linejoin:miter;stroke-miterlimit:10;stroke-opacity:1"
       d="m -17.599286,17.598685 35.198595,0.0017 0.0017,-35.198595 -11.735405,-0.002 1.15e-4,23.467091 -11.731503,-0.0018 -2.98e-4,-23.46319 -11.735405,-0.002 z m 0,0"
       transform="matrix(0.0467694,0.998906,-0.998906,0.0467694,81.695503,171.92492)"
       id="path3949"
       inkscape:connector-curvature="0" />
    <path
       style="fill:none;stroke:#c70000;stroke-width:1;stroke-linecap:butt;stroke-linejoin:miter;stroke-miterlimit:10;stroke-opacity:1"
       d="m -17.598891,17.599484 35.198595,0.0017 0.0019,-35.202497 -11.735588,0.0019 1.15e-4,23.467091 -11.731503,-0.0018 -1.15e-4,-23.467091 -11.735588,0.0019 z m 0,0"
       transform="matrix(-0.0467694,-0.998906,0.998906,-0.0467694,83.940435,219.87239)"
       id="path3951"
       inkscape:connector-curvature="0" />
    <path
       style="fill:none;stroke:#c70000;stroke-width:1;stroke-linecap:butt;stroke-linejoin:miter;stroke-miterlimit:10;stroke-opacity:1"
       d="m -17.598614,17.600502 35.198777,-0.0022 0.0017,-35.198595 -11.735588,0.0019 2.97e-4,23.463189 -11.731686,0.0021 -1.15e-4,-23.467092 -11.735588,0.0019 z m 0,0"
       transform="matrix(-0.0467694,-0.998906,0.998906,-0.0467694,122.90818,25.837558)"
       id="path3953"
       inkscape:connector-curvature="0" />
    <path
       style="fill:none;stroke:#c70000;stroke-width:1;stroke-linecap:butt;stroke-linejoin:miter;stroke-miterlimit:10;stroke-opacity:1"
       d="m -17.600408,17.601581 35.198778,-0.0022 0.0017,-35.198595 -11.731504,-0.0018 -0.00379,23.466909 -11.731686,0.0021 -1.15e-4,-23.467092 -11.731503,-0.0018 z m 0,0"
       transform="matrix(-0.0467694,-0.998906,0.998906,-0.0467694,125.15311,73.785036)"
       id="path3955"
       inkscape:connector-curvature="0" />
    <path
       style="fill:none;stroke:#c70000;stroke-width:1;stroke-linecap:butt;stroke-linejoin:miter;stroke-miterlimit:10;stroke-opacity:1"
       d="m -17.598252,17.59815 35.198594,0.0017 -0.0022,-35.198778 -11.731503,-0.0018 1.15e-4,23.467091 -11.731686,0.0021 -1.15e-4,-23.467091 -11.735406,-0.002 z m 0,0"
       transform="matrix(0.0467694,0.998906,-0.998906,0.0467694,127.39804,121.7325)"
       id="path3957"
       inkscape:connector-curvature="0" />
    <path
       style="fill:none;stroke:#c70000;stroke-width:1;stroke-linecap:butt;stroke-linejoin:miter;stroke-miterlimit:10;stroke-opacity:1"
       d="m -17.601706,17.598679 35.202497,0.0019 -0.0022,-35.198777 -11.731503,-0.0018 1.16e-4,23.467091 -11.735405,-0.00198 -1.16e-4,-23.467091 -11.731687,0.0021 z m 0,0"
       transform="matrix(-0.998906,0.0467693,-0.0467693,-0.998906,129.64298,169.67998)"
       id="path3959"
       inkscape:connector-curvature="0" />
    <path
       style="fill:none;stroke:#c70000;stroke-width:1;stroke-linecap:butt;stroke-linejoin:miter;stroke-miterlimit:10;stroke-opacity:1"
       d="m -17.601396,17.599846 35.202497,0.0019 -0.002,-35.202679 -11.731686,0.0021 1.18e-4,23.467092 -11.735405,-0.00198 -1.19e-4,-23.467091 -11.731686,0.0021 z m 0,0"
       transform="matrix(0.998906,-0.0467692,0.0467692,0.998906,131.88791,217.62746)"
       id="path3961"
       inkscape:connector-curvature="0" />
    <path
       style="fill:none;stroke:#c70000;stroke-width:1;stroke-linecap:butt;stroke-linejoin:miter;stroke-miterlimit:10;stroke-opacity:1"
       d="m -17.599027,17.598693 35.198594,0.0017 0.0017,-35.198595 -11.735405,-0.002 1.15e-4,23.467091 -11.731503,-0.0018 -2.98e-4,-23.463189 -11.735405,-0.002 z m 0,0"
       transform="matrix(0.0467694,0.998906,-0.998906,0.0467694,170.85566,23.592626)"
       id="path3963"
       inkscape:connector-curvature="0" />
    <path
       style="fill:none;stroke:#c70000;stroke-width:1;stroke-linecap:butt;stroke-linejoin:miter;stroke-miterlimit:10;stroke-opacity:1"
       d="m -17.601162,17.59945 35.202496,0.0019 -0.002,-35.202679 -11.731686,0.0021 1.17e-4,23.467091 -11.735406,-0.00198 -1.16e-4,-23.467091 -11.731686,0.0021 z m 0,0"
       transform="matrix(-0.998906,0.0467693,-0.0467693,-0.998906,173.10059,71.540104)"
       id="path3965"
       inkscape:connector-curvature="0" />
    <path
       style="fill:none;stroke:#c70000;stroke-width:1;stroke-linecap:butt;stroke-linejoin:miter;stroke-miterlimit:10;stroke-opacity:1"
       d="m -17.598037,17.599266 35.198594,0.0017 -0.002,-35.20268 -11.731686,0.0021 1.19e-4,23.467091 -11.735406,-0.00198 0.00378,-23.466909 -11.735588,0.0019 z m 0,0"
       transform="matrix(0.998906,-0.0467692,0.0467692,0.998906,175.34552,119.48757)"
       id="path3967"
       inkscape:connector-curvature="0" />
    <path
       style="fill:none;stroke:#c70000;stroke-width:1;stroke-linecap:butt;stroke-linejoin:miter;stroke-miterlimit:10;stroke-opacity:1"
       d="m -17.598838,17.601816 35.198777,-0.0022 0.0017,-35.198595 -11.735405,-0.002 1.14e-4,23.467092 -11.731686,0.0021 -1.14e-4,-23.467091 -11.735405,-0.002 z m 0,0"
       transform="matrix(-0.0467694,-0.998906,0.998906,-0.0467694,177.59045,167.43505)"
       id="path3969"
       inkscape:connector-curvature="0" />
    <path
       style="fill:none;stroke:#c70000;stroke-width:1;stroke-linecap:butt;stroke-linejoin:miter;stroke-miterlimit:10;stroke-opacity:1"
       d="m -17.599599,17.598767 35.198595,0.0017 0.0017,-35.198594 -11.735405,-0.002 1.18e-4,23.467091 -11.731503,-0.0018 -1.19e-4,-23.467091 -11.735588,0.0019 z m 0,0"
       transform="matrix(0.998906,-0.0467692,0.0467692,0.998906,179.83538,215.38253)"
       id="path3971"
       inkscape:connector-curvature="0" />
    <path
       style="fill:none;stroke:#c70000;stroke-width:1;stroke-linecap:butt;stroke-linejoin:miter;stroke-miterlimit:10;stroke-opacity:1"
       d="m -17.601698,17.59842 35.202497,0.0019 -0.0022,-35.198777 -11.731503,-0.0018 1.16e-4,23.467091 -11.735405,-0.00198 -2.99e-4,-23.463189 -11.731503,-0.0018 z m 0,0"
       transform="matrix(-0.998906,0.0467693,-0.0467693,-0.998906,218.80313,21.347695)"
       id="path3973"
       inkscape:connector-curvature="0" />
    <path
       style="fill:none;stroke:#c70000;stroke-width:1;stroke-linecap:butt;stroke-linejoin:miter;stroke-miterlimit:10;stroke-opacity:1"
       d="m -17.601969,17.60109 35.202679,-0.002 -0.0022,-35.198778 -11.731503,-0.0018 1.14e-4,23.467091 -11.735588,0.00192 -1.14e-4,-23.467091 -11.731504,-0.0018 z m 0,0"
       transform="matrix(-0.0467694,-0.998906,0.998906,-0.0467694,221.04806,69.295173)"
       id="path3975"
       inkscape:connector-curvature="0" />
    <path
       style="fill:none;stroke:#c70000;stroke-width:1;stroke-linecap:butt;stroke-linejoin:miter;stroke-miterlimit:10;stroke-opacity:1"
       d="m -17.600136,17.598907 35.198595,0.0017 0.0019,-35.202496 -11.735588,0.0019 1.17e-4,23.467092 -11.731504,-0.0018 -1.16e-4,-23.467091 -11.731686,0.0021 z m 0,0"
       transform="matrix(-0.998906,0.0467693,-0.0467693,-0.998906,223.29299,117.24264)"
       id="path3977"
       inkscape:connector-curvature="0" />
    <path
       style="fill:none;stroke:#c70000;stroke-width:1;stroke-linecap:butt;stroke-linejoin:miter;stroke-miterlimit:10;stroke-opacity:1"
       d="m -17.601478,17.599529 35.202496,0.0019 -0.002,-35.202679 -11.731686,0.0021 1.14e-4,23.467092 -11.735405,-0.00199 -1.14e-4,-23.467092 -11.731687,0.0021 z m 0,0"
       transform="matrix(-0.0467694,-0.998906,0.998906,-0.0467694,225.53793,165.19012)"
       id="path3979"
       inkscape:connector-curvature="0" />
    <path
       style="fill:none;stroke:#c70000;stroke-width:1;stroke-linecap:butt;stroke-linejoin:miter;stroke-miterlimit:10;stroke-opacity:1"
       d="m -17.601091,17.600019 35.202496,0.0019 -0.002,-35.20268 -11.731686,0.0021 1.15e-4,23.467092 -11.735405,-0.00199 -1.15e-4,-23.467091 -11.731686,0.0021 z m 0,0"
       transform="matrix(0.0467694,0.998906,-0.998906,0.0467694,227.78286,213.13759)"
       id="path3981"
       inkscape:connector-curvature="0" />
    <path
       style="fill:none;stroke:#c70000;stroke-width:1;stroke-linecap:butt;stroke-linejoin:miter;stroke-miterlimit:10;stroke-opacity:1"
       d="m -17.600868,17.601131 35.202679,-0.002 -0.0022,-35.198777 -11.731503,-0.0018 1.18e-4,23.467092 -11.735588,0.00192 -1.18e-4,-23.467091 -11.731504,-0.0018 z m 0,0"
       transform="matrix(0.998906,-0.0467692,0.0467692,0.998906,266.7506,19.102763)"
       id="path3983"
       inkscape:connector-curvature="0" />
    <path
       style="fill:none;stroke:#c70000;stroke-width:1;stroke-linecap:butt;stroke-linejoin:miter;stroke-miterlimit:10;stroke-opacity:1"
       d="m -17.599607,17.599022 35.198595,0.0017 0.0019,-35.202497 -11.735588,0.0019 1.18e-4,23.467091 -11.731503,-0.0018 -1.19e-4,-23.467092 -11.735588,0.0019 z m 0,0"
       transform="matrix(0.998906,-0.0467692,0.0467692,0.998906,268.99554,67.050241)"
       id="path3985"
       inkscape:connector-curvature="0" />
    <path
       style="fill:none;stroke:#c70000;stroke-width:1;stroke-linecap:butt;stroke-linejoin:miter;stroke-miterlimit:10;stroke-opacity:1"
       d="m -17.601855,17.600563 35.20268,-0.002 -0.0022,-35.198777 -11.731686,0.0021 2.97e-4,23.463189 -11.735588,0.00192 -1.15e-4,-23.467091 -11.731503,-0.0018 z m 0,0"
       transform="matrix(0.0467694,0.998906,-0.998906,0.0467694,271.24047,114.99771)"
       id="path3987"
       inkscape:connector-curvature="0" />
    <path
       style="fill:none;stroke:#c70000;stroke-width:1;stroke-linecap:butt;stroke-linejoin:miter;stroke-miterlimit:10;stroke-opacity:1"
       d="m -17.601168,17.598532 35.202496,0.0019 -0.0022,-35.198778 -11.731504,-0.0018 1.19e-4,23.467091 -11.735406,-0.00198 -3.01e-4,-23.463189 -11.731503,-0.0018 z m 0,0"
       transform="matrix(0.998906,-0.0467692,0.0467692,0.998906,273.4854,162.94519)"
       id="path3989"
       inkscape:connector-curvature="0" />
    <path
       style="fill:none;stroke:#c70000;stroke-width:1;stroke-linecap:butt;stroke-linejoin:miter;stroke-miterlimit:10;stroke-opacity:1"
       d="m -17.598112,17.598685 35.198595,0.0017 -0.0022,-35.198777 -11.731504,-0.0018 1.15e-4,23.467092 -11.735405,-0.00199 0.0036,-23.463007 -11.735405,-0.002 z m 0,0"
       transform="matrix(-0.0467694,-0.998906,0.998906,-0.0467694,275.73033,210.89266)"
       id="path3991"
       inkscape:connector-curvature="0" />
    <path
       style="fill:none;stroke:#c70000;stroke-width:1;stroke-linecap:butt;stroke-linejoin:miter;stroke-miterlimit:10;stroke-opacity:1"
       d="m -17.601737,17.59952 35.202496,0.0019 -0.002,-35.202679 -11.731686,0.0021 1.14e-4,23.467092 -11.735405,-0.00199 -1.14e-4,-23.467091 -11.731686,0.0021 z m 0,0"
       transform="matrix(-0.0467694,-0.998906,0.998906,-0.0467694,314.69808,16.857831)"
       id="path3993"
       inkscape:connector-curvature="0" />
    <path
       style="fill:none;stroke:#c70000;stroke-width:1;stroke-linecap:butt;stroke-linejoin:miter;stroke-miterlimit:10;stroke-opacity:1"
       d="m -17.601895,17.601663 35.20268,-0.002 -0.0022,-35.198778 -11.731503,-0.0018 1.18e-4,23.467091 -11.735588,0.00192 -1.18e-4,-23.467091 -11.731504,-0.0018 z m 0,0"
       transform="matrix(0.998906,-0.0467692,0.0467692,0.998906,316.94301,64.805309)"
       id="path3995"
       inkscape:connector-curvature="0" />
    <path
       style="fill:none;stroke:#c70000;stroke-width:1;stroke-linecap:butt;stroke-linejoin:miter;stroke-miterlimit:10;stroke-opacity:1"
       d="m -17.599828,17.601247 35.198777,-0.0022 0.0017,-35.198595 -11.735405,-0.002 1.16e-4,23.467091 -11.731686,0.0021 -1.16e-4,-23.467092 -11.735405,-0.002 z m 0,0"
       transform="matrix(-0.998906,0.0467693,-0.0467693,-0.998906,319.18794,112.75278)"
       id="path3997"
       inkscape:connector-curvature="0" />
    <path
       style="fill:none;stroke:#c70000;stroke-width:1;stroke-linecap:butt;stroke-linejoin:miter;stroke-miterlimit:10;stroke-opacity:1"
       d="m -17.600907,17.599458 35.202497,0.0019 -0.002,-35.202679 -11.731686,0.0021 1.16e-4,23.467092 -11.735406,-0.00199 -1.16e-4,-23.467091 -11.731686,0.0021 z m 0,0"
       transform="matrix(-0.998906,0.0467693,-0.0467693,-0.998906,321.43287,160.70026)"
       id="path3999"
       inkscape:connector-curvature="0" />
    <path
       style="fill:none;stroke:#c70000;stroke-width:1;stroke-linecap:butt;stroke-linejoin:miter;stroke-miterlimit:10;stroke-opacity:1"
       d="m -17.59953,17.60051 35.198778,-0.0022 0.0017,-35.198595 -11.735588,0.0019 2.98e-4,23.46319 -11.731686,0.0021 -1.15e-4,-23.467092 -11.735588,0.0019 z m 0,0"
       transform="matrix(0.0467694,0.998906,-0.998906,0.0467694,323.67781,208.64773)"
       id="path4001"
       inkscape:connector-curvature="0" />
    <path
       style="fill:none;stroke:#c70000;stroke-width:1;stroke-linecap:butt;stroke-linejoin:miter;stroke-miterlimit:10;stroke-opacity:1"
       d="m -17.599102,17.59812 35.198595,0.0017 0.0017,-35.198594 -11.735405,-0.002 1.16e-4,23.467091 -11.731686,0.0021 -1.16e-4,-23.467091 -11.735406,-0.002 z m 0,0"
       transform="matrix(-0.998906,0.0467693,-0.0467693,-0.998906,362.64555,14.612899)"
       id="path4003"
       inkscape:connector-curvature="0" />
    <path
       style="fill:none;stroke:#c70000;stroke-width:1;stroke-linecap:butt;stroke-linejoin:miter;stroke-miterlimit:10;stroke-opacity:1"
       d="m -17.600364,17.600229 35.198778,-0.0022 0.0017,-35.198594 -11.731686,0.0021 1.16e-4,23.467091 -11.735405,-0.00198 -1.16e-4,-23.467091 -11.731686,0.0021 z m 0,0"
       transform="matrix(-0.998906,0.0467693,-0.0467693,-0.998906,364.89048,62.560377)"
       id="path4005"
       inkscape:connector-curvature="0" />
    <path
       style="fill:none;stroke:#c70000;stroke-width:1;stroke-linecap:butt;stroke-linejoin:miter;stroke-miterlimit:10;stroke-opacity:1"
       d="m -17.601442,17.598424 35.202496,0.0019 -0.0022,-35.198777 -11.731503,-0.0018 1.16e-4,23.467092 -11.735405,-0.00198 -2.99e-4,-23.46319 -11.731503,-0.0018 z m 0,0"
       transform="matrix(-0.998906,0.0467693,-0.0467693,-0.998906,367.13542,110.50784)"
       id="path4007"
       inkscape:connector-curvature="0" />
    <path
       style="fill:none;stroke:#c70000;stroke-width:1;stroke-linecap:butt;stroke-linejoin:miter;stroke-miterlimit:10;stroke-opacity:1"
       d="m -17.601961,17.600835 35.202679,-0.002 -0.0022,-35.198777 -11.731503,-0.0018 1.14e-4,23.467091 -11.735588,0.00192 -1.14e-4,-23.467091 -11.731503,-0.0018 z m 0,0"
       transform="matrix(-0.0467694,-0.998906,0.998906,-0.0467694,369.38035,158.45532)"
       id="path4009"
       inkscape:connector-curvature="0" />
    <path
       style="fill:none;stroke:#c70000;stroke-width:1;stroke-linecap:butt;stroke-linejoin:miter;stroke-miterlimit:10;stroke-opacity:1"
       d="m -17.599673,17.598194 35.198594,0.0017 0.0017,-35.198594 -11.735405,-0.002 1.14e-4,23.467091 -11.731686,0.0021 -1.14e-4,-23.467092 -11.735405,-0.002 z m 0,0"
       transform="matrix(-0.0467694,-0.998906,0.998906,-0.0467694,371.62528,206.4028)"
       id="path4011"
       inkscape:connector-curvature="0" />
    <path
       style="fill:none;stroke:#c70000;stroke-width:1;stroke-linecap:butt;stroke-linejoin:miter;stroke-miterlimit:10;stroke-opacity:1"
       d="m -17.599397,17.599212 35.198595,0.0017 0.0019,-35.202496 -11.735588,0.0019 1.15e-4,23.467091 -11.731503,-0.0018 -1.15e-4,-23.467091 -11.735588,0.0019 z m 0,0"
       transform="matrix(-0.0467694,-0.998906,0.998906,-0.0467694,410.59303,12.367967)"
       id="path4013"
       inkscape:connector-curvature="0" />
    <path
       style="fill:none;stroke:#c70000;stroke-width:1;stroke-linecap:butt;stroke-linejoin:miter;stroke-miterlimit:10;stroke-opacity:1"
       d="m -17.599275,17.600518 35.198778,-0.0022 0.0017,-35.198595 -11.735588,0.0019 2.98e-4,23.46319 -11.731686,0.0021 -1.15e-4,-23.467092 -11.735588,0.0019 z m 0,0"
       transform="matrix(0.0467694,0.998906,-0.998906,0.0467694,412.83796,60.315445)"
       id="path4015"
       inkscape:connector-curvature="0" />
    <path
       style="fill:none;stroke:#c70000;stroke-width:1;stroke-linecap:butt;stroke-linejoin:miter;stroke-miterlimit:10;stroke-opacity:1"
       d="m -17.601124,17.601127 35.20268,-0.002 -0.0022,-35.198778 -11.731503,-0.0018 1.18e-4,23.467091 -11.735588,0.00192 -1.18e-4,-23.467091 -11.731504,-0.0018 z m 0,0"
       transform="matrix(0.998906,-0.0467692,0.0467692,0.998906,415.08289,108.26291)"
       id="path4017"
       inkscape:connector-curvature="0" />
    <path
       style="fill:none;stroke:#c70000;stroke-width:1;stroke-linecap:butt;stroke-linejoin:miter;stroke-miterlimit:10;stroke-opacity:1"
       d="m -17.600599,17.601799 35.198777,-0.0022 0.0017,-35.198595 -11.731504,-0.0018 1.16e-4,23.467091 -11.735588,0.00192 -1.16e-4,-23.467092 -11.731503,-0.0018 z m 0,0"
       transform="matrix(-0.998906,0.0467693,-0.0467693,-0.998906,417.32782,156.21039)"
       id="path4019"
       inkscape:connector-curvature="0" />
    <path
       style="fill:none;stroke:#c70000;stroke-width:1;stroke-linecap:butt;stroke-linejoin:miter;stroke-miterlimit:10;stroke-opacity:1"
       d="m -17.60187,17.600818 35.202679,-0.002 -0.0022,-35.198777 -11.731504,-0.0018 1.16e-4,23.467091 -11.735588,0.00192 -1.16e-4,-23.467092 -11.731503,-0.0018 z m 0,0"
       transform="matrix(0.0467694,0.998906,-0.998906,0.0467694,419.57275,204.15787)"
       id="path4021"
       inkscape:connector-curvature="0" />
    <path
       style="fill:none;stroke:#c70000;stroke-width:1;stroke-linecap:butt;stroke-linejoin:miter;stroke-miterlimit:10;stroke-opacity:1"
       d="m -17.598245,17.599983 35.198595,0.0017 -0.002,-35.202679 -11.731686,0.0021 1.16e-4,23.467091 -11.731504,-0.0018 -1.15e-4,-23.467091 -11.735588,0.0019 z m 0,0"
       transform="matrix(0.0467694,0.998906,-0.998906,0.0467694,458.5405,10.123035)"
       id="path4023"
       inkscape:connector-curvature="0" />
    <path
       style="fill:none;stroke:#c70000;stroke-width:1;stroke-linecap:butt;stroke-linejoin:miter;stroke-miterlimit:10;stroke-opacity:1"
       d="m -17.600354,17.598721 35.198595,0.0017 0.0017,-35.198595 -11.731503,-0.0018 1.15e-4,23.467091 -11.735406,-0.00198 -2.97e-4,-23.46319 -11.731504,-0.0018 z m 0,0"
       transform="matrix(0.0467694,0.998906,-0.998906,0.0467694,460.78543,58.070513)"
       id="path4025"
       inkscape:connector-curvature="0" />
    <path
       style="fill:none;stroke:#c70000;stroke-width:1;stroke-linecap:butt;stroke-linejoin:miter;stroke-miterlimit:10;stroke-opacity:1"
       d="m -17.599327,17.600048 35.198595,0.0017 0.0019,-35.202496 -11.735588,0.0019 1.18e-4,23.467092 -11.731503,-0.0018 -1.18e-4,-23.467091 -11.735588,0.0019 z m 0,0"
       transform="matrix(0.998906,-0.0467692,0.0467692,0.998906,463.03037,106.01798)"
       id="path4027"
       inkscape:connector-curvature="0" />
    <path
       style="fill:none;stroke:#c70000;stroke-width:1;stroke-linecap:butt;stroke-linejoin:miter;stroke-miterlimit:10;stroke-opacity:1"
       d="m -17.598311,17.599158 35.198594,0.0017 -0.002,-35.202679 -11.731686,0.0021 1.16e-4,23.467091 -11.731503,-0.0018 -1.16e-4,-23.467091 -11.735588,0.0019 z m 0,0"
       transform="matrix(-0.998906,0.0467693,-0.0467693,-0.998906,465.2753,153.96546)"
       id="path4029"
       inkscape:connector-curvature="0" />
    <path
       style="fill:none;stroke:#c70000;stroke-width:1;stroke-linecap:butt;stroke-linejoin:miter;stroke-miterlimit:10;stroke-opacity:1"
       d="m -17.601417,17.601606 35.202679,-0.002 -0.0022,-35.198777 -11.731504,-0.0018 1.15e-4,23.467091 -11.735588,0.00192 -1.15e-4,-23.467092 -11.731503,-0.0018 z m 0,0"
       transform="matrix(-0.0467694,-0.998906,0.998906,-0.0467694,467.52023,201.91293)"
       id="path4031"
       inkscape:connector-curvature="0" />
    <path
       style="fill:none;stroke:#c70000;stroke-width:1;stroke-linecap:butt;stroke-linejoin:miter;stroke-miterlimit:10;stroke-opacity:1"
       d="m -17.59839,17.59941 35.199281,8.08e-4 8.08e-4,-35.199282 -11.735735,9.55e-4 0.00214,23.463662 -11.735736,9.55e-4 0.00188,-23.467451 -11.735736,9.55e-4 z m 0,0"
       transform="matrix(0.999554,-0.0298753,0.0298753,0.999554,26.267872,279.72644)"
       id="path4033"
       inkscape:connector-curvature="0" />
    <path
       style="fill:none;stroke:#c70000;stroke-width:1;stroke-linecap:butt;stroke-linejoin:miter;stroke-miterlimit:10;stroke-opacity:1"
       d="m -17.601337,17.601083 35.203185,9.22e-4 -0.003,-35.203303 -11.731832,0.0011 -0.00188,23.46745 -11.731831,0.00107 0.00188,-23.46745 -11.735735,9.56e-4 z m 0,0"
       transform="matrix(-0.999554,0.0298752,-0.0298752,-0.999554,27.701886,327.70501)"
       id="path4035"
       inkscape:connector-curvature="0" />
    <path
       style="fill:none;stroke:#c70000;stroke-width:1;stroke-linecap:butt;stroke-linejoin:miter;stroke-miterlimit:10;stroke-opacity:1"
       d="m -17.599227,17.599265 35.199281,8.08e-4 8.08e-4,-35.199281 -11.735736,9.54e-4 0.00214,23.463663 -11.735735,9.54e-4 0.00188,-23.46745 -11.731831,0.0011 z m 0,0"
       transform="matrix(0.999554,-0.0298753,0.0298753,0.999554,29.135901,375.68359)"
       id="path4037"
       inkscape:connector-curvature="0" />
    <path
       style="fill:none;stroke:#c70000;stroke-width:1;stroke-linecap:butt;stroke-linejoin:miter;stroke-miterlimit:10;stroke-opacity:1"
       d="m -17.6005,17.601226 35.199398,-0.0031 8.05e-4,-35.199281 -11.731831,0.0011 -0.00188,23.46745 -11.731832,0.00107 -0.00203,-23.467567 -11.731831,0.0011 z m 0,0"
       transform="matrix(-0.999554,0.0298752,-0.0298752,-0.999554,30.569915,423.66216)"
       id="path4039"
       inkscape:connector-curvature="0" />
    <path
       style="fill:none;stroke:#c70000;stroke-width:1;stroke-linecap:butt;stroke-linejoin:miter;stroke-miterlimit:10;stroke-opacity:1"
       d="m -17.600023,17.599345 35.199281,8.05e-4 8.05e-4,-35.199282 -11.731831,0.0011 -0.00176,23.463546 -11.731831,0.00107 -0.00203,-23.467567 -11.731831,0.0011 z m 0,0"
       transform="matrix(-0.999554,0.0298752,-0.0298752,-0.999554,32.003929,471.64073)"
       id="path4041"
       inkscape:connector-curvature="0" />
    <path
       style="fill:none;stroke:#c70000;stroke-width:1;stroke-linecap:butt;stroke-linejoin:miter;stroke-miterlimit:10;stroke-opacity:1"
       d="m -17.60041,17.59977 35.199281,8.08e-4 8.08e-4,-35.199281 -11.731714,-0.0028 -0.00188,23.46745 -11.731831,0.00107 -0.00203,-23.467566 -11.731831,0.0011 z m 0,0"
       transform="matrix(0.999554,-0.0298753,0.0298753,0.999554,74.246443,278.29242)"
       id="path4043"
       inkscape:connector-curvature="0" />
    <path
       style="fill:none;stroke:#c70000;stroke-width:1;stroke-linecap:butt;stroke-linejoin:miter;stroke-miterlimit:10;stroke-opacity:1"
       d="m -17.59856,17.598511 35.199281,8.08e-4 8.08e-4,-35.199281 -11.735736,9.54e-4 0.00203,23.467567 -11.735619,-0.00295 0.00188,-23.46745 -11.735736,9.54e-4 z m 0,0"
       transform="matrix(-0.0298753,-0.999554,0.999554,-0.0298753,75.680457,326.27099)"
       id="path4045"
       inkscape:connector-curvature="0" />
    <path
       style="fill:none;stroke:#c70000;stroke-width:1;stroke-linecap:butt;stroke-linejoin:miter;stroke-miterlimit:10;stroke-opacity:1"
       d="m -17.599655,17.60044 35.199281,8.06e-4 8.07e-4,-35.199281 -11.735619,-0.003 0.00203,23.467567 -11.731831,0.00107 -0.00203,-23.467567 -11.731832,0.0011 z m 0,0"
       transform="matrix(0.0298753,0.999554,-0.999554,0.0298753,77.114472,374.24957)"
       id="path4047"
       inkscape:connector-curvature="0" />
    <path
       style="fill:none;stroke:#c70000;stroke-width:1;stroke-linecap:butt;stroke-linejoin:miter;stroke-miterlimit:10;stroke-opacity:1"
       d="m -17.601671,17.6008 35.203186,9.23e-4 -0.003,-35.203302 -11.731831,0.0011 -0.00188,23.467451 -11.731831,0.00107 0.00188,-23.46745 -11.735736,9.55e-4 z m 0,0"
       transform="matrix(0.0298753,0.999554,-0.999554,0.0298753,78.548486,422.22814)"
       id="path4049"
       inkscape:connector-curvature="0" />
    <path
       style="fill:none;stroke:#c70000;stroke-width:1;stroke-linecap:butt;stroke-linejoin:miter;stroke-miterlimit:10;stroke-opacity:1"
       d="m -17.600415,17.601102 35.199281,8.07e-4 9.25e-4,-35.203185 -11.731831,0.0011 -0.00188,23.46745 -11.731831,0.00107 -0.00203,-23.467567 -11.731831,0.0011 z m 0,0"
       transform="matrix(-0.0298753,-0.999554,0.999554,-0.0298753,79.9825,470.20672)"
       id="path4051"
       inkscape:connector-curvature="0" />
    <path
       style="fill:none;stroke:#c70000;stroke-width:1;stroke-linecap:butt;stroke-linejoin:miter;stroke-miterlimit:10;stroke-opacity:1"
       d="m -17.59915,17.601626 35.199398,-0.0031 8.06e-4,-35.199281 -11.735735,9.55e-4 0.00203,23.467567 -11.735619,-0.00295 0.00176,-23.463546 -11.731714,-0.0028 z m 0,0"
       transform="matrix(0.0298753,0.999554,-0.999554,0.0298753,122.22502,276.85841)"
       id="path4053"
       inkscape:connector-curvature="0" />
    <path
       style="fill:none;stroke:#c70000;stroke-width:1;stroke-linecap:butt;stroke-linejoin:miter;stroke-miterlimit:10;stroke-opacity:1"
       d="m -17.601052,17.598082 35.199282,8.07e-4 8.06e-4,-35.199282 -11.731831,0.0011 -0.00188,23.46745 -11.731714,-0.00283 -0.00214,-23.463662 -11.731714,-0.0028 z m 0,0"
       transform="matrix(0.0298753,0.999554,-0.999554,0.0298753,123.65903,324.83698)"
       id="path4055"
       inkscape:connector-curvature="0" />
    <path
       style="fill:none;stroke:#c70000;stroke-width:1;stroke-linecap:butt;stroke-linejoin:miter;stroke-miterlimit:10;stroke-opacity:1"
       d="m -17.600722,17.598372 35.199282,8.06e-4 8.05e-4,-35.199282 -11.731831,0.0011 -0.00188,23.46745 -11.731714,-0.00283 -0.00203,-23.467567 -11.731832,0.0011 z m 0,0"
       transform="matrix(-0.999554,0.0298752,-0.0298752,-0.999554,125.09305,372.81556)"
       id="path4057"
       inkscape:connector-curvature="0" />
    <path
       style="fill:none;stroke:#c70000;stroke-width:1;stroke-linecap:butt;stroke-linejoin:miter;stroke-miterlimit:10;stroke-opacity:1"
       d="m -17.601194,17.598919 35.199281,8.07e-4 8.07e-4,-35.199282 -11.731831,0.0011 -0.00176,23.463546 -11.731831,0.00107 -0.00203,-23.467567 -11.731832,0.0011 z m 0,0"
       transform="matrix(0.0298753,0.999554,-0.999554,0.0298753,126.52706,420.79413)"
       id="path4059"
       inkscape:connector-curvature="0" />
    <path
       style="fill:none;stroke:#c70000;stroke-width:1;stroke-linecap:butt;stroke-linejoin:miter;stroke-miterlimit:10;stroke-opacity:1"
       d="m -17.600203,17.599967 35.199281,8.08e-4 8.08e-4,-35.199281 -11.731714,-0.0028 -0.00188,23.46745 -11.731831,0.00107 -0.00202,-23.467567 -11.731831,0.0011 z m 0,0"
       transform="matrix(0.999554,-0.0298753,0.0298753,0.999554,127.96107,468.7727)"
       id="path4061"
       inkscape:connector-curvature="0" />
    <path
       style="fill:none;stroke:#c70000;stroke-width:1;stroke-linecap:butt;stroke-linejoin:miter;stroke-miterlimit:10;stroke-opacity:1"
       d="m -17.598673,17.599745 35.199281,8.07e-4 8.06e-4,-35.199281 -11.735619,-0.003 0.00203,23.467567 -11.735736,9.55e-4 0.00188,-23.467451 -11.735735,9.55e-4 z m 0,0"
       transform="matrix(0.0298753,0.999554,-0.999554,0.0298753,170.20359,275.4244)"
       id="path4063"
       inkscape:connector-curvature="0" />
    <path
       style="fill:none;stroke:#c70000;stroke-width:1;stroke-linecap:butt;stroke-linejoin:miter;stroke-miterlimit:10;stroke-opacity:1"
       d="m -17.599397,17.598369 35.199281,8.07e-4 8.08e-4,-35.199281 -11.735736,9.54e-4 0.00203,23.467567 -11.731715,-0.00283 -0.00214,-23.463662 -11.731714,-0.0028 z m 0,0"
       transform="matrix(-0.0298753,-0.999554,0.999554,-0.0298753,171.63761,323.40296)"
       id="path4065"
       inkscape:connector-curvature="0" />
    <path
       style="fill:none;stroke:#c70000;stroke-width:1;stroke-linecap:butt;stroke-linejoin:miter;stroke-miterlimit:10;stroke-opacity:1"
       d="m -17.60139,17.600463 35.203186,9.24e-4 -0.003,-35.203302 -11.731831,0.0011 -0.00188,23.46745 -11.731831,0.00107 0.00188,-23.46745 -11.735736,9.54e-4 z m 0,0"
       transform="matrix(0.999554,-0.0298753,0.0298753,0.999554,173.07162,371.38155)"
       id="path4067"
       inkscape:connector-curvature="0" />
    <path
       style="fill:none;stroke:#c70000;stroke-width:1;stroke-linecap:butt;stroke-linejoin:miter;stroke-miterlimit:10;stroke-opacity:1"
       d="m -17.600834,17.600943 35.199281,8.06e-4 9.24e-4,-35.203186 -11.731832,0.0011 -0.00188,23.46745 -11.731831,0.00107 -0.00203,-23.467567 -11.731831,0.0011 z m 0,0"
       transform="matrix(0.0298753,0.999554,-0.999554,0.0298753,174.50563,419.36011)"
       id="path4069"
       inkscape:connector-curvature="0" />
    <path
       style="fill:none;stroke:#c70000;stroke-width:1;stroke-linecap:butt;stroke-linejoin:miter;stroke-miterlimit:10;stroke-opacity:1"
       d="m -17.598953,17.60142 35.199398,-0.0031 8.07e-4,-35.199282 -11.735736,9.55e-4 0.00203,23.467567 -11.735735,9.55e-4 0.00188,-23.46745 -11.731715,-0.0028 z m 0,0"
       transform="matrix(0.0298753,0.999554,-0.999554,0.0298753,175.93965,467.33869)"
       id="path4071"
       inkscape:connector-curvature="0" />
    <path
       style="fill:none;stroke:#c70000;stroke-width:1;stroke-linecap:butt;stroke-linejoin:miter;stroke-miterlimit:10;stroke-opacity:1"
       d="m -17.601892,17.60061 35.203186,9.24e-4 -0.003,-35.203302 -11.731831,0.0011 0.00203,23.467567 -11.735735,9.54e-4 0.00188,-23.46745 -11.735735,9.54e-4 z m 0,0"
       transform="matrix(-0.0298753,-0.999554,0.999554,-0.0298753,218.18217,273.99038)"
       id="path4073"
       inkscape:connector-curvature="0" />
    <path
       style="fill:none;stroke:#c70000;stroke-width:1;stroke-linecap:butt;stroke-linejoin:miter;stroke-miterlimit:10;stroke-opacity:1"
       d="m -17.599874,17.60025 35.199281,8.07e-4 8.08e-4,-35.199281 -11.731715,-0.0028 -0.00188,23.46745 -11.731832,0.00107 -0.00202,-23.467567 -11.731831,0.0011 z m 0,0"
       transform="matrix(-0.0298753,-0.999554,0.999554,-0.0298753,219.61618,321.96895)"
       id="path4075"
       inkscape:connector-curvature="0" />
    <path
       style="fill:none;stroke:#c70000;stroke-width:1;stroke-linecap:butt;stroke-linejoin:miter;stroke-miterlimit:10;stroke-opacity:1"
       d="m -17.599509,17.600939 35.199281,8.09e-4 9.25e-4,-35.203186 -11.735735,9.54e-4 0.00202,23.467567 -11.731831,0.00107 -0.00203,-23.467567 -11.731831,0.0011 z m 0,0"
       transform="matrix(0.999554,-0.0298753,0.0298753,0.999554,221.05019,369.94753)"
       id="path4077"
       inkscape:connector-curvature="0" />
    <path
       style="fill:none;stroke:#c70000;stroke-width:1;stroke-linecap:butt;stroke-linejoin:miter;stroke-miterlimit:10;stroke-opacity:1"
       d="m -17.599869,17.598924 35.199281,8.08e-4 8.08e-4,-35.199282 -11.731831,0.0011 -0.00176,23.463546 -11.731832,0.00107 -0.00203,-23.467567 -11.731831,0.0011 z m 0,0"
       transform="matrix(0.999554,-0.0298753,0.0298753,0.999554,222.48421,417.9261)"
       id="path4079"
       inkscape:connector-curvature="0" />
    <path
       style="fill:none;stroke:#c70000;stroke-width:1;stroke-linecap:butt;stroke-linejoin:miter;stroke-miterlimit:10;stroke-opacity:1"
       d="m -17.600346,17.600804 35.199281,8.09e-4 9.25e-4,-35.203186 -11.731831,0.0011 -0.00188,23.46745 -11.731831,0.00107 -0.00203,-23.467567 -11.731831,0.0011 z m 0,0"
       transform="matrix(0.999554,-0.0298753,0.0298753,0.999554,223.91822,465.90467)"
       id="path4081"
       inkscape:connector-curvature="0" />
    <path
       style="fill:none;stroke:#c70000;stroke-width:1;stroke-linecap:butt;stroke-linejoin:miter;stroke-miterlimit:10;stroke-opacity:1"
       d="m -17.599525,17.600935 35.199282,8.05e-4 9.22e-4,-35.203186 -11.735736,9.56e-4 0.00203,23.467566 -11.731831,0.00107 -0.00203,-23.467566 -11.731832,0.0011 z m 0,0"
       transform="matrix(-0.999554,0.0298752,-0.0298752,-0.999554,266.16073,272.55637)"
       id="path4083"
       inkscape:connector-curvature="0" />
    <path
       style="fill:none;stroke:#c70000;stroke-width:1;stroke-linecap:butt;stroke-linejoin:miter;stroke-miterlimit:10;stroke-opacity:1"
       d="m -17.599048,17.599048 35.199282,8.05e-4 8.05e-4,-35.199281 -11.735736,9.55e-4 0.00214,23.463663 -11.735735,9.55e-4 0.00188,-23.46745 -11.731832,0.0011 z m 0,0"
       transform="matrix(-0.999554,0.0298752,-0.0298752,-0.999554,267.59474,320.53494)"
       id="path4085"
       inkscape:connector-curvature="0" />
    <path
       style="fill:none;stroke:#c70000;stroke-width:1;stroke-linecap:butt;stroke-linejoin:miter;stroke-miterlimit:10;stroke-opacity:1"
       d="m -17.598687,17.60108 35.199281,8.05e-4 9.22e-4,-35.203186 -11.735736,9.55e-4 0.00203,23.467567 -11.735735,9.55e-4 0.00188,-23.46745 -11.735736,9.56e-4 z m 0,0"
       transform="matrix(-0.999554,0.0298752,-0.0298752,-0.999554,269.02875,368.51352)"
       id="path4087"
       inkscape:connector-curvature="0" />
    <path
       style="fill:none;stroke:#c70000;stroke-width:1;stroke-linecap:butt;stroke-linejoin:miter;stroke-miterlimit:10;stroke-opacity:1"
       d="m -17.599997,17.60107 35.199282,8.07e-4 9.23e-4,-35.203186 -11.731831,0.0011 -0.00188,23.467451 -11.731831,0.00107 -0.00203,-23.467567 -11.731831,0.0011 z m 0,0"
       transform="matrix(0.0298753,0.999554,-0.999554,0.0298753,270.46277,416.49209)"
       id="path4089"
       inkscape:connector-curvature="0" />
    <path
       style="fill:none;stroke:#c70000;stroke-width:1;stroke-linecap:butt;stroke-linejoin:miter;stroke-miterlimit:10;stroke-opacity:1"
       d="m -17.598116,17.601547 35.199398,-0.0031 -0.0031,-35.199398 -11.731831,0.0011 0.00203,23.467567 -11.735619,-0.00295 0.00176,-23.463546 -11.735619,-0.003 z m 0,0"
       transform="matrix(0.0298753,0.999554,-0.999554,0.0298753,271.89678,464.47066)"
       id="path4091"
       inkscape:connector-curvature="0" />
    <path
       style="fill:none;stroke:#c70000;stroke-width:1;stroke-linecap:butt;stroke-linejoin:miter;stroke-miterlimit:10;stroke-opacity:1"
       d="m -17.59883,17.601921 35.199398,-0.0031 8.08e-4,-35.199282 -11.735735,9.55e-4 0.00202,23.467567 -11.735619,-0.00295 0.00176,-23.463545 -11.735619,-0.0029 z m 0,0"
       transform="matrix(0.999554,-0.0298753,0.0298753,0.999554,314.13933,271.12235)"
       id="path4093"
       inkscape:connector-curvature="0" />
    <path
       style="fill:none;stroke:#c70000;stroke-width:1;stroke-linecap:butt;stroke-linejoin:miter;stroke-miterlimit:10;stroke-opacity:1"
       d="m -17.59919,17.599903 35.199281,8.08e-4 8.09e-4,-35.199281 -11.735619,-0.003 0.00202,23.467567 -11.735736,9.54e-4 0.00188,-23.46745 -11.731831,0.0011 z m 0,0"
       transform="matrix(0.999554,-0.0298753,0.0298753,0.999554,315.57334,319.10092)"
       id="path4095"
       inkscape:connector-curvature="0" />
    <path
       style="fill:none;stroke:#c70000;stroke-width:1;stroke-linecap:butt;stroke-linejoin:miter;stroke-miterlimit:10;stroke-opacity:1"
       d="m -17.600538,17.600603 35.199282,8.05e-4 9.21e-4,-35.203186 -11.731831,0.0011 -0.00188,23.46745 -11.731831,0.00107 -0.00203,-23.467567 -11.731831,0.0011 z m 0,0"
       transform="matrix(-0.999554,0.0298752,-0.0298752,-0.999554,317.00736,367.0795)"
       id="path4097"
       inkscape:connector-curvature="0" />
    <path
       style="fill:none;stroke:#c70000;stroke-width:1;stroke-linecap:butt;stroke-linejoin:miter;stroke-miterlimit:10;stroke-opacity:1"
       d="m -17.600061,17.598714 35.199282,8.05e-4 8.05e-4,-35.199281 -11.731832,0.0011 -0.00176,23.463546 -11.731831,0.00107 -0.00203,-23.467567 -11.731831,0.0011 z m 0,0"
       transform="matrix(-0.999554,0.0298752,-0.0298752,-0.999554,318.44137,415.05807)"
       id="path4099"
       inkscape:connector-curvature="0" />
    <path
       style="fill:none;stroke:#c70000;stroke-width:1;stroke-linecap:butt;stroke-linejoin:miter;stroke-miterlimit:10;stroke-opacity:1"
       d="m -17.598545,17.598894 35.199281,8.08e-4 8.08e-4,-35.199281 -11.735736,9.54e-4 0.00214,23.463662 -11.735736,9.55e-4 0.00188,-23.46745 -11.735736,9.54e-4 z m 0,0"
       transform="matrix(-0.0298753,-0.999554,0.999554,-0.0298753,319.87539,463.03665)"
       id="path4101"
       inkscape:connector-curvature="0" />
    <path
       style="fill:none;stroke:#c70000;stroke-width:1;stroke-linecap:butt;stroke-linejoin:miter;stroke-miterlimit:10;stroke-opacity:1"
       d="m -17.600737,17.598377 35.199282,8.08e-4 8.08e-4,-35.199281 -11.731831,0.0011 -0.00188,23.46745 -11.731715,-0.00283 -0.00202,-23.467566 -11.731831,0.0011 z m 0,0"
       transform="matrix(0.999554,-0.0298753,0.0298753,0.999554,362.1179,269.68834)"
       id="path4103"
       inkscape:connector-curvature="0" />
    <path
       style="fill:none;stroke:#c70000;stroke-width:1;stroke-linecap:butt;stroke-linejoin:miter;stroke-miterlimit:10;stroke-opacity:1"
       d="m -17.601214,17.600264 35.199282,8.08e-4 8.08e-4,-35.199282 -11.731715,-0.0028 -0.00188,23.46745 -11.731831,0.00107 -0.00202,-23.467567 -11.731831,0.0011 z m 0,0"
       transform="matrix(0.999554,-0.0298753,0.0298753,0.999554,363.55192,317.66691)"
       id="path4105"
       inkscape:connector-curvature="0" />
    <path
       style="fill:none;stroke:#c70000;stroke-width:1;stroke-linecap:butt;stroke-linejoin:miter;stroke-miterlimit:10;stroke-opacity:1"
       d="m -17.598514,17.600242 35.199281,8.05e-4 8.05e-4,-35.199281 -11.735619,-0.0029 0.00203,23.467567 -11.735736,9.55e-4 0.00188,-23.46745 -11.735736,9.55e-4 z m 0,0"
       transform="matrix(-0.999554,0.0298752,-0.0298752,-0.999554,364.98593,365.64549)"
       id="path4107"
       inkscape:connector-curvature="0" />
    <path
       style="fill:none;stroke:#c70000;stroke-width:1;stroke-linecap:butt;stroke-linejoin:miter;stroke-miterlimit:10;stroke-opacity:1"
       d="m -17.598146,17.600238 35.199281,8.08e-4 -0.0031,-35.199398 -11.731715,-0.0028 0.00203,23.467567 -11.735736,9.54e-4 0.00188,-23.46745 -11.735736,9.55e-4 z m 0,0"
       transform="matrix(0.999554,-0.0298753,0.0298753,0.999554,366.41995,413.62406)"
       id="path4109"
       inkscape:connector-curvature="0" />
    <path
       style="fill:none;stroke:#c70000;stroke-width:1;stroke-linecap:butt;stroke-linejoin:miter;stroke-miterlimit:10;stroke-opacity:1"
       d="m -17.599022,17.600775 35.199281,8.08e-4 9.25e-4,-35.203186 -11.735736,9.54e-4 0.00203,23.467567 -11.735736,9.55e-4 0.00188,-23.46745 -11.731831,0.0011 z m 0,0"
       transform="matrix(-0.0298753,-0.999554,0.999554,-0.0298753,367.85396,461.60263)"
       id="path4111"
       inkscape:connector-curvature="0" />
    <path
       style="fill:none;stroke:#c70000;stroke-width:1;stroke-linecap:butt;stroke-linejoin:miter;stroke-miterlimit:10;stroke-opacity:1"
       d="m -17.599662,17.600426 35.199282,8.08e-4 8.07e-4,-35.199282 -11.735619,-0.003 0.00203,23.467567 -11.731831,0.00107 -0.00203,-23.467567 -11.731831,0.0011 z m 0,0"
       transform="matrix(-0.0298753,-0.999554,0.999554,-0.0298753,410.09648,268.25432)"
       id="path4113"
       inkscape:connector-curvature="0" />
    <path
       style="fill:none;stroke:#c70000;stroke-width:1;stroke-linecap:butt;stroke-linejoin:miter;stroke-miterlimit:10;stroke-opacity:1"
       d="m -17.599333,17.60074 35.199282,8.09e-4 9.25e-4,-35.203186 -11.735736,9.54e-4 0.00202,23.467567 -11.735735,9.54e-4 0.00188,-23.46745 -11.731831,0.0011 z m 0,0"
       transform="matrix(0.999554,-0.0298753,0.0298753,0.999554,411.53049,316.23289)"
       id="path4115"
       inkscape:connector-curvature="0" />
    <path
       style="fill:none;stroke:#c70000;stroke-width:1;stroke-linecap:butt;stroke-linejoin:miter;stroke-miterlimit:10;stroke-opacity:1"
       d="m -17.599693,17.598709 35.199282,8.08e-4 8.08e-4,-35.199281 -11.731832,0.0011 -0.00176,23.463546 -11.731831,0.00107 -0.00203,-23.467567 -11.731831,0.0011 z m 0,0"
       transform="matrix(0.999554,-0.0298753,0.0298753,0.999554,412.96451,364.21147)"
       id="path4117"
       inkscape:connector-curvature="0" />
    <path
       style="fill:none;stroke:#c70000;stroke-width:1;stroke-linecap:butt;stroke-linejoin:miter;stroke-miterlimit:10;stroke-opacity:1"
       d="m -17.601406,17.599112 35.203186,9.24e-4 -0.0031,-35.199398 -11.731831,0.0011 -0.00176,23.463546 -11.731831,0.00107 0.00188,-23.46745 -11.735736,9.54e-4 z m 0,0"
       transform="matrix(-0.0298753,-0.999554,0.999554,-0.0298753,414.39852,412.19004)"
       id="path4119"
       inkscape:connector-curvature="0" />
    <path
       style="fill:none;stroke:#c70000;stroke-width:1;stroke-linecap:butt;stroke-linejoin:miter;stroke-miterlimit:10;stroke-opacity:1"
       d="m -17.60053,17.598574 35.199281,8.08e-4 8.09e-4,-35.199281 -11.731832,0.0011 -0.00176,23.463546 -11.731831,0.00107 -0.00203,-23.467567 -11.731831,0.0011 z m 0,0"
       transform="matrix(0.999554,-0.0298753,0.0298753,0.999554,415.83254,460.16862)"
       id="path4121"
       inkscape:connector-curvature="0" />
    <path
       style="fill:none;stroke:#c70000;stroke-width:1;stroke-linecap:butt;stroke-linejoin:miter;stroke-miterlimit:10;stroke-opacity:1"
       d="m -17.600879,17.599214 35.199281,8.08e-4 8.08e-4,-35.199281 -11.731831,0.0011 -0.00176,23.463546 -11.731832,0.00107 -0.00202,-23.467567 -11.731831,0.0011 z m 0,0"
       transform="matrix(0.999554,-0.0298753,0.0298753,0.999554,458.07505,266.82031)"
       id="path4123"
       inkscape:connector-curvature="0" />
    <path
       style="fill:none;stroke:#c70000;stroke-width:1;stroke-linecap:butt;stroke-linejoin:miter;stroke-miterlimit:10;stroke-opacity:1"
       d="m -17.601356,17.601101 35.203302,-0.003 -0.0031,-35.199398 -11.731831,0.0011 -0.00188,23.46745 -11.731832,0.00107 0.00188,-23.46745 -11.735736,9.54e-4 z m 0,0"
       transform="matrix(0.999554,-0.0298753,0.0298753,0.999554,459.50907,314.79888)"
       id="path4125"
       inkscape:connector-curvature="0" />
    <path
       style="fill:none;stroke:#c70000;stroke-width:1;stroke-linecap:butt;stroke-linejoin:miter;stroke-miterlimit:10;stroke-opacity:1"
       d="m -17.600211,17.600909 35.199281,8.07e-4 9.24e-4,-35.203186 -11.731832,0.0011 -0.00188,23.46745 -11.731831,0.00107 -0.00203,-23.467567 -11.731832,0.0011 z m 0,0"
       transform="matrix(0.0298753,0.999554,-0.999554,0.0298753,460.94308,362.77746)"
       id="path4127"
       inkscape:connector-curvature="0" />
    <path
       style="fill:none;stroke:#c70000;stroke-width:1;stroke-linecap:butt;stroke-linejoin:miter;stroke-miterlimit:10;stroke-opacity:1"
       d="m -17.598289,17.601075 35.199282,8.08e-4 9.24e-4,-35.203186 -11.735735,9.54e-4 0.00202,23.467567 -11.735736,9.55e-4 0.00188,-23.467451 -11.735735,9.55e-4 z m 0,0"
       transform="matrix(0.999554,-0.0298753,0.0298753,0.999554,462.3771,410.75603)"
       id="path4129"
       inkscape:connector-curvature="0" />
    <path
       style="fill:none;stroke:#c70000;stroke-width:1;stroke-linecap:butt;stroke-linejoin:miter;stroke-miterlimit:10;stroke-opacity:1"
       d="m -17.601439,17.599424 35.203186,9.21e-4 -0.0031,-35.199398 -11.731715,-0.0028 -0.00188,23.46745 -11.731831,0.00107 0.00188,-23.46745 -11.735736,9.55e-4 z m 0,0"
       transform="matrix(-0.999554,0.0298752,-0.0298752,-0.999554,463.81111,458.7346)"
       id="path4131"
       inkscape:connector-curvature="0" />
  </g>
</svg>
