<?xml version="1.0" encoding="UTF-8" standalone="no"?>
<svg
   xmlns:dc="http://purl.org/dc/elements/1.1/"
   xmlns:cc="http://creativecommons.org/ns#"
   xmlns:rdf="http://www.w3.org/1999/02/22-rdf-syntax-ns#"
   xmlns:svg="http://www.w3.org/2000/svg"
   xmlns="http://www.w3.org/2000/svg"
   xmlns:sodipodi="http://sodipodi.sourceforge.net/DTD/sodipodi-0.dtd"
   xmlns:inkscape="http://www.inkscape.org/namespaces/inkscape"
   sodipodi:docname="output.svg"
   inkscape:version="0.91 r13725"
   id="svg2"
   version="1.1"
   viewBox="0 0 503.99998 359.99999"
   height="5in"
   width="7in">
  <sodipodi:namedview
     inkscape:current-layer="svg2"
     inkscape:window-maximized="0"
     inkscape:window-y="0"
     inkscape:window-x="0"
     inkscape:cy="332.66744"
     inkscape:cx="428.85059"
     inkscape:zoom="0.53400704"
     units="in"
     showgrid="false"
     id="namedview205"
     inkscape:window-height="480"
     inkscape:window-width="640"
     inkscape:pageshadow="2"
     inkscape:pageopacity="0"
     guidetolerance="10"
     gridtolerance="10"
     objecttolerance="10"
     borderopacity="1"
     bordercolor="#666666"
     pagecolor="#ffffff" />
  <metadata
     id="metadata209">
    <rdf:RDF>
      <cc:Work
         rdf:about="">
        <dc:format>image/svg+xml</dc:format>
        <dc:type
           rdf:resource="http://purl.org/dc/dcmitype/StillImage" />
        <dc:title></dc:title>
      </cc:Work>
    </rdf:RDF>
  </metadata>
  <defs
     id="defs207" />
  <g
     transform="matrix(0.69244362,0,0,0.69244362,78.555613,8.1192509)"
     id="surface50257">
    <path
       inkscape:connector-curvature="0"
       id="path5"
       transform="matrix(-0.999723,0.0235509,-0.0235509,-0.999723,36.472128,35.815074)"
       d="m -17.599612,17.600781 35.201149,8.96e-4 -0.003,-35.201241 -11.733747,0.001 0.0021,23.463589 -11.733747,10e-4 0.0019,-23.467402 -11.733747,10e-4 z m 0,0"
       style="fill:none;stroke:#c70000;stroke-width:1;stroke-linecap:butt;stroke-linejoin:miter;stroke-miterlimit:10;stroke-opacity:1" />
    <path
       inkscape:connector-curvature="0"
       id="path7"
       transform="matrix(0.999723,-0.0235509,0.0235509,0.999723,37.602578,83.801757)"
       d="m -17.600106,17.601127 35.201241,-0.003 -0.0031,-35.197336 -11.729842,0.0011 -0.00181,23.463497 -11.733746,10e-4 0.0019,-23.467402 -11.733747,10e-4 z m 0,0"
       style="fill:none;stroke:#c70000;stroke-width:1;stroke-linecap:butt;stroke-linejoin:miter;stroke-miterlimit:10;stroke-opacity:1" />
    <path
       inkscape:connector-curvature="0"
       id="path9"
       transform="matrix(0.999723,-0.0235509,0.0235509,0.999723,38.733027,131.78844)"
       d="m -17.601595,17.59878 35.201149,8.92e-4 8.93e-4,-35.201148 -11.733747,0.001 -0.0019,23.467402 -11.729842,0.0011 -0.00201,-23.467494 -11.733747,0.001 z m 0,0"
       style="fill:none;stroke:#c70000;stroke-width:1;stroke-linecap:butt;stroke-linejoin:miter;stroke-miterlimit:10;stroke-opacity:1" />
    <path
       inkscape:connector-curvature="0"
       id="path11"
       transform="matrix(0.023551,0.999723,-0.999723,0.023551,39.863477,179.77513)"
       d="m -17.600721,17.598375 35.201149,8.97e-4 8.97e-4,-35.201148 -11.733747,0.001 -0.0019,23.467402 -11.733747,10e-4 0.0019,-23.467402 -11.733747,10e-4 z m 0,0"
       style="fill:none;stroke:#c70000;stroke-width:1;stroke-linecap:butt;stroke-linejoin:miter;stroke-miterlimit:10;stroke-opacity:1" />
    <path
       inkscape:connector-curvature="0"
       id="path13"
       transform="matrix(-0.023551,-0.999723,0.999723,-0.023551,40.993927,227.76182)"
       d="m -17.598978,17.600387 35.197243,8.07e-4 8.99e-4,-35.201149 -11.733747,0.001 0.002,23.467494 -11.733654,-0.0029 -0.002,-23.467494 -11.729842,0.0011 z m 0,0"
       style="fill:none;stroke:#c70000;stroke-width:1;stroke-linecap:butt;stroke-linejoin:miter;stroke-miterlimit:10;stroke-opacity:1" />
    <path
       inkscape:connector-curvature="0"
       id="path15"
       transform="matrix(0.999723,-0.0235509,0.0235509,0.999723,84.458815,34.684625)"
       d="m -17.600873,17.601054 35.201149,8.92e-4 8.92e-4,-35.201148 -11.733747,10e-4 -0.0018,23.463497 -11.733747,0.001 0.0019,-23.467402 -11.733747,10e-4 z m 0,0"
       style="fill:none;stroke:#c70000;stroke-width:1;stroke-linecap:butt;stroke-linejoin:miter;stroke-miterlimit:10;stroke-opacity:1" />
    <path
       inkscape:connector-curvature="0"
       id="path17"
       transform="matrix(0.999723,-0.0235509,0.0235509,0.999723,85.589264,82.671307)"
       d="m -17.598456,17.598803 35.197243,8e-4 8.93e-4,-35.201149 -11.733747,10e-4 0.00201,23.467493 -11.733747,0.001 -0.00201,-23.467494 -11.733747,0.001 z m 0,0"
       style="fill:none;stroke:#c70000;stroke-width:1;stroke-linecap:butt;stroke-linejoin:miter;stroke-miterlimit:10;stroke-opacity:1" />
    <path
       inkscape:connector-curvature="0"
       id="path19"
       transform="matrix(-0.999723,0.0235509,-0.0235509,-0.999723,86.719714,130.65799)"
       d="m -17.598101,17.599986 35.197244,8.04e-4 8.95e-4,-35.201149 -11.733747,0.001 0.00201,23.467494 -11.733655,-0.0029 -0.0021,-23.463589 -11.733654,-0.0029 z m 0,0"
       style="fill:none;stroke:#c70000;stroke-width:1;stroke-linecap:butt;stroke-linejoin:miter;stroke-miterlimit:10;stroke-opacity:1" />
    <path
       inkscape:connector-curvature="0"
       id="path21"
       transform="matrix(0.023551,0.999723,-0.999723,0.023551,87.850164,178.64468)"
       d="m -17.599233,17.600722 35.197244,8.05e-4 8.97e-4,-35.201148 -11.733747,10e-4 0.0021,23.463588 -11.733747,0.001 -0.00201,-23.467494 -11.729841,0.0011 z m 0,0"
       style="fill:none;stroke:#c70000;stroke-width:1;stroke-linecap:butt;stroke-linejoin:miter;stroke-miterlimit:10;stroke-opacity:1" />
    <path
       inkscape:connector-curvature="0"
       id="path23"
       transform="matrix(0.999723,-0.0235509,0.0235509,0.999723,88.980613,226.63137)"
       d="m -17.5992,17.599663 35.197243,8.01e-4 8.92e-4,-35.201149 -11.733746,10e-4 0.00201,23.467494 -11.733655,-0.0029 -0.0021,-23.463589 -11.72975,-0.0028 z m 0,0"
       style="fill:none;stroke:#c70000;stroke-width:1;stroke-linecap:butt;stroke-linejoin:miter;stroke-miterlimit:10;stroke-opacity:1" />
    <path
       inkscape:connector-curvature="0"
       id="path25"
       transform="matrix(-0.023551,-0.999723,0.999723,-0.023551,132.4455,33.554175)"
       d="m -17.599625,17.601923 35.201241,-0.003 -0.0031,-35.197336 -11.733655,-0.0029 0.00201,23.467493 -11.733747,0.001 0.0019,-23.467402 -11.733746,10e-4 z m 0,0"
       style="fill:none;stroke:#c70000;stroke-width:1;stroke-linecap:butt;stroke-linejoin:miter;stroke-miterlimit:10;stroke-opacity:1" />
    <path
       inkscape:connector-curvature="0"
       id="path27"
       transform="matrix(-0.999723,0.0235509,-0.0235509,-0.999723,133.57595,81.540858)"
       d="m -17.601239,17.599964 35.201148,8.95e-4 8.96e-4,-35.201148 -11.733747,0.001 -0.0019,23.467401 -11.733655,-0.0029 0.00181,-23.463496 -11.733655,-0.0029 z m 0,0"
       style="fill:none;stroke:#c70000;stroke-width:1;stroke-linecap:butt;stroke-linejoin:miter;stroke-miterlimit:10;stroke-opacity:1" />
    <path
       inkscape:connector-curvature="0"
       id="path29"
       transform="matrix(-0.999723,0.0235509,-0.0235509,-0.999723,134.7064,129.52754)"
       d="m -17.599659,17.598406 35.201149,8.95e-4 -0.003,-35.20124 -11.729841,0.0011 -0.0019,23.467402 -11.733747,10e-4 0.0019,-23.467402 -11.733747,10e-4 z m 0,0"
       style="fill:none;stroke:#c70000;stroke-width:1;stroke-linecap:butt;stroke-linejoin:miter;stroke-miterlimit:10;stroke-opacity:1" />
    <path
       inkscape:connector-curvature="0"
       id="path31"
       transform="matrix(0.023551,0.999723,-0.999723,0.023551,135.83685,177.51423)"
       d="m -17.601557,17.599072 35.201148,8.98e-4 8.98e-4,-35.201149 -11.733747,10e-4 -0.0019,23.467401 -11.729842,0.00109 -0.002,-23.467494 -11.733747,10e-4 z m 0,0"
       style="fill:none;stroke:#c70000;stroke-width:1;stroke-linecap:butt;stroke-linejoin:miter;stroke-miterlimit:10;stroke-opacity:1" />
    <path
       inkscape:connector-curvature="0"
       id="path33"
       transform="matrix(0.023551,0.999723,-0.999723,0.023551,136.9673,225.50092)"
       d="m -17.599999,17.600653 35.201148,8.97e-4 -0.003,-35.201241 -11.729841,0.0011 -0.00181,23.463497 -11.733747,10e-4 0.0019,-23.467401 -11.733747,0.001 z m 0,0"
       style="fill:none;stroke:#c70000;stroke-width:1;stroke-linecap:butt;stroke-linejoin:miter;stroke-miterlimit:10;stroke-opacity:1" />
    <path
       inkscape:connector-curvature="0"
       id="path35"
       transform="matrix(0.999723,-0.0235509,0.0235509,0.999723,180.43219,32.423725)"
       d="m -17.60157,17.600218 35.201148,8.92e-4 8.93e-4,-35.201148 -11.733747,0.001 -0.0019,23.467402 -11.729749,-0.00281 -0.00201,-23.467494 -11.733747,10e-4 z m 0,0"
       style="fill:none;stroke:#c70000;stroke-width:1;stroke-linecap:butt;stroke-linejoin:miter;stroke-miterlimit:10;stroke-opacity:1" />
    <path
       inkscape:connector-curvature="0"
       id="path37"
       transform="matrix(0.023551,0.999723,-0.999723,0.023551,181.56264,80.410408)"
       d="m -17.599279,17.598351 35.201148,8.97e-4 -0.0031,-35.197336 -11.733655,-0.0029 0.00201,23.467494 -11.733747,10e-4 0.0019,-23.467401 -11.733747,0.001 z m 0,0"
       style="fill:none;stroke:#c70000;stroke-width:1;stroke-linecap:butt;stroke-linejoin:miter;stroke-miterlimit:10;stroke-opacity:1" />
    <path
       inkscape:connector-curvature="0"
       id="path39"
       transform="matrix(0.023551,0.999723,-0.999723,0.023551,182.69309,128.39709)"
       d="m -17.601627,17.599839 35.201149,8.97e-4 8.97e-4,-35.201148 -11.733747,10e-4 -0.0019,23.467402 -11.729749,-0.00281 -0.0021,-23.463589 -11.733655,-0.0029 z m 0,0"
       style="fill:none;stroke:#c70000;stroke-width:1;stroke-linecap:butt;stroke-linejoin:miter;stroke-miterlimit:10;stroke-opacity:1" />
    <path
       inkscape:connector-curvature="0"
       id="path41"
       transform="matrix(0.023551,0.999723,-0.999723,0.023551,183.82354,176.38378)"
       d="m -17.600069,17.60142 35.201241,-0.003 -0.0031,-35.197336 -11.72975,-0.0028 -0.0019,23.467401 -11.733747,0.001 0.0019,-23.467402 -11.733747,0.001 z m 0,0"
       style="fill:none;stroke:#c70000;stroke-width:1;stroke-linecap:butt;stroke-linejoin:miter;stroke-miterlimit:10;stroke-opacity:1" />
    <path
       inkscape:connector-curvature="0"
       id="path43"
       transform="matrix(-0.999723,0.0235509,-0.0235509,-0.999723,184.95399,224.37047)"
       d="m -17.59824,17.60152 35.197336,-0.0031 8.03e-4,-35.197243 -11.733655,-0.0029 0.00201,23.467493 -11.733747,10e-4 -0.00201,-23.467494 -11.733747,0.001 z m 0,0"
       style="fill:none;stroke:#c70000;stroke-width:1;stroke-linecap:butt;stroke-linejoin:miter;stroke-miterlimit:10;stroke-opacity:1" />
    <path
       inkscape:connector-curvature="0"
       id="path45"
       transform="matrix(0.023551,0.999723,-0.999723,0.023551,228.41887,31.293276)"
       d="m -17.599353,17.599117 35.201149,8.98e-4 -0.003,-35.201241 -11.733747,0.001 0.00201,23.467493 -11.733746,0.001 0.0019,-23.467402 -11.733747,0.001 z m 0,0"
       style="fill:none;stroke:#c70000;stroke-width:1;stroke-linecap:butt;stroke-linejoin:miter;stroke-miterlimit:10;stroke-opacity:1" />
    <path
       inkscape:connector-curvature="0"
       id="path47"
       transform="matrix(-0.023551,-0.999723,0.999723,-0.023551,229.54932,79.279959)"
       d="m -17.60035,17.599645 35.201148,8.98e-4 8.99e-4,-35.201148 -11.733747,0.001 -0.0019,23.467402 -11.733655,-0.0029 0.00181,-23.463497 -11.733655,-0.0029 z m 0,0"
       style="fill:none;stroke:#c70000;stroke-width:1;stroke-linecap:butt;stroke-linejoin:miter;stroke-miterlimit:10;stroke-opacity:1" />
    <path
       inkscape:connector-curvature="0"
       id="path49"
       transform="matrix(-0.023551,-0.999723,0.999723,-0.023551,230.67977,127.26664)"
       d="m -17.598003,17.598157 35.197243,8.06e-4 8.07e-4,-35.197244 -11.733655,-0.0029 0.002,23.467493 -11.733746,0.001 -0.002,-23.467494 -11.733747,0.001 z m 0,0"
       style="fill:none;stroke:#c70000;stroke-width:1;stroke-linecap:butt;stroke-linejoin:miter;stroke-miterlimit:10;stroke-opacity:1" />
    <path
       inkscape:connector-curvature="0"
       id="path51"
       transform="matrix(0.999723,-0.0235509,0.0235509,0.999723,231.81022,175.25333)"
       d="m -17.600665,17.598758 35.201149,8.92e-4 8.93e-4,-35.201149 -11.733747,0.001 -0.0019,23.467401 -11.733747,0.001 0.0019,-23.467402 -11.733747,10e-4 z m 0,0"
       style="fill:none;stroke:#c70000;stroke-width:1;stroke-linecap:butt;stroke-linejoin:miter;stroke-miterlimit:10;stroke-opacity:1" />
    <path
       inkscape:connector-curvature="0"
       id="path53"
       transform="matrix(-0.023551,-0.999723,0.999723,-0.023551,232.94067,223.24002)"
       d="m -17.601211,17.598901 35.201149,8.98e-4 8.98e-4,-35.201149 -11.733747,0.001 -0.0019,23.467401 -11.733747,0.001 0.0019,-23.467402 -11.733747,10e-4 z m 0,0"
       style="fill:none;stroke:#c70000;stroke-width:1;stroke-linecap:butt;stroke-linejoin:miter;stroke-miterlimit:10;stroke-opacity:1" />
    <path
       inkscape:connector-curvature="0"
       id="path55"
       transform="matrix(0.999723,-0.0235509,0.0235509,0.999723,276.40556,30.162826)"
       d="m -17.598362,17.599474 35.197243,8e-4 8.93e-4,-35.201149 -11.733747,10e-4 0.00201,23.467493 -11.733747,0.00101 -0.00201,-23.467494 -11.733655,-0.0029 z m 0,0"
       style="fill:none;stroke:#c70000;stroke-width:1;stroke-linecap:butt;stroke-linejoin:miter;stroke-miterlimit:10;stroke-opacity:1" />
    <path
       inkscape:connector-curvature="0"
       id="path57"
       transform="matrix(-0.023551,-0.999723,0.999723,-0.023551,277.53601,78.149509)"
       d="m -17.601931,17.601203 35.201241,-0.003 8.06e-4,-35.197243 -11.733655,-0.0029 0.002,23.467494 -11.733747,10e-4 -0.002,-23.467494 -11.733746,0.001 z m 0,0"
       style="fill:none;stroke:#c70000;stroke-width:1;stroke-linecap:butt;stroke-linejoin:miter;stroke-miterlimit:10;stroke-opacity:1" />
    <path
       inkscape:connector-curvature="0"
       id="path59"
       transform="matrix(0.999723,-0.0235509,0.0235509,0.999723,278.66646,126.1362)"
       d="m -17.601431,17.598688 35.201148,8.93e-4 8.93e-4,-35.201149 -11.733747,0.001 -0.0019,23.467402 -11.729841,0.0011 -0.00201,-23.467494 -11.733747,0.001 z m 0,0"
       style="fill:none;stroke:#c70000;stroke-width:1;stroke-linecap:butt;stroke-linejoin:miter;stroke-miterlimit:10;stroke-opacity:1" />
    <path
       inkscape:connector-curvature="0"
       id="path61"
       transform="matrix(0.023551,0.999723,-0.999723,0.023551,279.79691,174.12288)"
       d="m -17.600813,17.598212 35.201149,8.97e-4 8.05e-4,-35.197244 -11.733655,-0.0029 -0.0019,23.467402 -11.733747,10e-4 0.0019,-23.467401 -11.733747,0.001 z m 0,0"
       style="fill:none;stroke:#c70000;stroke-width:1;stroke-linecap:butt;stroke-linejoin:miter;stroke-miterlimit:10;stroke-opacity:1" />
    <path
       inkscape:connector-curvature="0"
       id="path63"
       transform="matrix(-0.023551,-0.999723,0.999723,-0.023551,280.92736,222.10957)"
       d="m -17.598886,17.600551 35.197243,8.06e-4 8.99e-4,-35.201149 -11.733747,0.001 0.0021,23.463588 -11.733747,10e-4 -0.002,-23.467493 -11.733747,0.001 z m 0,0"
       style="fill:none;stroke:#c70000;stroke-width:1;stroke-linecap:butt;stroke-linejoin:miter;stroke-miterlimit:10;stroke-opacity:1" />
    <path
       inkscape:connector-curvature="0"
       id="path65"
       transform="matrix(0.999723,-0.0235509,0.0235509,0.999723,324.39225,29.032377)"
       d="m -17.60071,17.600962 35.201149,8.93e-4 8.93e-4,-35.201149 -11.733747,0.001 -0.00181,23.463497 -11.733747,10e-4 0.0019,-23.467402 -11.733747,0.001 z m 0,0"
       style="fill:none;stroke:#c70000;stroke-width:1;stroke-linecap:butt;stroke-linejoin:miter;stroke-miterlimit:10;stroke-opacity:1" />
    <path
       inkscape:connector-curvature="0"
       id="path67"
       transform="matrix(-0.023551,-0.999723,0.999723,-0.023551,325.5227,77.019059)"
       d="m -17.599514,17.598948 35.201149,8.98e-4 -0.003,-35.201241 -11.733747,0.001 0.002,23.467493 -11.733746,10e-4 0.0019,-23.467402 -11.733747,0.001 z m 0,0"
       style="fill:none;stroke:#c70000;stroke-width:1;stroke-linecap:butt;stroke-linejoin:miter;stroke-miterlimit:10;stroke-opacity:1" />
    <path
       inkscape:connector-curvature="0"
       id="path69"
       transform="matrix(-0.999723,0.0235509,-0.0235509,-0.999723,326.65315,125.00575)"
       d="m -17.598264,17.600078 35.197243,8.04e-4 8.96e-4,-35.201149 -11.733747,10e-4 0.00201,23.467494 -11.733655,-0.0029 -0.0021,-23.463589 -11.733655,-0.0029 z m 0,0"
       style="fill:none;stroke:#c70000;stroke-width:1;stroke-linecap:butt;stroke-linejoin:miter;stroke-miterlimit:10;stroke-opacity:1" />
    <path
       inkscape:connector-curvature="0"
       id="path71"
       transform="matrix(0.999723,-0.0235509,0.0235509,0.999723,327.7836,172.99243)"
       d="m -17.601454,17.601827 35.201241,-0.003 8e-4,-35.197244 -11.733655,-0.0029 -0.0019,23.467402 -11.729842,0.0011 -0.00201,-23.467493 -11.733747,10e-4 z m 0,0"
       style="fill:none;stroke:#c70000;stroke-width:1;stroke-linecap:butt;stroke-linejoin:miter;stroke-miterlimit:10;stroke-opacity:1" />
    <path
       inkscape:connector-curvature="0"
       id="path73"
       transform="matrix(0.999723,-0.0235509,0.0235509,0.999723,328.91405,220.97912)"
       d="m -17.599037,17.599571 35.197243,8.01e-4 8.93e-4,-35.201149 -11.733747,0.001 0.00201,23.467494 -11.733654,-0.0029 -0.0021,-23.463588 -11.72975,-0.0028 z m 0,0"
       style="fill:none;stroke:#c70000;stroke-width:1;stroke-linecap:butt;stroke-linejoin:miter;stroke-miterlimit:10;stroke-opacity:1" />
    <path
       inkscape:connector-curvature="0"
       id="path75"
       transform="matrix(-0.023551,-0.999723,0.999723,-0.023551,372.37893,27.901927)"
       d="m -17.599441,17.598181 35.201149,8.98e-4 -0.0031,-35.197335 -11.733655,-0.0029 0.002,23.467494 -11.733747,0.001 0.0019,-23.467402 -11.733747,0.001 z m 0,0"
       style="fill:none;stroke:#c70000;stroke-width:1;stroke-linecap:butt;stroke-linejoin:miter;stroke-miterlimit:10;stroke-opacity:1" />
    <path
       inkscape:connector-curvature="0"
       id="path77"
       transform="matrix(-0.999723,0.0235509,-0.0235509,-0.999723,373.50938,75.88861)"
       d="m -17.601403,17.600055 35.201149,8.96e-4 8.96e-4,-35.201149 -11.733747,10e-4 -0.0019,23.467401 -11.72975,-0.00281 -0.0021,-23.463588 -11.733655,-0.0029 z m 0,0"
       style="fill:none;stroke:#c70000;stroke-width:1;stroke-linecap:butt;stroke-linejoin:miter;stroke-miterlimit:10;stroke-opacity:1" />
    <path
       inkscape:connector-curvature="0"
       id="path79"
       transform="matrix(0.999723,-0.0235509,0.0235509,0.999723,374.63983,123.8753)"
       d="m -17.598315,17.601849 35.197335,-0.0031 8.01e-4,-35.197243 -11.733655,-0.0029 0.00201,23.467494 -11.733747,10e-4 -0.00201,-23.467494 -11.733747,0.001 z m 0,0"
       style="fill:none;stroke:#c70000;stroke-width:1;stroke-linecap:butt;stroke-linejoin:miter;stroke-miterlimit:10;stroke-opacity:1" />
    <path
       inkscape:connector-curvature="0"
       id="path81"
       transform="matrix(0.023551,0.999723,-0.999723,0.023551,375.77028,171.86198)"
       d="m -17.601649,17.598909 35.201149,8.97e-4 8.97e-4,-35.201148 -11.733747,10e-4 -0.0019,23.467402 -11.729842,0.0011 -0.00201,-23.467494 -11.733747,10e-4 z m 0,0"
       style="fill:none;stroke:#c70000;stroke-width:1;stroke-linecap:butt;stroke-linejoin:miter;stroke-miterlimit:10;stroke-opacity:1" />
    <path
       inkscape:connector-curvature="0"
       id="path83"
       transform="matrix(-0.999723,0.0235509,-0.0235509,-0.999723,376.90073,219.84867)"
       d="m -17.600658,17.599195 35.201148,8.95e-4 8.96e-4,-35.201148 -11.733747,10e-4 -0.0019,23.467402 -11.733747,10e-4 0.0019,-23.467402 -11.733747,10e-4 z m 0,0"
       style="fill:none;stroke:#c70000;stroke-width:1;stroke-linecap:butt;stroke-linejoin:miter;stroke-miterlimit:10;stroke-opacity:1" />
    <path
       inkscape:connector-curvature="0"
       id="path85"
       transform="matrix(0.999723,-0.0235509,0.0235509,0.999723,420.36562,26.771477)"
       d="m -17.601407,17.600126 35.201149,8.92e-4 8.92e-4,-35.201148 -11.733747,0.001 -0.0019,23.467402 -11.72975,-0.00281 -0.0021,-23.463589 -11.733655,-0.0029 z m 0,0"
       style="fill:none;stroke:#c70000;stroke-width:1;stroke-linecap:butt;stroke-linejoin:miter;stroke-miterlimit:10;stroke-opacity:1" />
    <path
       inkscape:connector-curvature="0"
       id="path87"
       transform="matrix(0.999723,-0.0235509,0.0235509,0.999723,421.49607,74.75816)"
       d="m -17.599082,17.60178 35.197335,-0.0031 8.01e-4,-35.197243 -11.733655,-0.0029 0.00201,23.467493 -11.733746,10e-4 -0.00201,-23.467494 -11.729842,0.0011 z m 0,0"
       style="fill:none;stroke:#c70000;stroke-width:1;stroke-linecap:butt;stroke-linejoin:miter;stroke-miterlimit:10;stroke-opacity:1" />
    <path
       inkscape:connector-curvature="0"
       id="path89"
       transform="matrix(-0.023551,-0.999723,0.999723,-0.023551,422.62652,122.74485)"
       d="m -17.600328,17.600575 35.201149,8.98e-4 8.98e-4,-35.201148 -11.733747,0.001 -0.00181,23.463497 -11.733747,10e-4 0.0019,-23.467402 -11.733747,10e-4 z m 0,0"
       style="fill:none;stroke:#c70000;stroke-width:1;stroke-linecap:butt;stroke-linejoin:miter;stroke-miterlimit:10;stroke-opacity:1" />
    <path
       inkscape:connector-curvature="0"
       id="path91"
       transform="matrix(0.023551,0.999723,-0.999723,0.023551,423.75697,170.73153)"
       d="m -17.600161,17.601256 35.201241,-0.003 8.05e-4,-35.197243 -11.733655,-0.0029 -0.0019,23.467402 -11.733746,10e-4 0.0019,-23.467402 -11.733746,0.001 z m 0,0"
       style="fill:none;stroke:#c70000;stroke-width:1;stroke-linecap:butt;stroke-linejoin:miter;stroke-miterlimit:10;stroke-opacity:1" />
    <path
       inkscape:connector-curvature="0"
       id="path93"
       transform="matrix(0.999723,-0.0235509,0.0235509,0.999723,424.88742,218.71822)"
       d="m -17.599734,17.598735 35.201148,8.93e-4 -0.003,-35.201241 -11.729842,0.0011 -0.0019,23.467402 -11.733747,0.001 0.0019,-23.467402 -11.733747,0.001 z m 0,0"
       style="fill:none;stroke:#c70000;stroke-width:1;stroke-linecap:butt;stroke-linejoin:miter;stroke-miterlimit:10;stroke-opacity:1" />
    <path
       inkscape:connector-curvature="0"
       id="path95"
       transform="matrix(-0.999723,0.0235509,-0.0235509,-0.999723,468.35231,25.641028)"
       d="m -17.598289,17.59864 35.197244,8.04e-4 8.95e-4,-35.201149 -11.733746,10e-4 0.00201,23.467494 -11.733747,0.001 -0.00201,-23.467493 -11.733747,10e-4 z m 0,0"
       style="fill:none;stroke:#c70000;stroke-width:1;stroke-linecap:butt;stroke-linejoin:miter;stroke-miterlimit:10;stroke-opacity:1" />
    <path
       inkscape:connector-curvature="0"
       id="path97"
       transform="matrix(0.023551,0.999723,-0.999723,0.023551,469.48276,73.627711)"
       d="m -17.601788,17.600443 35.201149,8.97e-4 8.97e-4,-35.201149 -11.733747,0.001 0.0021,23.463588 -11.733747,10e-4 -0.002,-23.467494 -11.733747,10e-4 z m 0,0"
       style="fill:none;stroke:#c70000;stroke-width:1;stroke-linecap:butt;stroke-linejoin:miter;stroke-miterlimit:10;stroke-opacity:1" />
    <path
       inkscape:connector-curvature="0"
       id="path99"
       transform="matrix(0.999723,-0.0235509,0.0235509,0.999723,470.61321,121.6144)"
       d="m -17.599013,17.601013 35.197244,8e-4 8.92e-4,-35.201148 -11.733747,0.001 0.0021,23.463589 -11.733747,10e-4 -0.00201,-23.467494 -11.729842,0.0011 z m 0,0"
       style="fill:none;stroke:#c70000;stroke-width:1;stroke-linecap:butt;stroke-linejoin:miter;stroke-miterlimit:10;stroke-opacity:1" />
    <path
       inkscape:connector-curvature="0"
       id="path101"
       transform="matrix(0.999723,-0.0235509,0.0235509,0.999723,471.74366,169.60108)"
       d="m -17.600501,17.598666 35.201148,8.92e-4 8.93e-4,-35.201148 -11.733747,0.001 -0.0019,23.467402 -11.733747,10e-4 0.0019,-23.467402 -11.733747,10e-4 z m 0,0"
       style="fill:none;stroke:#c70000;stroke-width:1;stroke-linecap:butt;stroke-linejoin:miter;stroke-miterlimit:10;stroke-opacity:1" />
    <path
       inkscape:connector-curvature="0"
       id="path103"
       transform="matrix(-0.999723,0.0235509,-0.0235509,-0.999723,472.8741,217.58777)"
       d="m -17.599961,17.600031 35.201149,8.96e-4 -0.003,-35.201241 -11.729842,0.0011 -0.0019,23.467402 -11.733655,-0.0029 0.00181,-23.463497 -11.733654,-0.0029 z m 0,0"
       style="fill:none;stroke:#c70000;stroke-width:1;stroke-linecap:butt;stroke-linejoin:miter;stroke-miterlimit:10;stroke-opacity:1" />
    <path
       inkscape:connector-curvature="0"
       id="path105"
       transform="matrix(-0.999995,0.00317753,-0.00317753,-0.999995,27.727657,279.17024)"
       d="m -17.60179,17.598771 35.203294,0.0025 -0.0014,-35.199401 -11.734427,-0.0021 -3.54e-4,23.468867 -11.730522,-0.00212 3.42e-4,-23.464961 -11.734427,-0.0021 z m 0,0"
       style="fill:none;stroke:#c70000;stroke-width:1;stroke-linecap:butt;stroke-linejoin:miter;stroke-miterlimit:10;stroke-opacity:1" />
    <path
       inkscape:connector-curvature="0"
       id="path107"
       transform="matrix(-0.999995,0.00317753,-0.00317753,-0.999995,27.880182,327.16999)"
       d="m -17.601608,17.598525 35.203295,0.0025 -0.0014,-35.199401 -11.734428,-0.0021 -3.54e-4,23.468867 -11.730521,-0.00212 -0.00357,-23.464973 -11.730521,-0.0021 z m 0,0"
       style="fill:none;stroke:#c70000;stroke-width:1;stroke-linecap:butt;stroke-linejoin:miter;stroke-miterlimit:10;stroke-opacity:1" />
    <path
       inkscape:connector-curvature="0"
       id="path109"
       transform="matrix(0.999995,-0.00317762,0.00317762,0.999995,28.032708,375.16975)"
       d="m -17.600437,17.598631 35.199389,0.0025 0.0025,-35.199389 -11.734428,-0.0021 -3.56e-4,23.468867 -11.734427,-0.00213 3.43e-4,-23.464961 -11.734427,-0.0021 z m 0,0"
       style="fill:none;stroke:#c70000;stroke-width:1;stroke-linecap:butt;stroke-linejoin:miter;stroke-miterlimit:10;stroke-opacity:1" />
    <path
       inkscape:connector-curvature="0"
       id="path111"
       transform="matrix(-0.0031776,-0.999995,0.999995,-0.0031776,28.185233,423.16951)"
       d="m -17.601348,17.598769 35.203295,0.0025 -0.0014,-35.199401 -11.734427,-0.0021 -3.56e-4,23.468868 -11.730522,-0.00212 -0.00356,-23.464974 -11.730521,-0.0021 z m 0,0"
       style="fill:none;stroke:#c70000;stroke-width:1;stroke-linecap:butt;stroke-linejoin:miter;stroke-miterlimit:10;stroke-opacity:1" />
    <path
       inkscape:connector-curvature="0"
       id="path113"
       transform="matrix(-0.0031776,-0.999995,0.999995,-0.0031776,28.337759,471.16926)"
       d="m -17.60159,17.598587 35.203295,0.0025 -0.0014,-35.199401 -11.734427,-0.0021 -3.56e-4,23.468867 -11.730521,-0.00212 -0.00356,-23.464973 -11.730521,-0.0021 z m 0,0"
       style="fill:none;stroke:#c70000;stroke-width:1;stroke-linecap:butt;stroke-linejoin:miter;stroke-miterlimit:10;stroke-opacity:1" />
    <path
       inkscape:connector-curvature="0"
       id="path115"
       transform="matrix(-0.999995,0.00317753,-0.00317753,-0.999995,75.727416,279.01771)"
       d="m -17.598124,17.598601 35.199389,0.0025 -0.0014,-35.199401 -11.734427,-0.0021 -3.54e-4,23.468867 -11.730522,-0.00212 3.42e-4,-23.464961 -11.734427,-0.0021 z m 0,0"
       style="fill:none;stroke:#c70000;stroke-width:1;stroke-linecap:butt;stroke-linejoin:miter;stroke-miterlimit:10;stroke-opacity:1" />
    <path
       inkscape:connector-curvature="0"
       id="path117"
       transform="matrix(-0.0031776,-0.999995,0.999995,-0.0031776,75.879942,327.01747)"
       d="m -17.601047,17.599374 35.199388,0.0025 0.0025,-35.203295 -11.73444,0.0018 -3.44e-4,23.464961 -11.73444,0.00178 3.56e-4,-23.468868 -11.730533,0.0018 z m 0,0"
       style="fill:none;stroke:#c70000;stroke-width:1;stroke-linecap:butt;stroke-linejoin:miter;stroke-miterlimit:10;stroke-opacity:1" />
    <path
       inkscape:connector-curvature="0"
       id="path119"
       transform="matrix(-0.999995,0.00317753,-0.00317753,-0.999995,76.032467,375.01722)"
       d="m -17.601665,17.598101 35.203295,0.0025 -0.0014,-35.199401 -11.734428,-0.0021 -3.54e-4,23.468868 -11.730521,-0.00212 3.41e-4,-23.464961 -11.734427,-0.0021 z m 0,0"
       style="fill:none;stroke:#c70000;stroke-width:1;stroke-linecap:butt;stroke-linejoin:miter;stroke-miterlimit:10;stroke-opacity:1" />
    <path
       inkscape:connector-curvature="0"
       id="path121"
       transform="matrix(-0.999995,0.00317753,-0.00317753,-0.999995,76.184993,423.01698)"
       d="m -17.601495,17.601765 35.203307,-0.0014 -0.0014,-35.199401 -11.734427,-0.0021 -3.55e-4,23.468868 -11.730521,-0.00212 -0.00356,-23.464974 -11.730521,-0.0021 z m 0,0"
       style="fill:none;stroke:#c70000;stroke-width:1;stroke-linecap:butt;stroke-linejoin:miter;stroke-miterlimit:10;stroke-opacity:1" />
    <path
       inkscape:connector-curvature="0"
       id="path123"
       transform="matrix(0.00317757,0.999995,-0.999995,0.00317757,76.337518,471.01674)"
       d="m -17.60009,17.598088 35.199388,0.0025 0.0025,-35.199388 -11.734428,-0.0021 -3.55e-4,23.468868 -11.734427,-0.00213 3.43e-4,-23.464961 -11.734428,-0.0021 z m 0,0"
       style="fill:none;stroke:#c70000;stroke-width:1;stroke-linecap:butt;stroke-linejoin:miter;stroke-miterlimit:10;stroke-opacity:1" />
    <path
       inkscape:connector-curvature="0"
       id="path125"
       transform="matrix(0.999995,-0.00317762,0.00317762,0.999995,123.72717,278.86519)"
       d="m -17.59959,17.598509 35.199388,0.0025 -0.0014,-35.199401 -11.730521,-0.0021 -3.56e-4,23.468867 -11.734428,-0.00213 3.44e-4,-23.464961 -11.734427,-0.0021 z m 0,0"
       style="fill:none;stroke:#c70000;stroke-width:1;stroke-linecap:butt;stroke-linejoin:miter;stroke-miterlimit:10;stroke-opacity:1" />
    <path
       inkscape:connector-curvature="0"
       id="path127"
       transform="matrix(0.999995,-0.00317762,0.00317762,0.999995,123.8797,326.86494)"
       d="m -17.599773,17.598755 35.199389,0.0025 -0.0014,-35.199401 -11.730521,-0.0021 -3.57e-4,23.468867 -11.734427,-0.00213 3.44e-4,-23.464961 -11.734428,-0.0021 z m 0,0"
       style="fill:none;stroke:#c70000;stroke-width:1;stroke-linecap:butt;stroke-linejoin:miter;stroke-miterlimit:10;stroke-opacity:1" />
    <path
       inkscape:connector-curvature="0"
       id="path129"
       transform="matrix(0.00317757,0.999995,-0.999995,0.00317757,124.03222,374.8647)"
       d="m -17.600404,17.601387 35.199401,-0.0014 0.0025,-35.199389 -11.734427,-0.0021 -3.56e-4,23.468868 -11.734427,-0.00213 3.43e-4,-23.464961 -11.734428,-0.0021 z m 0,0"
       style="fill:none;stroke:#c70000;stroke-width:1;stroke-linecap:butt;stroke-linejoin:miter;stroke-miterlimit:10;stroke-opacity:1" />
    <path
       inkscape:connector-curvature="0"
       id="path131"
       transform="matrix(0.00317757,0.999995,-0.999995,0.00317757,124.18475,422.86446)"
       d="m -17.600162,17.60157 35.199401,-0.0014 0.0025,-35.199388 -11.734428,-0.0021 -3.55e-4,23.468867 -11.734427,-0.00213 3.42e-4,-23.464961 -11.734427,-0.0021 z m 0,0"
       style="fill:none;stroke:#c70000;stroke-width:1;stroke-linecap:butt;stroke-linejoin:miter;stroke-miterlimit:10;stroke-opacity:1" />
    <path
       inkscape:connector-curvature="0"
       id="path133"
       transform="matrix(-0.0031776,-0.999995,0.999995,-0.0031776,124.33728,470.86421)"
       d="m -17.598049,17.599081 35.199389,0.0025 -0.0014,-35.203307 -11.73444,0.0018 -3.44e-4,23.464961 -11.730533,0.00179 3.43e-4,-23.464961 -11.734427,-0.0021 z m 0,0"
       style="fill:none;stroke:#c70000;stroke-width:1;stroke-linecap:butt;stroke-linejoin:miter;stroke-miterlimit:10;stroke-opacity:1" />
    <path
       inkscape:connector-curvature="0"
       id="path135"
       transform="matrix(-0.999995,0.00317753,-0.00317753,-0.999995,171.72693,278.71266)"
       d="m -17.598608,17.598236 35.199389,0.0025 -0.0014,-35.199401 -11.734428,-0.0021 0.00355,23.46888 -11.734427,-0.00213 3.42e-4,-23.464961 -11.734428,-0.0021 z m 0,0"
       style="fill:none;stroke:#c70000;stroke-width:1;stroke-linecap:butt;stroke-linejoin:miter;stroke-miterlimit:10;stroke-opacity:1" />
    <path
       inkscape:connector-curvature="0"
       id="path137"
       transform="matrix(-0.999995,0.00317753,-0.00317753,-0.999995,171.87946,326.71241)"
       d="m -17.598437,17.601896 35.199401,-0.0014 -0.0014,-35.199401 -11.734427,-0.0021 -3.54e-4,23.468867 -11.730521,-0.00212 3.41e-4,-23.464961 -11.734427,-0.0021 z m 0,0"
       style="fill:none;stroke:#c70000;stroke-width:1;stroke-linecap:butt;stroke-linejoin:miter;stroke-miterlimit:10;stroke-opacity:1" />
    <path
       inkscape:connector-curvature="0"
       id="path139"
       transform="matrix(0.999995,-0.00317762,0.00317762,0.999995,172.03198,374.71217)"
       d="m -17.599714,17.599179 35.199389,0.0025 -0.0014,-35.203307 -11.730533,0.0018 -3.44e-4,23.464962 -11.73444,0.00177 3.44e-4,-23.464962 -11.734428,-0.0021 z m 0,0"
       style="fill:none;stroke:#c70000;stroke-width:1;stroke-linecap:butt;stroke-linejoin:miter;stroke-miterlimit:10;stroke-opacity:1" />
    <path
       inkscape:connector-curvature="0"
       id="path141"
       transform="matrix(-0.0031776,-0.999995,0.999995,-0.0031776,172.18451,422.71193)"
       d="m -17.601896,17.599493 35.203307,-0.0014 -0.0014,-35.199401 -11.73444,0.0018 -3.44e-4,23.464961 -11.730533,0.00179 3.56e-4,-23.468867 -11.73444,0.0018 z m 0,0"
       style="fill:none;stroke:#c70000;stroke-width:1;stroke-linecap:butt;stroke-linejoin:miter;stroke-miterlimit:10;stroke-opacity:1" />
    <path
       inkscape:connector-curvature="0"
       id="path143"
       transform="matrix(0.999995,-0.00317762,0.00317762,0.999995,172.33703,470.71169)"
       d="m -17.600079,17.599663 35.199401,-0.0014 0.0025,-35.199389 -11.734439,0.0018 -3.44e-4,23.464961 -11.73444,0.00177 3.56e-4,-23.468867 -11.73444,0.0018 z m 0,0"
       style="fill:none;stroke:#c70000;stroke-width:1;stroke-linecap:butt;stroke-linejoin:miter;stroke-miterlimit:10;stroke-opacity:1" />
    <path
       inkscape:connector-curvature="0"
       id="path145"
       transform="matrix(-0.0031776,-0.999995,0.999995,-0.0031776,219.72669,278.56013)"
       d="m -17.601349,17.600282 35.199401,-0.0014 0.0025,-35.199389 -11.73444,0.0018 -3.43e-4,23.464961 -11.730534,0.00179 -0.00355,-23.46888 -11.730534,0.0018 z m 0,0"
       style="fill:none;stroke:#c70000;stroke-width:1;stroke-linecap:butt;stroke-linejoin:miter;stroke-miterlimit:10;stroke-opacity:1" />
    <path
       inkscape:connector-curvature="0"
       id="path147"
       transform="matrix(-0.0031776,-0.999995,0.999995,-0.0031776,219.87921,326.55989)"
       d="m -17.601595,17.6001 35.203307,-0.0014 -0.0014,-35.199401 -11.73444,0.0018 -3.44e-4,23.464961 -11.730533,0.00179 -0.00355,-23.46888 -11.730533,0.0018 z m 0,0"
       style="fill:none;stroke:#c70000;stroke-width:1;stroke-linecap:butt;stroke-linejoin:miter;stroke-miterlimit:10;stroke-opacity:1" />
    <path
       inkscape:connector-curvature="0"
       id="path149"
       transform="matrix(-0.0031776,-0.999995,0.999995,-0.0031776,220.03174,374.55965)"
       d="m -17.601837,17.599917 35.203308,-0.0014 -0.0014,-35.199401 -11.73444,0.0018 -3.43e-4,23.464961 -11.730534,0.00179 3.56e-4,-23.468868 -11.73444,0.0018 z m 0,0"
       style="fill:none;stroke:#c70000;stroke-width:1;stroke-linecap:butt;stroke-linejoin:miter;stroke-miterlimit:10;stroke-opacity:1" />
    <path
       inkscape:connector-curvature="0"
       id="path151"
       transform="matrix(0.00317757,0.999995,-0.999995,0.00317757,220.18427,422.5594)"
       d="m -17.599797,17.601086 35.199401,-0.0014 -0.0014,-35.199401 -11.730522,-0.0021 -3.55e-4,23.468868 -11.734427,-0.00213 3.43e-4,-23.464961 -11.73444,0.0018 z m 0,0"
       style="fill:none;stroke:#c70000;stroke-width:1;stroke-linecap:butt;stroke-linejoin:miter;stroke-miterlimit:10;stroke-opacity:1" />
    <path
       inkscape:connector-curvature="0"
       id="path153"
       transform="matrix(0.999995,-0.00317762,0.00317762,0.999995,220.33679,470.55916)"
       d="m -17.599837,17.599845 35.199401,-0.0014 -0.0014,-35.199401 -11.730534,0.0018 -3.44e-4,23.464961 -11.734439,0.00177 3.56e-4,-23.468868 -11.73444,0.0018 z m 0,0"
       style="fill:none;stroke:#c70000;stroke-width:1;stroke-linecap:butt;stroke-linejoin:miter;stroke-miterlimit:10;stroke-opacity:1" />
    <path
       inkscape:connector-curvature="0"
       id="path155"
       transform="matrix(-0.0031776,-0.999995,0.999995,-0.0031776,267.72645,278.40761)"
       d="m -17.601532,17.600524 35.203307,-0.0014 -0.0014,-35.199401 -11.73444,0.0018 -3.44e-4,23.464961 -11.730533,0.00179 -0.00355,-23.46888 -11.730533,0.0018 z m 0,0"
       style="fill:none;stroke:#c70000;stroke-width:1;stroke-linecap:butt;stroke-linejoin:miter;stroke-miterlimit:10;stroke-opacity:1" />
    <path
       inkscape:connector-curvature="0"
       id="path157"
       transform="matrix(0.00317757,0.999995,-0.999995,0.00317757,267.87897,326.40736)"
       d="m -17.600098,17.600479 35.199401,-0.0014 0.0025,-35.199389 -11.73444,0.0018 -3.43e-4,23.464961 -11.73444,0.00178 3.56e-4,-23.468867 -11.73444,0.0018 z m 0,0"
       style="fill:none;stroke:#c70000;stroke-width:1;stroke-linecap:butt;stroke-linejoin:miter;stroke-miterlimit:10;stroke-opacity:1" />
    <path
       inkscape:connector-curvature="0"
       id="path159"
       transform="matrix(-0.0031776,-0.999995,0.999995,-0.0031776,268.0315,374.40712)"
       d="m -17.598113,17.600171 35.199401,-0.0014 -0.0014,-35.199401 -11.734439,0.0018 -3.44e-4,23.464961 -11.730534,0.00179 3.56e-4,-23.468867 -11.73444,0.0018 z m 0,0"
       style="fill:none;stroke:#c70000;stroke-width:1;stroke-linecap:butt;stroke-linejoin:miter;stroke-miterlimit:10;stroke-opacity:1" />
    <path
       inkscape:connector-curvature="0"
       id="path161"
       transform="matrix(-0.0031776,-0.999995,0.999995,-0.0031776,268.18402,422.40688)"
       d="m -17.598355,17.599989 35.199401,-0.0014 -0.0014,-35.199401 -11.73444,0.0018 -3.44e-4,23.464961 -11.730533,0.00179 3.56e-4,-23.468868 -11.73444,0.0018 z m 0,0"
       style="fill:none;stroke:#c70000;stroke-width:1;stroke-linecap:butt;stroke-linejoin:miter;stroke-miterlimit:10;stroke-opacity:1" />
    <path
       inkscape:connector-curvature="0"
       id="path163"
       transform="matrix(-0.0031776,-0.999995,0.999995,-0.0031776,268.33655,470.40664)"
       d="m -17.598597,17.599806 35.199401,-0.0014 -0.0014,-35.199401 -11.73444,0.0018 0.00356,23.464973 -11.73444,0.00178 3.56e-4,-23.468867 -11.73444,0.0018 z m 0,0"
       style="fill:none;stroke:#c70000;stroke-width:1;stroke-linecap:butt;stroke-linejoin:miter;stroke-miterlimit:10;stroke-opacity:1" />
    <path
       inkscape:connector-curvature="0"
       id="path165"
       transform="matrix(0.00317757,0.999995,-0.999995,0.00317757,315.7262,278.25508)"
       d="m -17.600161,17.600055 35.199401,-0.0014 0.0025,-35.199388 -11.73444,0.0018 -3.43e-4,23.464961 -11.73444,0.00178 3.56e-4,-23.468867 -11.73444,0.0018 z m 0,0"
       style="fill:none;stroke:#c70000;stroke-width:1;stroke-linecap:butt;stroke-linejoin:miter;stroke-miterlimit:10;stroke-opacity:1" />
    <path
       inkscape:connector-curvature="0"
       id="path167"
       transform="matrix(0.999995,-0.00317762,0.00317762,0.999995,315.87873,326.25484)"
       d="m -17.598806,17.599485 35.199401,-0.0014 -0.0014,-35.199401 -11.73444,0.0018 0.00356,23.464974 -11.73444,0.00178 3.56e-4,-23.468868 -11.73444,0.0018 z m 0,0"
       style="fill:none;stroke:#c70000;stroke-width:1;stroke-linecap:butt;stroke-linejoin:miter;stroke-miterlimit:10;stroke-opacity:1" />
    <path
       inkscape:connector-curvature="0"
       id="path169"
       transform="matrix(0.00317757,0.999995,-0.999995,0.00317757,316.03126,374.25459)"
       d="m -17.599673,17.60042 35.199401,-0.0014 -0.0014,-35.199401 -11.730534,0.0018 -3.42e-4,23.464962 -11.73444,0.00177 3.55e-4,-23.468867 -11.73444,0.0018 z m 0,0"
       style="fill:none;stroke:#c70000;stroke-width:1;stroke-linecap:butt;stroke-linejoin:miter;stroke-miterlimit:10;stroke-opacity:1" />
    <path
       inkscape:connector-curvature="0"
       id="path171"
       transform="matrix(-0.999995,0.00317753,-0.00317753,-0.999995,316.18378,422.25435)"
       d="m -17.598797,17.600865 35.199401,-0.0014 -0.0014,-35.199401 -11.73444,0.0018 0.00357,23.464973 -11.73444,0.00178 3.54e-4,-23.468867 -11.73444,0.0018 z m 0,0"
       style="fill:none;stroke:#c70000;stroke-width:1;stroke-linecap:butt;stroke-linejoin:miter;stroke-miterlimit:10;stroke-opacity:1" />
    <path
       inkscape:connector-curvature="0"
       id="path173"
       transform="matrix(0.00317757,0.999995,-0.999995,0.00317757,316.33631,470.25411)"
       d="m -17.59919,17.600785 35.199401,-0.0014 -0.0014,-35.199401 -11.730534,0.0018 -3.43e-4,23.464961 -11.73444,0.00178 3.55e-4,-23.468867 -11.734439,0.0018 z m 0,0"
       style="fill:none;stroke:#c70000;stroke-width:1;stroke-linecap:butt;stroke-linejoin:miter;stroke-miterlimit:10;stroke-opacity:1" />
    <path
       inkscape:connector-curvature="0"
       id="path175"
       transform="matrix(0.999995,-0.00317762,0.00317762,0.999995,363.72596,278.10256)"
       d="m -17.598381,17.599422 35.199388,0.0025 -0.0014,-35.203307 -11.73444,0.0018 -3.44e-4,23.464961 -11.730534,0.00179 3.56e-4,-23.468868 -11.734439,0.0018 z m 0,0"
       style="fill:none;stroke:#c70000;stroke-width:1;stroke-linecap:butt;stroke-linejoin:miter;stroke-miterlimit:10;stroke-opacity:1" />
    <path
       inkscape:connector-curvature="0"
       id="path177"
       transform="matrix(0.999995,-0.00317762,0.00317762,0.999995,363.87849,326.10231)"
       d="m -17.598564,17.599668 35.199401,-0.0014 -0.0014,-35.199401 -11.73444,0.0018 0.00356,23.464973 -11.734439,0.00178 3.56e-4,-23.468867 -11.73444,0.0018 z m 0,0"
       style="fill:none;stroke:#c70000;stroke-width:1;stroke-linecap:butt;stroke-linejoin:miter;stroke-miterlimit:10;stroke-opacity:1" />
    <path
       inkscape:connector-curvature="0"
       id="path179"
       transform="matrix(0.00317757,0.999995,-0.999995,0.00317757,364.03101,374.10207)"
       d="m -17.599491,17.600178 35.199401,-0.0014 -0.0014,-35.199401 -11.730534,0.0018 -3.43e-4,23.464961 -11.73444,0.00177 3.56e-4,-23.468867 -11.73444,0.0018 z m 0,0"
       style="fill:none;stroke:#c70000;stroke-width:1;stroke-linecap:butt;stroke-linejoin:miter;stroke-miterlimit:10;stroke-opacity:1" />
    <path
       inkscape:connector-curvature="0"
       id="path181"
       transform="matrix(-0.0031776,-0.999995,0.999995,-0.0031776,364.18354,422.10183)"
       d="m -17.59872,17.600472 35.199401,-0.0014 -0.0014,-35.199401 -11.73444,0.0018 0.00356,23.464973 -11.73444,0.00178 3.56e-4,-23.468867 -11.734439,0.0018 z m 0,0"
       style="fill:none;stroke:#c70000;stroke-width:1;stroke-linecap:butt;stroke-linejoin:miter;stroke-miterlimit:10;stroke-opacity:1" />
    <path
       inkscape:connector-curvature="0"
       id="path183"
       transform="matrix(0.00317757,0.999995,-0.999995,0.00317757,364.33606,470.10158)"
       d="m -17.599007,17.600544 35.199401,-0.0014 -0.0014,-35.199401 -11.730534,0.0018 -3.42e-4,23.464961 -11.73444,0.00178 3.55e-4,-23.468867 -11.73444,0.0018 z m 0,0"
       style="fill:none;stroke:#c70000;stroke-width:1;stroke-linecap:butt;stroke-linejoin:miter;stroke-miterlimit:10;stroke-opacity:1" />
    <path
       inkscape:connector-curvature="0"
       id="path185"
       transform="matrix(0.00317757,0.999995,-0.999995,0.00317757,411.72572,277.95003)"
       d="m -17.599795,17.599572 35.199401,-0.0014 -0.0014,-35.199401 -11.730534,0.0018 -3.43e-4,23.464961 -11.73444,0.00178 3.56e-4,-23.468867 -11.73444,0.0018 z m 0,0"
       style="fill:none;stroke:#c70000;stroke-width:1;stroke-linecap:butt;stroke-linejoin:miter;stroke-miterlimit:10;stroke-opacity:1" />
    <path
       inkscape:connector-curvature="0"
       id="path187"
       transform="matrix(0.999995,-0.00317762,0.00317762,0.999995,411.87824,325.94979)"
       d="m -17.598322,17.59985 35.199401,-0.0014 -0.0014,-35.199401 -11.73444,0.0018 -3.44e-4,23.464961 -11.730534,0.00179 3.57e-4,-23.468868 -11.73444,0.0018 z m 0,0"
       style="fill:none;stroke:#c70000;stroke-width:1;stroke-linecap:butt;stroke-linejoin:miter;stroke-miterlimit:10;stroke-opacity:1" />
    <path
       inkscape:connector-curvature="0"
       id="path189"
       transform="matrix(0.999995,-0.00317762,0.00317762,0.999995,412.03077,373.94954)"
       d="m -17.598505,17.600092 35.199401,-0.0014 -0.0014,-35.199401 -11.73444,0.0018 0.00356,23.464973 -11.73444,0.00178 3.56e-4,-23.468867 -11.73444,0.0018 z m 0,0"
       style="fill:none;stroke:#c70000;stroke-width:1;stroke-linecap:butt;stroke-linejoin:miter;stroke-miterlimit:10;stroke-opacity:1" />
    <path
       inkscape:connector-curvature="0"
       id="path191"
       transform="matrix(-0.999995,0.00317753,-0.00317753,-0.999995,412.1833,421.9493)"
       d="m -17.599281,17.6005 35.199401,-0.0014 -0.0014,-35.199401 -11.730534,0.0018 -3.42e-4,23.464961 -11.73444,0.00178 3.55e-4,-23.468867 -11.73444,0.0018 z m 0,0"
       style="fill:none;stroke:#c70000;stroke-width:1;stroke-linecap:butt;stroke-linejoin:miter;stroke-miterlimit:10;stroke-opacity:1" />
    <path
       inkscape:connector-curvature="0"
       id="path193"
       transform="matrix(0.00317757,0.999995,-0.999995,0.00317757,412.33582,469.94906)"
       d="m -17.598825,17.600302 35.199401,-0.0014 -0.0014,-35.199401 -11.730534,0.0018 -3.43e-4,23.464961 -11.73444,0.00178 3.56e-4,-23.468868 -11.73444,0.0018 z m 0,0"
       style="fill:none;stroke:#c70000;stroke-width:1;stroke-linecap:butt;stroke-linejoin:miter;stroke-miterlimit:10;stroke-opacity:1" />
    <path
       inkscape:connector-curvature="0"
       id="path195"
       transform="matrix(0.00317757,0.999995,-0.999995,0.00317757,459.72548,277.79751)"
       d="m -17.599613,17.59933 35.199389,0.0025 -0.0014,-35.203307 -11.730533,0.0018 -3.43e-4,23.464961 -11.73444,0.00178 3.55e-4,-23.468868 -11.73444,0.0018 z m 0,0"
       style="fill:none;stroke:#c70000;stroke-width:1;stroke-linecap:butt;stroke-linejoin:miter;stroke-miterlimit:10;stroke-opacity:1" />
    <path
       inkscape:connector-curvature="0"
       id="path197"
       transform="matrix(-0.0031776,-0.999995,0.999995,-0.0031776,459.878,325.79726)"
       d="m -17.598602,17.601321 35.199401,-0.0014 -0.0014,-35.199401 -11.734428,-0.0021 0.00355,23.46888 -11.734428,-0.00213 3.44e-4,-23.464961 -11.73444,0.0018 z m 0,0"
       style="fill:none;stroke:#c70000;stroke-width:1;stroke-linecap:butt;stroke-linejoin:miter;stroke-miterlimit:10;stroke-opacity:1" />
    <path
       inkscape:connector-curvature="0"
       id="path199"
       transform="matrix(0.999995,-0.00317762,0.00317762,0.999995,460.03053,373.79702)"
       d="m -17.598263,17.600275 35.199401,-0.0014 -0.0014,-35.199401 -11.73444,0.0018 -3.44e-4,23.464961 -11.730534,0.00179 3.57e-4,-23.468867 -11.73444,0.0018 z m 0,0"
       style="fill:none;stroke:#c70000;stroke-width:1;stroke-linecap:butt;stroke-linejoin:miter;stroke-miterlimit:10;stroke-opacity:1" />
    <path
       inkscape:connector-curvature="0"
       id="path201"
       transform="matrix(0.00317757,0.999995,-0.999995,0.00317757,460.18305,421.79678)"
       d="m -17.598884,17.599877 35.199401,-0.0014 -0.0014,-35.199401 -11.730534,0.0018 -3.43e-4,23.464961 -11.73444,0.00178 3.55e-4,-23.468867 -11.734439,0.0018 z m 0,0"
       style="fill:none;stroke:#c70000;stroke-width:1;stroke-linecap:butt;stroke-linejoin:miter;stroke-miterlimit:10;stroke-opacity:1" />
    <path
       inkscape:connector-curvature="0"
       id="path203"
       transform="matrix(0.00317757,0.999995,-0.999995,0.00317757,460.33558,469.79653)"
       d="m -17.598642,17.60006 35.199401,-0.0014 -0.0014,-35.199401 -11.73444,0.0018 0.00356,23.464973 -11.73444,0.00178 3.55e-4,-23.468867 -11.73444,0.0018 z m 0,0"
       style="fill:none;stroke:#c70000;stroke-width:1;stroke-linecap:butt;stroke-linejoin:miter;stroke-miterlimit:10;stroke-opacity:1" />
  </g>
  <WCB
     application="Axidraw"
     randseed="0"
     pausedposy="0"
     pausedposx="0"
     lastknownposy="0"
     lastknownposx="0"
     lastpathnc="0"
     lastpath="0"
     node="0"
     layer="0" />
</svg>
