<?xml version="1.0" encoding="UTF-8"?>
<svg xmlns="http://www.w3.org/2000/svg" xmlns:xlink="http://www.w3.org/1999/xlink" width="500pt" height="500pt" viewBox="0 0 500 500" version="1.1">
<path style="fill:none;stroke-width:1;stroke-linecap:butt;stroke-linejoin:miter;stroke:rgb(78.431373%,0%,0%);stroke-opacity:1;stroke-miterlimit:10;" d="M -17.600234 17.601393 L 17.600354 17.600073 L 17.599033 -17.600514 L 5.866806 -17.600052 L 5.867664 5.868308 L -5.868402 5.864798 L -5.865421 -17.599589 L -17.601554 -17.599194 Z M -17.600234 17.601393 " transform="matrix(0.999851,-0.017274,0.017274,0.999851,35.547468,29.769081)"/>
<path style="fill:none;stroke-width:1;stroke-linecap:butt;stroke-linejoin:miter;stroke:rgb(78.431373%,0%,0%);stroke-opacity:1;stroke-miterlimit:10;" d="M -17.599797 17.59867 L 17.600723 17.60126 L 17.599407 -17.599328 L 5.86718 -17.598866 L 5.868102 5.865588 L -5.868031 5.865982 L -5.865047 -17.598405 L -17.601113 -17.601917 Z M -17.599797 17.59867 " transform="matrix(0.0172741,0.999851,-0.999851,0.0172741,36.376628,77.761919)"/>
<path style="fill:none;stroke-width:1;stroke-linecap:butt;stroke-linejoin:miter;stroke:rgb(78.431373%,0%,0%);stroke-opacity:1;stroke-miterlimit:10;" d="M -17.598739 17.598303 L 17.601781 17.600894 L 17.600466 -17.599693 L 5.868239 -17.599233 L 5.865254 5.865154 L -5.866973 5.865615 L -5.867894 -17.598839 L -17.600122 -17.598379 Z M -17.598739 17.598303 " transform="matrix(-0.0172742,-0.999851,0.999851,-0.0172742,37.205788,125.754757)"/>
<path style="fill:none;stroke-width:1;stroke-linecap:butt;stroke-linejoin:miter;stroke:rgb(78.431373%,0%,0%);stroke-opacity:1;stroke-miterlimit:10;" d="M -17.598139 17.601185 L 17.598543 17.599803 L 17.601134 -17.600717 L 5.865001 -17.600324 L 5.865855 5.868036 L -5.866372 5.868497 L -5.867226 -17.599863 L -17.599453 -17.599402 Z M -17.598139 17.601185 " transform="matrix(-0.0172742,-0.999851,0.999851,-0.0172742,38.034948,173.747595)"/>
<path style="fill:none;stroke-width:1;stroke-linecap:butt;stroke-linejoin:miter;stroke:rgb(78.431373%,0%,0%);stroke-opacity:1;stroke-miterlimit:10;" d="M -17.600423 17.598788 L 17.600097 17.601373 L 17.598776 -17.599214 L 5.866549 -17.598752 L 5.867474 5.865703 L -5.864753 5.866166 L -5.865678 -17.598289 L -17.601744 -17.601799 Z M -17.600423 17.598788 " transform="matrix(0.999851,-0.017274,0.017274,0.999851,38.864108,221.740433)"/>
<path style="fill:none;stroke-width:1;stroke-linecap:butt;stroke-linejoin:miter;stroke:rgb(78.431373%,0%,0%);stroke-opacity:1;stroke-miterlimit:10;" d="M -17.6011 17.599686 L 17.599488 17.598372 L 17.598106 -17.59831 L 5.865946 -17.601755 L 5.8668 5.866605 L -5.865427 5.867066 L -5.866281 -17.601294 L -17.598509 -17.600834 Z M -17.6011 17.599686 " transform="matrix(-0.0172742,-0.999851,0.999851,-0.0172742,83.540302,28.939921)"/>
<path style="fill:none;stroke-width:1;stroke-linecap:butt;stroke-linejoin:miter;stroke:rgb(78.431373%,0%,0%);stroke-opacity:1;stroke-miterlimit:10;" d="M -17.601922 17.601749 L 17.598665 17.600429 L 17.601251 -17.600091 L 5.865118 -17.599696 L 5.866043 5.864758 L -5.866184 5.865221 L -5.86711 -17.599234 L -17.599337 -17.598771 Z M -17.601922 17.601749 " transform="matrix(0.999851,-0.017274,0.017274,0.999851,84.369462,76.932759)"/>
<path style="fill:none;stroke-width:1;stroke-linecap:butt;stroke-linejoin:miter;stroke:rgb(78.431373%,0%,0%);stroke-opacity:1;stroke-miterlimit:10;" d="M -17.599831 17.601544 L 17.600757 17.60023 L 17.599442 -17.600358 L 5.867215 -17.599897 L 5.868069 5.868463 L -5.867997 5.864951 L -5.865012 -17.599436 L -17.601145 -17.599043 Z M -17.599831 17.601544 " transform="matrix(-0.0172742,-0.999851,0.999851,-0.0172742,85.198622,124.925597)"/>
<path style="fill:none;stroke-width:1;stroke-linecap:butt;stroke-linejoin:miter;stroke:rgb(78.431373%,0%,0%);stroke-opacity:1;stroke-miterlimit:10;" d="M -17.599163 17.600521 L 17.601425 17.599206 L 17.60011 -17.601381 L 5.867883 -17.600921 L 5.864831 5.867372 L -5.867396 5.867833 L -5.86825 -17.600528 L -17.600477 -17.600067 Z M -17.599163 17.600521 " transform="matrix(-0.0172742,-0.999851,0.999851,-0.0172742,86.027782,172.918435)"/>
<path style="fill:none;stroke-width:1;stroke-linecap:butt;stroke-linejoin:miter;stroke:rgb(78.431373%,0%,0%);stroke-opacity:1;stroke-miterlimit:10;" d="M -17.598494 17.599497 L 17.598188 17.598115 L 17.600711 -17.5985 L 5.868484 -17.598039 L 5.8655 5.866348 L -5.866728 5.866809 L -5.867582 -17.601551 L -17.599809 -17.601091 Z M -17.598494 17.599497 " transform="matrix(-0.0172742,-0.999851,0.999851,-0.0172742,86.856942,220.911273)"/>
<path style="fill:none;stroke-width:1;stroke-linecap:butt;stroke-linejoin:miter;stroke:rgb(78.431373%,0%,0%);stroke-opacity:1;stroke-miterlimit:10;" d="M -17.598218 17.599086 L 17.598396 17.601609 L 17.600987 -17.598911 L 5.864855 -17.598518 L 5.865776 5.865937 L -5.866451 5.866398 L -5.867305 -17.601963 L -17.599532 -17.601502 Z M -17.598218 17.599086 " transform="matrix(-0.0172742,-0.999851,0.999851,-0.0172742,131.53314,28.110761)"/>
<path style="fill:none;stroke-width:1;stroke-linecap:butt;stroke-linejoin:miter;stroke:rgb(78.431373%,0%,0%);stroke-opacity:1;stroke-miterlimit:10;" d="M -17.600584 17.599066 L 17.599936 17.601654 L 17.598619 -17.598933 L 5.866391 -17.598471 L 5.867315 5.865983 L -5.864913 5.866445 L -5.865768 -17.601916 L -17.601901 -17.601521 Z M -17.600584 17.599066 " transform="matrix(-0.999851,0.0172741,-0.0172741,-0.999851,132.3623,76.103599)"/>
<path style="fill:none;stroke-width:1;stroke-linecap:butt;stroke-linejoin:miter;stroke:rgb(78.431373%,0%,0%);stroke-opacity:1;stroke-miterlimit:10;" d="M -17.59956 17.599734 L 17.601027 17.598417 L 17.599642 -17.598265 L 5.867483 -17.601709 L 5.868338 5.866651 L -5.867795 5.867045 L -5.864745 -17.601247 L -17.600878 -17.600853 Z M -17.59956 17.599734 " transform="matrix(-0.999851,0.0172741,-0.0172741,-0.999851,133.19146,124.096437)"/>
<path style="fill:none;stroke-width:1;stroke-linecap:butt;stroke-linejoin:miter;stroke:rgb(78.431373%,0%,0%);stroke-opacity:1;stroke-miterlimit:10;" d="M -17.600186 17.599852 L 17.600401 17.598538 L 17.599019 -17.598144 L 5.866859 -17.601589 L 5.867713 5.866771 L -5.86842 5.867164 L -5.865368 -17.601128 L -17.601501 -17.600735 Z M -17.600186 17.599852 " transform="matrix(-0.0172742,-0.999851,0.999851,-0.0172742,134.02062,172.089275)"/>
<path style="fill:none;stroke-width:1;stroke-linecap:butt;stroke-linejoin:miter;stroke:rgb(78.431373%,0%,0%);stroke-opacity:1;stroke-miterlimit:10;" d="M -17.599518 17.598829 L 17.601002 17.60142 L 17.599687 -17.599168 L 5.86746 -17.598707 L 5.868381 5.865747 L -5.867752 5.866141 L -5.864767 -17.598246 L -17.600833 -17.601759 Z M -17.599518 17.598829 " transform="matrix(-0.0172742,-0.999851,0.999851,-0.0172742,134.84978,220.082113)"/>
<path style="fill:none;stroke-width:1;stroke-linecap:butt;stroke-linejoin:miter;stroke:rgb(78.431373%,0%,0%);stroke-opacity:1;stroke-miterlimit:10;" d="M -17.599242 17.598417 L 17.601278 17.601008 L 17.599964 -17.599579 L 5.867736 -17.599118 L 5.864752 5.865269 L -5.867475 5.865729 L -5.868397 -17.598725 L -17.600624 -17.598264 Z M -17.599242 17.598417 " transform="matrix(-0.0172742,-0.999851,0.999851,-0.0172742,179.525978,27.281601)"/>
<path style="fill:none;stroke-width:1;stroke-linecap:butt;stroke-linejoin:miter;stroke:rgb(78.431373%,0%,0%);stroke-opacity:1;stroke-miterlimit:10;" d="M -17.598641 17.601299 L 17.601947 17.599985 L 17.600632 -17.600603 L 5.868405 -17.600142 L 5.865353 5.868151 L -5.866874 5.868611 L -5.867728 -17.599749 L -17.599956 -17.599288 Z M -17.598641 17.601299 " transform="matrix(-0.0172742,-0.999851,0.999851,-0.0172742,180.355138,75.274439)"/>
<path style="fill:none;stroke-width:1;stroke-linecap:butt;stroke-linejoin:miter;stroke:rgb(78.431373%,0%,0%);stroke-opacity:1;stroke-miterlimit:10;" d="M -17.598892 17.59871 L 17.601628 17.601299 L 17.600311 -17.599289 L 5.868083 -17.598827 L 5.865101 5.86556 L -5.867126 5.866022 L -5.86805 -17.598433 L -17.600209 -17.601877 Z M -17.598892 17.59871 " transform="matrix(-0.999851,0.0172741,-0.0172741,-0.999851,181.184298,123.267277)"/>
<path style="fill:none;stroke-width:1;stroke-linecap:butt;stroke-linejoin:miter;stroke:rgb(78.431373%,0%,0%);stroke-opacity:1;stroke-miterlimit:10;" d="M -17.601333 17.598622 L 17.599187 17.601207 L 17.601772 -17.599313 L 5.865639 -17.598918 L 5.866565 5.865537 L -5.865663 5.866 L -5.866588 -17.598455 L -17.598748 -17.601898 Z M -17.601333 17.598622 " transform="matrix(0.999851,-0.017274,0.017274,0.999851,182.013458,171.260115)"/>
<path style="fill:none;stroke-width:1;stroke-linecap:butt;stroke-linejoin:miter;stroke:rgb(78.431373%,0%,0%);stroke-opacity:1;stroke-miterlimit:10;" d="M -17.60075 17.599979 L 17.599837 17.598662 L 17.59852 -17.601925 L 5.866293 -17.601464 L 5.867149 5.866896 L -5.865079 5.867358 L -5.865934 -17.601002 L -17.598162 -17.600541 Z M -17.60075 17.599979 " transform="matrix(-0.999851,0.0172741,-0.0172741,-0.999851,182.842618,219.252953)"/>
<path style="fill:none;stroke-width:1;stroke-linecap:butt;stroke-linejoin:miter;stroke:rgb(78.431373%,0%,0%);stroke-opacity:1;stroke-miterlimit:10;" d="M -17.600339 17.600256 L 17.600249 17.598939 L 17.598931 -17.601649 L 5.866704 -17.601187 L 5.86756 5.867173 L -5.868573 5.867567 L -5.865523 -17.600726 L -17.601656 -17.600332 Z M -17.600339 17.600256 " transform="matrix(-0.999851,0.0172741,-0.0172741,-0.999851,227.518816,26.452441)"/>
<path style="fill:none;stroke-width:1;stroke-linecap:butt;stroke-linejoin:miter;stroke:rgb(78.431373%,0%,0%);stroke-opacity:1;stroke-miterlimit:10;" d="M -17.599315 17.600924 L 17.601272 17.599607 L 17.599955 -17.600981 L 5.867728 -17.600519 L 5.868584 5.867841 L -5.867549 5.868235 L -5.868405 -17.600125 L -17.600632 -17.599663 Z M -17.599315 17.600924 " transform="matrix(-0.999851,0.0172741,-0.0172741,-0.999851,228.347976,74.445279)"/>
<path style="fill:none;stroke-width:1;stroke-linecap:butt;stroke-linejoin:miter;stroke:rgb(78.431373%,0%,0%);stroke-opacity:1;stroke-miterlimit:10;" d="M -17.600977 17.600314 L 17.59961 17.598994 L 17.59829 -17.601594 L 5.866062 -17.601131 L 5.86692 5.867229 L -5.865307 5.867692 L -5.866165 -17.600669 L -17.598392 -17.600206 Z M -17.600977 17.600314 " transform="matrix(0.999851,-0.017274,0.017274,0.999851,229.177136,122.438117)"/>
<path style="fill:none;stroke-width:1;stroke-linecap:butt;stroke-linejoin:miter;stroke:rgb(78.431373%,0%,0%);stroke-opacity:1;stroke-miterlimit:10;" d="M -17.598328 17.598583 L 17.598286 17.601107 L 17.600877 -17.599413 L 5.864744 -17.59902 L 5.865666 5.865435 L -5.866562 5.865895 L -5.867483 -17.598559 L -17.59971 -17.598098 Z M -17.598328 17.598583 " transform="matrix(-0.0172742,-0.999851,0.999851,-0.0172742,230.006296,170.430955)"/>
<path style="fill:none;stroke-width:1;stroke-linecap:butt;stroke-linejoin:miter;stroke:rgb(78.431373%,0%,0%);stroke-opacity:1;stroke-miterlimit:10;" d="M -17.601633 17.601398 L 17.598954 17.600083 L 17.601545 -17.600437 L 5.865412 -17.600044 L 5.866266 5.868317 L -5.865893 5.864872 L -5.866815 -17.599583 L -17.599042 -17.599122 Z M -17.601633 17.601398 " transform="matrix(-0.0172742,-0.999851,0.999851,-0.0172742,230.835456,218.423793)"/>
<path style="fill:none;stroke-width:1;stroke-linecap:butt;stroke-linejoin:miter;stroke:rgb(78.431373%,0%,0%);stroke-opacity:1;stroke-miterlimit:10;" d="M -17.599531 17.598769 L 17.600989 17.601354 L 17.599669 -17.599234 L 5.867442 -17.598771 L 5.868367 5.865684 L -5.867766 5.866079 L -5.864785 -17.598308 L -17.600851 -17.601819 Z M -17.599531 17.598769 " transform="matrix(0.999851,-0.017274,0.017274,0.999851,275.511653,25.623281)"/>
<path style="fill:none;stroke-width:1;stroke-linecap:butt;stroke-linejoin:miter;stroke:rgb(78.431373%,0%,0%);stroke-opacity:1;stroke-miterlimit:10;" d="M -17.598584 17.60194 L 17.598098 17.600557 L 17.600688 -17.599963 L 5.868461 -17.599502 L 5.865477 5.864885 L -5.86675 5.865346 L -5.867672 -17.599109 L -17.5999 -17.598648 Z M -17.598584 17.60194 " transform="matrix(0.0172741,0.999851,-0.999851,0.0172741,276.340814,73.616119)"/>
<path style="fill:none;stroke-width:1;stroke-linecap:butt;stroke-linejoin:miter;stroke:rgb(78.431373%,0%,0%);stroke-opacity:1;stroke-miterlimit:10;" d="M -17.60002 17.598939 L 17.6005 17.60153 L 17.599185 -17.599057 L 5.866958 -17.598597 L 5.867879 5.865858 L -5.868254 5.866251 L -5.865269 -17.598136 L -17.601335 -17.601648 Z M -17.60002 17.598939 " transform="matrix(-0.0172742,-0.999851,0.999851,-0.0172742,277.169974,121.608956)"/>
<path style="fill:none;stroke-width:1;stroke-linecap:butt;stroke-linejoin:miter;stroke:rgb(78.431373%,0%,0%);stroke-opacity:1;stroke-miterlimit:10;" d="M -17.59942 17.601821 L 17.601168 17.600506 L 17.599853 -17.600081 L 5.867626 -17.599621 L 5.868547 5.864834 L -5.867585 5.865227 L -5.868507 -17.599227 L -17.600734 -17.598767 Z M -17.59942 17.601821 " transform="matrix(-0.0172742,-0.999851,0.999851,-0.0172742,277.999134,169.601794)"/>
<path style="fill:none;stroke-width:1;stroke-linecap:butt;stroke-linejoin:miter;stroke:rgb(78.431373%,0%,0%);stroke-opacity:1;stroke-miterlimit:10;" d="M -17.598751 17.600797 L 17.601836 17.599482 L 17.600522 -17.601105 L 5.868294 -17.600644 L 5.865243 5.867648 L -5.866985 5.868109 L -5.867839 -17.600251 L -17.600066 -17.59979 Z M -17.598751 17.600797 " transform="matrix(-0.0172742,-0.999851,0.999851,-0.0172742,278.828294,217.594632)"/>
<path style="fill:none;stroke-width:1;stroke-linecap:butt;stroke-linejoin:miter;stroke:rgb(78.431373%,0%,0%);stroke-opacity:1;stroke-miterlimit:10;" d="M -17.599002 17.598208 L 17.601518 17.600797 L 17.6002 -17.599791 L 5.867973 -17.599329 L 5.864991 5.865058 L -5.867237 5.865519 L -5.86816 -17.598935 L -17.600387 -17.598474 Z M -17.599002 17.598208 " transform="matrix(-0.999851,0.0172741,-0.0172741,-0.999851,323.504491,24.79412)"/>
<path style="fill:none;stroke-width:1;stroke-linecap:butt;stroke-linejoin:miter;stroke:rgb(78.431373%,0%,0%);stroke-opacity:1;stroke-miterlimit:10;" d="M -17.601712 17.599295 L 17.598808 17.601886 L 17.601399 -17.598634 L 5.865266 -17.598241 L 5.866187 5.866213 L -5.86604 5.866674 L -5.866894 -17.601686 L -17.599121 -17.601225 Z M -17.601712 17.599295 " transform="matrix(-0.0172742,-0.999851,0.999851,-0.0172742,324.333652,72.786958)"/>
<path style="fill:none;stroke-width:1;stroke-linecap:butt;stroke-linejoin:miter;stroke:rgb(78.431373%,0%,0%);stroke-opacity:1;stroke-miterlimit:10;" d="M -17.60086 17.599477 L 17.599727 17.59816 L 17.598342 -17.598522 L 5.866115 -17.59806 L 5.867038 5.866394 L -5.865189 5.866856 L -5.866045 -17.601504 L -17.598272 -17.601043 Z M -17.60086 17.599477 " transform="matrix(-0.999851,0.0172741,-0.0172741,-0.999851,325.162812,120.779796)"/>
<path style="fill:none;stroke-width:1;stroke-linecap:butt;stroke-linejoin:miter;stroke:rgb(78.431373%,0%,0%);stroke-opacity:1;stroke-miterlimit:10;" d="M -17.598829 17.60075 L 17.601759 17.599434 L 17.600443 -17.601153 L 5.868215 -17.600692 L 5.865165 5.867601 L -5.867063 5.868062 L -5.867917 -17.600299 L -17.600145 -17.599837 Z M -17.598829 17.60075 " transform="matrix(0.0172741,0.999851,-0.999851,0.0172741,325.991972,168.772634)"/>
<path style="fill:none;stroke-width:1;stroke-linecap:butt;stroke-linejoin:miter;stroke:rgb(78.431373%,0%,0%);stroke-opacity:1;stroke-miterlimit:10;" d="M -17.600456 17.601093 L 17.600132 17.599772 L 17.598811 -17.600815 L 5.866584 -17.600353 L 5.867442 5.868008 L -5.864785 5.86847 L -5.865643 -17.59989 L -17.601776 -17.599495 Z M -17.600456 17.601093 " transform="matrix(0.999851,-0.017274,0.017274,0.999851,326.821132,216.765472)"/>
<path style="fill:none;stroke-width:1;stroke-linecap:butt;stroke-linejoin:miter;stroke:rgb(78.431373%,0%,0%);stroke-opacity:1;stroke-miterlimit:10;" d="M -17.599706 17.598279 L 17.600814 17.600869 L 17.599498 -17.599718 L 5.867271 -17.599257 L 5.868193 5.865197 L -5.86794 5.865591 L -5.864956 -17.598796 L -17.601089 -17.598402 Z M -17.599706 17.598279 " transform="matrix(0.0172741,0.999851,-0.999851,0.0172741,371.497329,23.96496)"/>
<path style="fill:none;stroke-width:1;stroke-linecap:butt;stroke-linejoin:miter;stroke:rgb(78.431373%,0%,0%);stroke-opacity:1;stroke-miterlimit:10;" d="M -17.601284 17.601691 L 17.599304 17.600374 L 17.601892 -17.600146 L 5.865759 -17.599752 L 5.866615 5.868608 L -5.865545 5.865164 L -5.866468 -17.599291 L -17.598695 -17.598829 Z M -17.601284 17.601691 " transform="matrix(-0.999851,0.0172741,-0.0172741,-0.999851,372.32649,71.957798)"/>
<path style="fill:none;stroke-width:1;stroke-linecap:butt;stroke-linejoin:miter;stroke:rgb(78.431373%,0%,0%);stroke-opacity:1;stroke-miterlimit:10;" d="M -17.59823 17.601576 L 17.598452 17.600194 L 17.601043 -17.600326 L 5.86491 -17.599933 L 5.865764 5.868427 L -5.866396 5.864982 L -5.867317 -17.599472 L -17.599544 -17.599012 Z M -17.59823 17.601576 " transform="matrix(-0.0172742,-0.999851,0.999851,-0.0172742,373.15565,119.950636)"/>
<path style="fill:none;stroke-width:1;stroke-linecap:butt;stroke-linejoin:miter;stroke:rgb(78.431373%,0%,0%);stroke-opacity:1;stroke-miterlimit:10;" d="M -17.599168 17.599122 L 17.601352 17.60171 L 17.600034 -17.598877 L 5.867807 -17.598416 L 5.864824 5.865971 L -5.867403 5.866433 L -5.868259 -17.601927 L -17.600486 -17.601466 Z M -17.599168 17.599122 " transform="matrix(-0.999851,0.0172741,-0.0172741,-0.999851,373.98481,167.943474)"/>
<path style="fill:none;stroke-width:1;stroke-linecap:butt;stroke-linejoin:miter;stroke:rgb(78.431373%,0%,0%);stroke-opacity:1;stroke-miterlimit:10;" d="M -17.598145 17.59979 L 17.598537 17.598405 L 17.601058 -17.598209 L 5.864993 -17.601721 L 5.865848 5.866639 L -5.866379 5.867101 L -5.867235 -17.601259 L -17.599462 -17.600798 Z M -17.598145 17.59979 " transform="matrix(-0.999851,0.0172741,-0.0172741,-0.999851,374.81397,215.936312)"/>
<path style="fill:none;stroke-width:1;stroke-linecap:butt;stroke-linejoin:miter;stroke:rgb(78.431373%,0%,0%);stroke-opacity:1;stroke-miterlimit:10;" d="M -17.598682 17.598948 L 17.601838 17.601537 L 17.600522 -17.59905 L 5.868295 -17.598589 L 5.865311 5.865798 L -5.866916 5.866259 L -5.867838 -17.598195 L -17.599998 -17.60164 Z M -17.598682 17.598948 " transform="matrix(0.0172741,0.999851,-0.999851,0.0172741,419.490167,23.1358)"/>
<path style="fill:none;stroke-width:1;stroke-linecap:butt;stroke-linejoin:miter;stroke:rgb(78.431373%,0%,0%);stroke-opacity:1;stroke-miterlimit:10;" d="M -17.599351 17.599971 L 17.601237 17.598656 L 17.599921 -17.601932 L 5.867694 -17.601471 L 5.868549 5.866889 L -5.867584 5.867283 L -5.868439 -17.601077 L -17.600666 -17.600616 Z M -17.599351 17.599971 " transform="matrix(0.0172741,0.999851,-0.999851,0.0172741,420.319327,71.128638)"/>
<path style="fill:none;stroke-width:1;stroke-linecap:butt;stroke-linejoin:miter;stroke:rgb(78.431373%,0%,0%);stroke-opacity:1;stroke-miterlimit:10;" d="M -17.599253 17.600907 L 17.601334 17.599593 L 17.600019 -17.600995 L 5.867792 -17.600534 L 5.86474 5.867759 L -5.867487 5.86822 L -5.868341 -17.600141 L -17.600568 -17.59968 Z M -17.599253 17.600907 " transform="matrix(-0.0172742,-0.999851,0.999851,-0.0172742,421.148488,119.121476)"/>
<path style="fill:none;stroke-width:1;stroke-linecap:butt;stroke-linejoin:miter;stroke:rgb(78.431373%,0%,0%);stroke-opacity:1;stroke-miterlimit:10;" d="M -17.600701 17.599903 L 17.599887 17.598582 L 17.598499 -17.598099 L 5.866339 -17.601542 L 5.867197 5.866818 L -5.865031 5.86728 L -5.865888 -17.60108 L -17.598116 -17.600617 Z M -17.600701 17.599903 " transform="matrix(0.999851,-0.017274,0.017274,0.999851,421.977648,167.114314)"/>
<path style="fill:none;stroke-width:1;stroke-linecap:butt;stroke-linejoin:miter;stroke:rgb(78.431373%,0%,0%);stroke-opacity:1;stroke-miterlimit:10;" d="M -17.601823 17.598792 L 17.598697 17.601383 L 17.601288 -17.599137 L 5.865155 -17.598743 L 5.866077 5.865711 L -5.86615 5.866172 L -5.867072 -17.598283 L -17.599232 -17.601728 Z M -17.601823 17.598792 " transform="matrix(-0.0172742,-0.999851,0.999851,-0.0172742,422.806808,215.107152)"/>
<path style="fill:none;stroke-width:1;stroke-linecap:butt;stroke-linejoin:miter;stroke:rgb(78.431373%,0%,0%);stroke-opacity:1;stroke-miterlimit:10;" d="M -17.600971 17.598975 L 17.599549 17.601563 L 17.598232 -17.599024 L 5.866005 -17.598562 L 5.866928 5.865892 L -5.8653 5.866354 L -5.866223 -17.598101 L -17.598383 -17.601545 Z M -17.600971 17.598975 " transform="matrix(-0.999851,0.0172741,-0.0172741,-0.999851,467.483005,22.30664)"/>
<path style="fill:none;stroke-width:1;stroke-linecap:butt;stroke-linejoin:miter;stroke:rgb(78.431373%,0%,0%);stroke-opacity:1;stroke-miterlimit:10;" d="M -17.598327 17.60064 L 17.598355 17.599256 L 17.600945 -17.601264 L 5.864812 -17.60087 L 5.865667 5.86749 L -5.866561 5.867951 L -5.867415 -17.600409 L -17.599643 -17.599948 Z M -17.598327 17.60064 " transform="matrix(0.0172741,0.999851,-0.999851,0.0172741,468.312165,70.299478)"/>
<path style="fill:none;stroke-width:1;stroke-linecap:butt;stroke-linejoin:miter;stroke:rgb(78.431373%,0%,0%);stroke-opacity:1;stroke-miterlimit:10;" d="M -17.598923 17.600312 L 17.601664 17.598994 L 17.600347 -17.601593 L 5.86812 -17.601132 L 5.86507 5.867161 L -5.867158 5.867623 L -5.868013 -17.600738 L -17.600241 -17.600276 Z M -17.598923 17.600312 " transform="matrix(-0.999851,0.0172741,-0.0172741,-0.999851,469.141326,118.292316)"/>
<path style="fill:none;stroke-width:1;stroke-linecap:butt;stroke-linejoin:miter;stroke:rgb(78.431373%,0%,0%);stroke-opacity:1;stroke-miterlimit:10;" d="M -17.599609 17.599215 L 17.600911 17.601806 L 17.599596 -17.598781 L 5.867369 -17.59832 L 5.86829 5.866134 L -5.867842 5.866527 L -5.864791 -17.601765 L -17.600924 -17.601372 Z M -17.599609 17.599215 " transform="matrix(-0.0172742,-0.999851,0.999851,-0.0172742,469.970486,166.285154)"/>
<path style="fill:none;stroke-width:1;stroke-linecap:butt;stroke-linejoin:miter;stroke:rgb(78.431373%,0%,0%);stroke-opacity:1;stroke-miterlimit:10;" d="M -17.600781 17.601581 L 17.599806 17.600263 L 17.598489 -17.600324 L 5.866262 -17.599863 L 5.867117 5.868498 L -5.865043 5.865053 L -5.865966 -17.599401 L -17.598193 -17.598939 Z M -17.600781 17.601581 " transform="matrix(-0.999851,0.0172741,-0.0172741,-0.999851,470.799646,214.277992)"/>
<path style="fill:none;stroke-width:1;stroke-linecap:butt;stroke-linejoin:miter;stroke:rgb(78.431373%,0%,0%);stroke-opacity:1;stroke-miterlimit:10;" d="M -17.59991 17.59807 L 17.601307 17.598235 L 17.601429 -17.599076 L 5.866388 -17.599144 L 5.866293 5.867031 L -5.864842 5.867004 L -5.864746 -17.599171 L -17.599787 -17.59924 Z M -17.59991 17.59807 " transform="matrix(-0.999943,0.0106577,-0.0106577,-0.999943,36.893333,277.440896)"/>
<path style="fill:none;stroke-width:1;stroke-linecap:butt;stroke-linejoin:miter;stroke:rgb(78.431373%,0%,0%);stroke-opacity:1;stroke-miterlimit:10;" d="M -17.598066 17.599943 L 17.599244 17.600068 L 17.599411 -17.601148 L 5.868276 -17.601176 L 5.868179 5.865 L -5.866862 5.86493 L -5.866765 -17.601245 L -17.601806 -17.601315 Z M -17.598066 17.599943 " transform="matrix(-0.0106578,-0.999943,0.999943,-0.0106578,37.404907,325.438166)"/>
<path style="fill:none;stroke-width:1;stroke-linecap:butt;stroke-linejoin:miter;stroke:rgb(78.431373%,0%,0%);stroke-opacity:1;stroke-miterlimit:10;" d="M -17.600794 17.600059 L 17.600422 17.600226 L 17.600589 -17.600991 L 5.865548 -17.60106 L 5.865451 5.865115 L -5.865684 5.865087 L -5.865586 -17.601088 L -17.600627 -17.601158 Z M -17.600794 17.600059 " transform="matrix(-0.0106578,-0.999943,0.999943,-0.0106578,37.916481,373.435439)"/>
<path style="fill:none;stroke-width:1;stroke-linecap:butt;stroke-linejoin:miter;stroke:rgb(78.431373%,0%,0%);stroke-opacity:1;stroke-miterlimit:10;" d="M -17.599616 17.600216 L 17.601601 17.600383 L 17.601768 -17.600833 L 5.866727 -17.600903 L 5.866629 5.865273 L -5.868411 5.865203 L -5.868314 -17.600972 L -17.599449 -17.601 Z M -17.599616 17.600216 " transform="matrix(-0.0106578,-0.999943,0.999943,-0.0106578,38.428055,421.432713)"/>
<path style="fill:none;stroke-width:1;stroke-linecap:butt;stroke-linejoin:miter;stroke:rgb(78.431373%,0%,0%);stroke-opacity:1;stroke-miterlimit:10;" d="M -17.598437 17.600373 L 17.598873 17.600498 L 17.59904 -17.600718 L 5.867905 -17.600746 L 5.867808 5.86543 L -5.867233 5.86536 L -5.867136 -17.600815 L -17.59827 -17.600843 Z M -17.598437 17.600373 " transform="matrix(-0.0106578,-0.999943,0.999943,-0.0106578,38.939629,469.429987)"/>
<path style="fill:none;stroke-width:1;stroke-linecap:butt;stroke-linejoin:miter;stroke:rgb(78.431373%,0%,0%);stroke-opacity:1;stroke-miterlimit:10;" d="M -17.598351 17.598578 L 17.598959 17.598702 L 17.599083 -17.598608 L 5.867948 -17.598635 L 5.867852 5.86754 L -5.867189 5.867471 L -5.867092 -17.598704 L -17.598227 -17.598732 Z M -17.598351 17.598578 " transform="matrix(0.0106577,0.999943,-0.999943,0.0106577,84.890606,276.929322)"/>
<path style="fill:none;stroke-width:1;stroke-linecap:butt;stroke-linejoin:miter;stroke:rgb(78.431373%,0%,0%);stroke-opacity:1;stroke-miterlimit:10;" d="M -17.598587 17.60169 L 17.598723 17.601815 L 17.59889 -17.599401 L 5.867755 -17.599429 L 5.867658 5.866747 L -5.867383 5.866677 L -5.867286 -17.599499 L -17.59842 -17.599527 Z M -17.598587 17.60169 " transform="matrix(0.999943,-0.0106578,0.0106578,0.999943,85.40218,324.926592)"/>
<path style="fill:none;stroke-width:1;stroke-linecap:butt;stroke-linejoin:miter;stroke:rgb(78.431373%,0%,0%);stroke-opacity:1;stroke-miterlimit:10;" d="M -17.599046 17.600581 L 17.598264 17.600703 L 17.598429 -17.600513 L 5.867294 -17.60054 L 5.867198 5.865636 L -5.867842 5.865567 L -5.867747 -17.600608 L -17.598882 -17.600635 Z M -17.599046 17.600581 " transform="matrix(-0.999943,0.0106577,-0.0106577,-0.999943,85.913754,372.923865)"/>
<path style="fill:none;stroke-width:1;stroke-linecap:butt;stroke-linejoin:miter;stroke:rgb(78.431373%,0%,0%);stroke-opacity:1;stroke-miterlimit:10;" d="M -17.601883 17.598106 L 17.599334 17.598272 L 17.599458 -17.599038 L 5.868323 -17.599066 L 5.868226 5.86711 L -5.866814 5.867041 L -5.866718 -17.599135 L -17.601759 -17.599204 Z M -17.601883 17.598106 " transform="matrix(0.0106577,0.999943,-0.999943,0.0106577,86.425328,420.921139)"/>
<path style="fill:none;stroke-width:1;stroke-linecap:butt;stroke-linejoin:miter;stroke:rgb(78.431373%,0%,0%);stroke-opacity:1;stroke-miterlimit:10;" d="M -17.599197 17.601897 L 17.598155 17.598115 L 17.598279 -17.599195 L 5.867145 -17.599223 L 5.867048 5.866953 L -5.867993 5.866884 L -5.867896 -17.599292 L -17.599031 -17.599319 Z M -17.599197 17.601897 " transform="matrix(0.0106577,0.999943,-0.999943,0.0106577,86.936902,468.918413)"/>
<path style="fill:none;stroke-width:1;stroke-linecap:butt;stroke-linejoin:miter;stroke:rgb(78.431373%,0%,0%);stroke-opacity:1;stroke-miterlimit:10;" d="M -17.599889 17.598801 L 17.601327 17.598968 L 17.601453 -17.598342 L 5.866412 -17.598412 L 5.866314 5.867764 L -5.86482 5.867736 L -5.868629 -17.598481 L -17.599764 -17.598509 Z M -17.599889 17.598801 " transform="matrix(0.999943,-0.0106578,0.0106578,0.999943,132.887888,276.417748)"/>
<path style="fill:none;stroke-width:1;stroke-linecap:butt;stroke-linejoin:miter;stroke:rgb(78.431373%,0%,0%);stroke-opacity:1;stroke-miterlimit:10;" d="M -17.6017 17.601443 L 17.599517 17.60161 L 17.599684 -17.599607 L 5.868549 -17.599634 L 5.868451 5.866541 L -5.866589 5.866472 L -5.866492 -17.599704 L -17.601533 -17.599773 Z M -17.6017 17.601443 " transform="matrix(-0.0106578,-0.999943,0.999943,-0.0106578,133.399462,324.415018)"/>
<path style="fill:none;stroke-width:1;stroke-linecap:butt;stroke-linejoin:miter;stroke:rgb(78.431373%,0%,0%);stroke-opacity:1;stroke-miterlimit:10;" d="M -17.599616 17.600354 L 17.6016 17.600521 L 17.601767 -17.600695 L 5.866726 -17.600765 L 5.866629 5.865411 L -5.868412 5.865341 L -5.868314 -17.600834 L -17.599449 -17.600862 Z M -17.599616 17.600354 " transform="matrix(0.999943,-0.0106578,0.0106578,0.999943,133.911036,372.412291)"/>
<path style="fill:none;stroke-width:1;stroke-linecap:butt;stroke-linejoin:miter;stroke:rgb(78.431373%,0%,0%);stroke-opacity:1;stroke-miterlimit:10;" d="M -17.599459 17.599176 L 17.601757 17.599343 L 17.601925 -17.601873 L 5.866884 -17.601943 L 5.866745 5.868138 L -5.868296 5.868069 L -5.868199 -17.598107 L -17.599333 -17.598135 Z M -17.599459 17.599176 " transform="matrix(0.999943,-0.0106578,0.0106578,0.999943,134.42261,420.409565)"/>
<path style="fill:none;stroke-width:1;stroke-linecap:butt;stroke-linejoin:miter;stroke:rgb(78.431373%,0%,0%);stroke-opacity:1;stroke-miterlimit:10;" d="M -17.598133 17.599189 L 17.599178 17.599312 L 17.599342 -17.601905 L 5.868207 -17.601932 L 5.86807 5.86815 L -5.866971 5.868081 L -5.866875 -17.598094 L -17.601916 -17.598163 Z M -17.598133 17.599189 " transform="matrix(-0.999943,0.0106577,-0.0106577,-0.999943,134.934184,468.406839)"/>
<path style="fill:none;stroke-width:1;stroke-linecap:butt;stroke-linejoin:miter;stroke:rgb(78.431373%,0%,0%);stroke-opacity:1;stroke-miterlimit:10;" d="M -17.598666 17.600928 L 17.598645 17.601052 L 17.59881 -17.600165 L 5.867676 -17.600192 L 5.867579 5.865983 L -5.867462 5.865914 L -5.867365 -17.600261 L -17.5985 -17.600289 Z M -17.598666 17.600928 " transform="matrix(0.0106577,0.999943,-0.999943,0.0106577,180.885146,275.906174)"/>
<path style="fill:none;stroke-width:1;stroke-linecap:butt;stroke-linejoin:miter;stroke:rgb(78.431373%,0%,0%);stroke-opacity:1;stroke-miterlimit:10;" d="M -17.600445 17.599675 L 17.600771 17.59984 L 17.600935 -17.601377 L 5.865894 -17.601445 L 5.865799 5.86473 L -5.865377 5.868609 L -5.86524 -17.601472 L -17.600281 -17.601541 Z M -17.600445 17.599675 " transform="matrix(-0.999943,0.0106577,-0.0106577,-0.999943,181.39672,323.903444)"/>
<path style="fill:none;stroke-width:1;stroke-linecap:butt;stroke-linejoin:miter;stroke:rgb(78.431373%,0%,0%);stroke-opacity:1;stroke-miterlimit:10;" d="M -17.601019 17.600613 L 17.600198 17.600779 L 17.600363 -17.600438 L 5.865322 -17.600507 L 5.865226 5.865669 L -5.865909 5.865641 L -5.865812 -17.600534 L -17.600853 -17.600603 Z M -17.601019 17.600613 " transform="matrix(0.0106577,0.999943,-0.999943,0.0106577,181.908294,371.900717)"/>
<path style="fill:none;stroke-width:1;stroke-linecap:butt;stroke-linejoin:miter;stroke:rgb(78.431373%,0%,0%);stroke-opacity:1;stroke-miterlimit:10;" d="M -17.600718 17.598126 L 17.600498 17.59829 L 17.600621 -17.59902 L 5.86558 -17.599088 L 5.865484 5.867087 L -5.86565 5.86706 L -5.865555 -17.599115 L -17.600596 -17.599184 Z M -17.600718 17.598126 " transform="matrix(-0.999943,0.0106577,-0.0106577,-0.999943,182.419868,419.897991)"/>
<path style="fill:none;stroke-width:1;stroke-linecap:butt;stroke-linejoin:miter;stroke:rgb(78.431373%,0%,0%);stroke-opacity:1;stroke-miterlimit:10;" d="M -17.59947 17.60034 L 17.601747 17.600506 L 17.601912 -17.600711 L 5.866872 -17.60078 L 5.866775 5.865396 L -5.868266 5.865327 L -5.868169 -17.600849 L -17.599304 -17.600876 Z M -17.59947 17.60034 " transform="matrix(0.0106577,0.999943,-0.999943,0.0106577,182.931442,467.895265)"/>
<path style="fill:none;stroke-width:1;stroke-linecap:butt;stroke-linejoin:miter;stroke:rgb(78.431373%,0%,0%);stroke-opacity:1;stroke-miterlimit:10;" d="M -17.598781 17.5982 L 17.598529 17.598324 L 17.598653 -17.598986 L 5.867518 -17.599014 L 5.867422 5.867162 L -5.867619 5.867093 L -5.867523 -17.599083 L -17.598657 -17.59911 Z M -17.598781 17.5982 " transform="matrix(0.0106577,0.999943,-0.999943,0.0106577,228.88242,275.3946)"/>
<path style="fill:none;stroke-width:1;stroke-linecap:butt;stroke-linejoin:miter;stroke:rgb(78.431373%,0%,0%);stroke-opacity:1;stroke-miterlimit:10;" d="M -17.599998 17.601949 L 17.60126 17.598208 L 17.601384 -17.599102 L 5.866344 -17.599171 L 5.866247 5.867005 L -5.864888 5.866977 L -5.864791 -17.599198 L -17.599832 -17.599268 Z M -17.599998 17.601949 " transform="matrix(0.0106577,0.999943,-0.999943,0.0106577,229.393994,323.39187)"/>
<path style="fill:none;stroke-width:1;stroke-linecap:butt;stroke-linejoin:miter;stroke:rgb(78.431373%,0%,0%);stroke-opacity:1;stroke-miterlimit:10;" d="M -17.599424 17.601011 L 17.601792 17.601175 L 17.59805 -17.600083 L 5.866916 -17.60011 L 5.86682 5.866066 L -5.868221 5.865997 L -5.868125 -17.600178 L -17.59926 -17.600205 Z M -17.599424 17.601011 " transform="matrix(-0.999943,0.0106577,-0.0106577,-0.999943,229.905568,371.389143)"/>
<path style="fill:none;stroke-width:1;stroke-linecap:butt;stroke-linejoin:miter;stroke:rgb(78.431373%,0%,0%);stroke-opacity:1;stroke-miterlimit:10;" d="M -17.59954 17.598283 L 17.601677 17.598448 L 17.601799 -17.598863 L 5.866758 -17.598931 L 5.866663 5.867244 L -5.868378 5.867176 L -5.868282 -17.599 L -17.599417 -17.599027 Z M -17.59954 17.598283 " transform="matrix(-0.999943,0.0106577,-0.0106577,-0.999943,230.417142,419.386417)"/>
<path style="fill:none;stroke-width:1;stroke-linecap:butt;stroke-linejoin:miter;stroke:rgb(78.431373%,0%,0%);stroke-opacity:1;stroke-miterlimit:10;" d="M -17.599627 17.601518 L 17.601589 17.601684 L 17.601755 -17.599532 L 5.866714 -17.599601 L 5.866618 5.866574 L -5.868423 5.866505 L -5.868326 -17.59967 L -17.599461 -17.599698 Z M -17.599627 17.601518 " transform="matrix(0.0106577,0.999943,-0.999943,0.0106577,230.928716,467.383691)"/>
<path style="fill:none;stroke-width:1;stroke-linecap:butt;stroke-linejoin:miter;stroke:rgb(78.431373%,0%,0%);stroke-opacity:1;stroke-miterlimit:10;" d="M -17.599488 17.598371 L 17.601728 17.598538 L 17.601854 -17.598772 L 5.866813 -17.598842 L 5.866716 5.867334 L -5.868325 5.867264 L -5.868228 -17.598911 L -17.599362 -17.598939 Z M -17.599488 17.598371 " transform="matrix(0.999943,-0.0106578,0.0106578,0.999943,276.879679,274.883026)"/>
<path style="fill:none;stroke-width:1;stroke-linecap:butt;stroke-linejoin:miter;stroke:rgb(78.431373%,0%,0%);stroke-opacity:1;stroke-miterlimit:10;" d="M -17.601269 17.601844 L 17.599989 17.598105 L 17.600114 -17.599205 L 5.865073 -17.599275 L 5.864976 5.866901 L -5.866159 5.866873 L -5.866062 -17.599303 L -17.601102 -17.599372 Z M -17.601269 17.601844 " transform="matrix(-0.0106578,-0.999943,0.999943,-0.0106578,277.391253,322.880296)"/>
<path style="fill:none;stroke-width:1;stroke-linecap:butt;stroke-linejoin:miter;stroke:rgb(78.431373%,0%,0%);stroke-opacity:1;stroke-miterlimit:10;" d="M -17.601292 17.599049 L 17.599925 17.599214 L 17.600049 -17.598096 L 5.865008 -17.598165 L 5.864911 5.86801 L -5.866223 5.867983 L -5.866127 -17.598193 L -17.601168 -17.598262 Z M -17.601292 17.599049 " transform="matrix(0.0106577,0.999943,-0.999943,0.0106577,277.902827,370.87757)"/>
<path style="fill:none;stroke-width:1;stroke-linecap:butt;stroke-linejoin:miter;stroke:rgb(78.431373%,0%,0%);stroke-opacity:1;stroke-miterlimit:10;" d="M -17.598377 17.598441 L 17.598934 17.598563 L 17.599056 -17.598747 L 5.867921 -17.598774 L 5.867826 5.867402 L -5.867215 5.867333 L -5.867119 -17.598842 L -17.598254 -17.598869 Z M -17.598377 17.598441 " transform="matrix(-0.999943,0.0106577,-0.0106577,-0.999943,278.414401,418.874843)"/>
<path style="fill:none;stroke-width:1;stroke-linecap:butt;stroke-linejoin:miter;stroke:rgb(78.431373%,0%,0%);stroke-opacity:1;stroke-miterlimit:10;" d="M -17.598942 17.601473 L 17.598368 17.601599 L 17.598535 -17.599618 L 5.867401 -17.599646 L 5.867303 5.86653 L -5.867738 5.86646 L -5.86764 -17.599715 L -17.598775 -17.599743 Z M -17.598942 17.601473 " transform="matrix(0.999943,-0.0106578,0.0106578,0.999943,278.925975,466.872117)"/>
<path style="fill:none;stroke-width:1;stroke-linecap:butt;stroke-linejoin:miter;stroke:rgb(78.431373%,0%,0%);stroke-opacity:1;stroke-miterlimit:10;" d="M -17.600697 17.598214 L 17.600519 17.598381 L 17.600645 -17.598929 L 5.865604 -17.598999 L 5.865507 5.867176 L -5.865628 5.867148 L -5.865531 -17.599027 L -17.600571 -17.599097 Z M -17.600697 17.598214 " transform="matrix(0.999943,-0.0106578,0.0106578,0.999943,324.876983,274.371451)"/>
<path style="fill:none;stroke-width:1;stroke-linecap:butt;stroke-linejoin:miter;stroke:rgb(78.431373%,0%,0%);stroke-opacity:1;stroke-miterlimit:10;" d="M -17.600271 17.600415 L 17.600946 17.600581 L 17.601111 -17.600636 L 5.866071 -17.600705 L 5.865974 5.865471 L -5.865161 5.865443 L -5.865064 -17.600732 L -17.600105 -17.600801 Z M -17.600271 17.600415 " transform="matrix(0.0106577,0.999943,-0.999943,0.0106577,325.388557,322.368721)"/>
<path style="fill:none;stroke-width:1;stroke-linecap:butt;stroke-linejoin:miter;stroke:rgb(78.431373%,0%,0%);stroke-opacity:1;stroke-miterlimit:10;" d="M -17.601449 17.600258 L 17.599767 17.600423 L 17.599933 -17.600793 L 5.864892 -17.600862 L 5.864796 5.865313 L -5.866339 5.865286 L -5.866242 -17.60089 L -17.601283 -17.600959 Z M -17.601449 17.600258 " transform="matrix(0.0106577,0.999943,-0.999943,0.0106577,325.900131,370.365995)"/>
<path style="fill:none;stroke-width:1;stroke-linecap:butt;stroke-linejoin:miter;stroke:rgb(78.431373%,0%,0%);stroke-opacity:1;stroke-miterlimit:10;" d="M -17.601074 17.598556 L 17.600143 17.598721 L 17.600265 -17.59859 L 5.865224 -17.598658 L 5.865129 5.867517 L -5.866006 5.86749 L -5.86591 -17.598685 L -17.600951 -17.598754 Z M -17.601074 17.598556 " transform="matrix(-0.999943,0.0106577,-0.0106577,-0.999943,326.411705,418.363269)"/>
<path style="fill:none;stroke-width:1;stroke-linecap:butt;stroke-linejoin:miter;stroke:rgb(78.431373%,0%,0%);stroke-opacity:1;stroke-miterlimit:10;" d="M -17.601231 17.599735 L 17.599985 17.599899 L 17.60015 -17.601317 L 5.865109 -17.601386 L 5.865013 5.86479 L -5.866122 5.864763 L -5.866026 -17.601413 L -17.601067 -17.601481 Z M -17.601231 17.599735 " transform="matrix(-0.999943,0.0106577,-0.0106577,-0.999943,326.923279,466.360543)"/>
<path style="fill:none;stroke-width:1;stroke-linecap:butt;stroke-linejoin:miter;stroke:rgb(78.431373%,0%,0%);stroke-opacity:1;stroke-miterlimit:10;" d="M -17.598223 17.599341 L 17.599087 17.599466 L 17.599254 -17.60175 L 5.868119 -17.601778 L 5.86798 5.868304 L -5.867061 5.868234 L -5.866922 -17.601847 L -17.598056 -17.601875 Z M -17.598223 17.599341 " transform="matrix(-0.0106578,-0.999943,0.999943,-0.0106578,372.874257,273.859877)"/>
<path style="fill:none;stroke-width:1;stroke-linecap:butt;stroke-linejoin:miter;stroke:rgb(78.431373%,0%,0%);stroke-opacity:1;stroke-miterlimit:10;" d="M -17.600955 17.599457 L 17.600262 17.599624 L 17.600428 -17.601593 L 5.865388 -17.601662 L 5.865249 5.868419 L -5.865886 5.868391 L -5.865747 -17.60169 L -17.600788 -17.60176 Z M -17.600955 17.599457 " transform="matrix(-0.0106578,-0.999943,0.999943,-0.0106578,373.385831,321.857147)"/>
<path style="fill:none;stroke-width:1;stroke-linecap:butt;stroke-linejoin:miter;stroke:rgb(78.431373%,0%,0%);stroke-opacity:1;stroke-miterlimit:10;" d="M -17.601602 17.599609 L 17.599614 17.599776 L 17.599781 -17.60144 L 5.86474 -17.601509 L 5.868507 5.868614 L -5.866534 5.868544 L -5.866394 -17.601537 L -17.601435 -17.601607 Z M -17.601602 17.599609 " transform="matrix(0.999943,-0.0106578,0.0106578,0.999943,373.897405,369.854421)"/>
<path style="fill:none;stroke-width:1;stroke-linecap:butt;stroke-linejoin:miter;stroke:rgb(78.431373%,0%,0%);stroke-opacity:1;stroke-miterlimit:10;" d="M -17.601445 17.598431 L 17.599771 17.598598 L 17.599897 -17.598712 L 5.864856 -17.598782 L 5.864758 5.867394 L -5.866376 5.867366 L -5.866279 -17.59881 L -17.60132 -17.598879 Z M -17.601445 17.598431 " transform="matrix(0.999943,-0.0106578,0.0106578,0.999943,374.408979,417.851695)"/>
<path style="fill:none;stroke-width:1;stroke-linecap:butt;stroke-linejoin:miter;stroke:rgb(78.431373%,0%,0%);stroke-opacity:1;stroke-miterlimit:10;" d="M -17.601325 17.599887 L 17.599891 17.600054 L 17.600058 -17.601162 L 5.865017 -17.601232 L 5.86492 5.864944 L -5.866215 5.864916 L -5.866118 -17.60126 L -17.601159 -17.601329 Z M -17.601325 17.599887 " transform="matrix(-0.0106578,-0.999943,0.999943,-0.0106578,374.920553,465.848969)"/>
<path style="fill:none;stroke-width:1;stroke-linecap:butt;stroke-linejoin:miter;stroke:rgb(78.431373%,0%,0%);stroke-opacity:1;stroke-miterlimit:10;" d="M -17.599369 17.599023 L 17.601847 17.599189 L 17.598065 -17.598163 L 5.866931 -17.598191 L 5.866834 5.867985 L -5.868207 5.867916 L -5.86811 -17.59826 L -17.599245 -17.598287 Z M -17.599369 17.599023 " transform="matrix(0.0106577,0.999943,-0.999943,0.0106577,420.871531,273.348303)"/>
<path style="fill:none;stroke-width:1;stroke-linecap:butt;stroke-linejoin:miter;stroke:rgb(78.431373%,0%,0%);stroke-opacity:1;stroke-miterlimit:10;" d="M -17.600543 17.598866 L 17.600673 17.599031 L 17.600797 -17.598279 L 5.865756 -17.598348 L 5.865659 5.867828 L -5.865475 5.8678 L -5.865379 -17.598375 L -17.600419 -17.598445 Z M -17.600543 17.598866 " transform="matrix(0.0106577,0.999943,-0.999943,0.0106577,421.383105,321.345573)"/>
<path style="fill:none;stroke-width:1;stroke-linecap:butt;stroke-linejoin:miter;stroke:rgb(78.431373%,0%,0%);stroke-opacity:1;stroke-miterlimit:10;" d="M -17.601722 17.598708 L 17.599494 17.598874 L 17.599618 -17.598436 L 5.868484 -17.598464 L 5.868387 5.867712 L -5.866654 5.867643 L -5.866557 -17.598533 L -17.601598 -17.598602 Z M -17.601722 17.598708 " transform="matrix(0.0106577,0.999943,-0.999943,0.0106577,421.894679,369.342847)"/>
<path style="fill:none;stroke-width:1;stroke-linecap:butt;stroke-linejoin:miter;stroke:rgb(78.431373%,0%,0%);stroke-opacity:1;stroke-miterlimit:10;" d="M -17.598717 17.598871 L 17.598593 17.598994 L 17.598716 -17.598317 L 5.867581 -17.598344 L 5.867486 5.867832 L -5.867555 5.867763 L -5.867459 -17.598412 L -17.598594 -17.598439 Z M -17.598717 17.598871 " transform="matrix(-0.999943,0.0106577,-0.0106577,-0.999943,422.406253,417.340121)"/>
<path style="fill:none;stroke-width:1;stroke-linecap:butt;stroke-linejoin:miter;stroke:rgb(78.431373%,0%,0%);stroke-opacity:1;stroke-miterlimit:10;" d="M -17.598602 17.601043 L 17.598708 17.601168 L 17.598876 -17.600048 L 5.867741 -17.600076 L 5.867643 5.8661 L -5.867398 5.86603 L -5.8673 -17.600146 L -17.598435 -17.600174 Z M -17.598602 17.601043 " transform="matrix(0.999943,-0.0106578,0.0106578,0.999943,422.917827,465.337395)"/>
<path style="fill:none;stroke-width:1;stroke-linecap:butt;stroke-linejoin:miter;stroke:rgb(78.431373%,0%,0%);stroke-opacity:1;stroke-miterlimit:10;" d="M -17.600368 17.601689 L 17.600848 17.601857 L 17.601016 -17.59936 L 5.865975 -17.599429 L 5.865877 5.866746 L -5.865257 5.866718 L -5.86516 -17.599457 L -17.600201 -17.599527 Z M -17.600368 17.601689 " transform="matrix(0.999943,-0.0106578,0.0106578,0.999943,468.868804,272.836729)"/>
<path style="fill:none;stroke-width:1;stroke-linecap:butt;stroke-linejoin:miter;stroke:rgb(78.431373%,0%,0%);stroke-opacity:1;stroke-miterlimit:10;" d="M -17.600211 17.600515 L 17.601006 17.600682 L 17.601173 -17.600534 L 5.866132 -17.600604 L 5.866035 5.865572 L -5.8651 5.865544 L -5.865003 -17.600632 L -17.600043 -17.600702 Z M -17.600211 17.600515 " transform="matrix(0.999943,-0.0106578,0.0106578,0.999943,469.380378,320.833999)"/>
<path style="fill:none;stroke-width:1;stroke-linecap:butt;stroke-linejoin:miter;stroke:rgb(78.431373%,0%,0%);stroke-opacity:1;stroke-miterlimit:10;" d="M -17.599503 17.601163 L 17.601713 17.60133 L 17.60188 -17.599886 L 5.866839 -17.599956 L 5.866742 5.86622 L -5.868299 5.86615 L -5.868202 -17.600025 L -17.599336 -17.600053 Z M -17.599503 17.601163 " transform="matrix(-0.0106578,-0.999943,0.999943,-0.0106578,469.891952,368.831273)"/>
<path style="fill:none;stroke-width:1;stroke-linecap:butt;stroke-linejoin:miter;stroke:rgb(78.431373%,0%,0%);stroke-opacity:1;stroke-miterlimit:10;" d="M -17.601444 17.598987 L 17.599772 17.599151 L 17.599894 -17.598159 L 5.864854 -17.598228 L 5.864758 5.867948 L -5.866377 5.867921 L -5.866281 -17.598255 L -17.601322 -17.598324 Z M -17.601444 17.598987 " transform="matrix(-0.999943,0.0106577,-0.0106577,-0.999943,470.403526,416.828547)"/>
<path style="fill:none;stroke-width:1;stroke-linecap:butt;stroke-linejoin:miter;stroke:rgb(78.431373%,0%,0%);stroke-opacity:1;stroke-miterlimit:10;" d="M -17.60033 17.599614 L 17.600886 17.59978 L 17.601052 -17.601437 L 5.866011 -17.601506 L 5.865873 5.868576 L -5.865262 5.868548 L -5.865124 -17.601533 L -17.600164 -17.601602 Z M -17.60033 17.599614 " transform="matrix(0.0106577,0.999943,-0.999943,0.0106577,470.9151,464.825821)"/>
</g>
</svg>
