<?xml version="1.0" encoding="UTF-8" standalone="no"?>
<svg
   xmlns:dc="http://purl.org/dc/elements/1.1/"
   xmlns:cc="http://creativecommons.org/ns#"
   xmlns:rdf="http://www.w3.org/1999/02/22-rdf-syntax-ns#"
   xmlns:svg="http://www.w3.org/2000/svg"
   xmlns="http://www.w3.org/2000/svg"
   xmlns:sodipodi="http://sodipodi.sourceforge.net/DTD/sodipodi-0.dtd"
   xmlns:inkscape="http://www.inkscape.org/namespaces/inkscape"
   width="7in"
   height="5in"
   viewBox="0 0 503.99998 359.99999"
   version="1.1"
   id="svg2"
   inkscape:version="0.91 r13725"
   sodipodi:docname="output_to_print2.svg">
  <sodipodi:namedview
     pagecolor="#ffffff"
     bordercolor="#666666"
     borderopacity="1"
     objecttolerance="10"
     gridtolerance="10"
     guidetolerance="10"
     inkscape:pageopacity="0"
     inkscape:pageshadow="2"
     inkscape:window-width="640"
     inkscape:window-height="480"
     id="namedview205"
     showgrid="false"
     units="in"
     inkscape:zoom="0.3776"
     inkscape:cx="312.5"
     inkscape:cy="312.5"
     inkscape:window-x="0"
     inkscape:window-y="0"
     inkscape:window-maximized="0"
     inkscape:current-layer="svg2" />
  <metadata
     id="metadata209">
    <rdf:RDF>
      <cc:Work
         rdf:about="">
        <dc:format>image/svg+xml</dc:format>
        <dc:type
           rdf:resource="http://purl.org/dc/dcmitype/StillImage" />
        <dc:title></dc:title>
      </cc:Work>
    </rdf:RDF>
  </metadata>
  <defs
     id="defs207" />
  <g
     transform="matrix(0.66974223,0,0,0.66974223,89.863729,8.0517507)"
     id="surface44277">
    <path
       inkscape:connector-curvature="0"
       id="path5"
       transform="matrix(-0.0479428,0.99885,-0.99885,-0.0479428,30.21843,41.53383)"
       d="m -17.600991,17.598132 35.200815,0.0038 -1.16e-4,-35.200629 -11.732242,-2.3e-5 -4.8e-5,23.464484 -11.732242,-2.3e-5 4.7e-5,-23.464485 -11.736144,1.64e-4 z m 0,0"
       style="fill:none;stroke:#c70000;stroke-width:1;stroke-linecap:butt;stroke-linejoin:miter;stroke-miterlimit:10;stroke-opacity:1" />
    <path
       inkscape:connector-curvature="0"
       id="path7"
       transform="matrix(-0.0479428,0.99885,-0.99885,-0.0479428,27.917178,89.478634)"
       d="m -17.600319,17.601539 35.200629,-1.17e-4 -1.17e-4,-35.200628 -11.732242,-2.4e-5 -4.7e-5,23.464485 -11.736144,1.64e-4 4.7e-5,-23.464485 -11.732242,-2.4e-5 z m 0,0"
       style="fill:none;stroke:#c70000;stroke-width:1;stroke-linecap:butt;stroke-linejoin:miter;stroke-miterlimit:10;stroke-opacity:1" />
    <path
       inkscape:connector-curvature="0"
       id="path9"
       transform="matrix(0.0479428,-0.99885,0.99885,0.0479428,25.615926,137.42345)"
       d="m -17.600671,17.5997 35.200628,-1.16e-4 -1.15e-4,-35.200628 -11.732242,-2.4e-5 1.39e-4,23.468386 -11.736144,1.64e-4 -1.39e-4,-23.468387 -11.732243,-2.4e-5 z m 0,0"
       style="fill:none;stroke:#c70000;stroke-width:1;stroke-linecap:butt;stroke-linejoin:miter;stroke-miterlimit:10;stroke-opacity:1" />
    <path
       inkscape:connector-curvature="0"
       id="path11"
       transform="matrix(-0.0479428,0.99885,-0.99885,-0.0479428,23.314675,185.36823)"
       d="m -17.599341,17.60055 35.200629,-1.16e-4 -1.17e-4,-35.200629 -11.736144,1.64e-4 1.4e-4,23.468386 -11.732242,-2.3e-5 -1.4e-4,-23.468387 -11.732242,-2.3e-5 z m 0,0"
       style="fill:none;stroke:#c70000;stroke-width:1;stroke-linecap:butt;stroke-linejoin:miter;stroke-miterlimit:10;stroke-opacity:1" />
    <path
       inkscape:connector-curvature="0"
       id="path13"
       transform="matrix(0.0479428,-0.99885,0.99885,0.0479428,21.013423,233.31304)"
       d="m -17.601657,17.600689 35.200628,-1.16e-4 -1.15e-4,-35.200628 -11.732242,-2.4e-5 1.39e-4,23.468386 -11.732242,-2.4e-5 -1.39e-4,-23.468386 -11.736144,1.63e-4 z m 0,0"
       style="fill:none;stroke:#c70000;stroke-width:1;stroke-linecap:butt;stroke-linejoin:miter;stroke-miterlimit:10;stroke-opacity:1" />
    <path
       inkscape:connector-curvature="0"
       id="path15"
       transform="matrix(-0.99885,-0.0479428,0.0479428,-0.99885,78.163234,43.835082)"
       d="m -17.59908,17.601416 35.200629,-1.18e-4 -1.18e-4,-35.200629 -11.736144,1.64e-4 -4.6e-5,23.464485 -11.732243,-2.3e-5 4.7e-5,-23.464485 -11.732243,-2.3e-5 z m 0,0"
       style="fill:none;stroke:#c70000;stroke-width:1;stroke-linecap:butt;stroke-linejoin:miter;stroke-miterlimit:10;stroke-opacity:1" />
    <path
       inkscape:connector-curvature="0"
       id="path17"
       transform="matrix(0.0479428,-0.99885,0.99885,0.0479428,75.861982,91.779886)"
       d="m -17.599699,17.599691 35.200628,-1.16e-4 -1.15e-4,-35.200628 -11.736144,1.63e-4 1.39e-4,23.468386 -11.732242,-2.4e-5 -1.39e-4,-23.468386 -11.732243,-2.4e-5 z m 0,0"
       style="fill:none;stroke:#c70000;stroke-width:1;stroke-linecap:butt;stroke-linejoin:miter;stroke-miterlimit:10;stroke-opacity:1" />
    <path
       inkscape:connector-curvature="0"
       id="path19"
       transform="matrix(-0.99885,-0.0479428,0.0479428,-0.99885,73.56073,139.7247)"
       d="m -17.600068,17.600453 35.200628,-1.18e-4 -1.18e-4,-35.200629 -11.732242,-2.3e-5 1.41e-4,23.468386 -11.736144,1.65e-4 -1.41e-4,-23.468387 -11.732242,-2.3e-5 z m 0,0"
       style="fill:none;stroke:#c70000;stroke-width:1;stroke-linecap:butt;stroke-linejoin:miter;stroke-miterlimit:10;stroke-opacity:1" />
    <path
       inkscape:connector-curvature="0"
       id="path21"
       transform="matrix(0.99885,0.0479429,-0.0479429,0.99885,71.259479,187.66949)"
       d="m -17.599946,17.600796 35.200628,-1.21e-4 -1.21e-4,-35.200629 -11.732242,-2.2e-5 1.43e-4,23.468386 -11.736144,1.66e-4 -1.43e-4,-23.468387 -11.732242,-2.2e-5 z m 0,0"
       style="fill:none;stroke:#c70000;stroke-width:1;stroke-linecap:butt;stroke-linejoin:miter;stroke-miterlimit:10;stroke-opacity:1" />
    <path
       inkscape:connector-curvature="0"
       id="path23"
       transform="matrix(0.99885,0.0479429,-0.0479429,0.99885,68.958227,235.61429)"
       d="m -17.599452,17.601281 35.200629,-1.21e-4 -1.21e-4,-35.200629 -11.736144,1.66e-4 -4.5e-5,23.464484 -11.732242,-2.2e-5 4.4e-5,-23.464484 -11.732242,-2.2e-5 z m 0,0"
       style="fill:none;stroke:#c70000;stroke-width:1;stroke-linecap:butt;stroke-linejoin:miter;stroke-miterlimit:10;stroke-opacity:1" />
    <path
       inkscape:connector-curvature="0"
       id="path25"
       transform="matrix(0.99885,0.0479429,-0.0479429,0.99885,126.10804,46.136334)"
       d="m -17.600944,17.598838 35.200628,-1.21e-4 -1.21e-4,-35.200629 -11.732242,-2.2e-5 1.43e-4,23.468387 -11.732242,-2.3e-5 -1.43e-4,-23.468386 -11.736144,1.65e-4 z m 0,0"
       style="fill:none;stroke:#c70000;stroke-width:1;stroke-linecap:butt;stroke-linejoin:miter;stroke-miterlimit:10;stroke-opacity:1" />
    <path
       inkscape:connector-curvature="0"
       id="path27"
       transform="matrix(-0.0479428,0.99885,-0.99885,-0.0479428,123.80679,94.081138)"
       d="m -17.601308,17.600568 35.200629,-1.16e-4 -1.17e-4,-35.200629 -11.732242,-2.3e-5 1.4e-4,23.468386 -11.732242,-2.4e-5 -1.4e-4,-23.468386 -11.736144,1.64e-4 z m 0,0"
       style="fill:none;stroke:#c70000;stroke-width:1;stroke-linecap:butt;stroke-linejoin:miter;stroke-miterlimit:10;stroke-opacity:1" />
    <path
       inkscape:connector-curvature="0"
       id="path29"
       transform="matrix(-0.0479428,0.99885,-0.99885,-0.0479428,121.50553,142.02595)"
       d="m -17.60083,17.600074 35.200629,-1.16e-4 -1.17e-4,-35.200629 -11.732242,-2.3e-5 1.4e-4,23.468386 -11.736144,1.63e-4 0.00376,-23.468573 -11.736144,1.64e-4 z m 0,0"
       style="fill:none;stroke:#c70000;stroke-width:1;stroke-linecap:butt;stroke-linejoin:miter;stroke-miterlimit:10;stroke-opacity:1" />
    <path
       inkscape:connector-curvature="0"
       id="path31"
       transform="matrix(0.99885,0.0479429,-0.0479429,0.99885,119.20428,189.97074)"
       d="m -17.599461,17.600301 35.200629,-1.21e-4 -1.22e-4,-35.200628 -11.736143,1.65e-4 1.43e-4,23.468386 -11.732243,-2.2e-5 -1.43e-4,-23.468386 -11.732242,-2.2e-5 z m 0,0"
       style="fill:none;stroke:#c70000;stroke-width:1;stroke-linecap:butt;stroke-linejoin:miter;stroke-miterlimit:10;stroke-opacity:1" />
    <path
       inkscape:connector-curvature="0"
       id="path33"
       transform="matrix(0.0479428,-0.99885,0.99885,0.0479428,116.90303,237.91554)"
       d="m -17.600668,17.601659 35.200628,-1.15e-4 -1.15e-4,-35.200629 -11.732242,-2.4e-5 -4.8e-5,23.464485 -11.736144,1.63e-4 4.8e-5,-23.464484 -11.732243,-2.4e-5 z m 0,0"
       style="fill:none;stroke:#c70000;stroke-width:1;stroke-linecap:butt;stroke-linejoin:miter;stroke-miterlimit:10;stroke-opacity:1" />
    <path
       inkscape:connector-curvature="0"
       id="path35"
       transform="matrix(0.99885,0.0479429,-0.0479429,0.99885,174.05284,48.437586)"
       d="m -17.600459,17.598344 35.200629,-1.22e-4 6.6e-5,-35.196726 -11.732242,-2.2e-5 -4.4e-5,23.464484 -11.736144,1.65e-4 4.4e-5,-23.464484 -11.732243,-2.2e-5 z m 0,0"
       style="fill:none;stroke:#c70000;stroke-width:1;stroke-linecap:butt;stroke-linejoin:miter;stroke-miterlimit:10;stroke-opacity:1" />
    <path
       inkscape:connector-curvature="0"
       id="path37"
       transform="matrix(0.0479428,-0.99885,0.99885,0.0479428,171.75159,96.38239)"
       d="m -17.598711,17.600661 35.200629,-1.15e-4 -1.15e-4,-35.200629 -11.736144,1.64e-4 1.39e-4,23.468386 -11.732242,-2.4e-5 -1.4e-4,-23.468386 -11.732242,-2.4e-5 z m 0,0"
       style="fill:none;stroke:#c70000;stroke-width:1;stroke-linecap:butt;stroke-linejoin:miter;stroke-miterlimit:10;stroke-opacity:1" />
    <path
       inkscape:connector-curvature="0"
       id="path39"
       transform="matrix(-0.99885,-0.0479428,0.0479428,-0.99885,169.45034,144.3272)"
       d="m -17.601039,17.601442 35.200629,-1.18e-4 -1.18e-4,-35.200629 -11.732243,-2.3e-5 -4.6e-5,23.464484 -11.732242,-2.3e-5 4.6e-5,-23.464484 -11.736144,1.64e-4 z m 0,0"
       style="fill:none;stroke:#c70000;stroke-width:1;stroke-linecap:butt;stroke-linejoin:miter;stroke-miterlimit:10;stroke-opacity:1" />
    <path
       inkscape:connector-curvature="0"
       id="path41"
       transform="matrix(-0.0479428,0.99885,-0.99885,-0.0479428,167.14909,192.27199)"
       d="m -17.600824,17.599094 35.200629,-1.16e-4 -1.17e-4,-35.200629 -11.732242,-2.3e-5 1.4e-4,23.468386 -11.736144,1.64e-4 0.00376,-23.468574 -11.736144,1.64e-4 z m 0,0"
       style="fill:none;stroke:#c70000;stroke-width:1;stroke-linecap:butt;stroke-linejoin:miter;stroke-miterlimit:10;stroke-opacity:1" />
    <path
       inkscape:connector-curvature="0"
       id="path43"
       transform="matrix(0.99885,0.0479429,-0.0479429,0.99885,164.84783,240.21679)"
       d="m -17.598481,17.600292 35.196726,6.6e-5 -1.21e-4,-35.200628 -11.732242,-2.2e-5 1.43e-4,23.468386 -11.732242,-2.2e-5 -1.43e-4,-23.468386 -11.732242,-2.2e-5 z m 0,0"
       style="fill:none;stroke:#c70000;stroke-width:1;stroke-linecap:butt;stroke-linejoin:miter;stroke-miterlimit:10;stroke-opacity:1" />
    <path
       inkscape:connector-curvature="0"
       id="path45"
       transform="matrix(0.0479428,-0.99885,0.99885,0.0479428,221.99765,50.738837)"
       d="m -17.601633,17.600839 35.200629,-1.15e-4 -1.16e-4,-35.200628 -11.732242,-2.4e-5 1.39e-4,23.468386 -11.732242,-2.4e-5 -1.39e-4,-23.468386 -11.736144,1.63e-4 z m 0,0"
       style="fill:none;stroke:#c70000;stroke-width:1;stroke-linecap:butt;stroke-linejoin:miter;stroke-miterlimit:10;stroke-opacity:1" />
    <path
       inkscape:connector-curvature="0"
       id="path47"
       transform="matrix(-0.0479428,0.99885,-0.99885,-0.0479428,219.69639,98.683641)"
       d="m -17.598395,17.599411 35.196727,7e-5 -1.16e-4,-35.200628 -11.732243,-2.4e-5 1.41e-4,23.468387 -11.732243,-2.4e-5 -1.4e-4,-23.468386 -11.732242,-2.4e-5 z m 0,0"
       style="fill:none;stroke:#c70000;stroke-width:1;stroke-linecap:butt;stroke-linejoin:miter;stroke-miterlimit:10;stroke-opacity:1" />
    <path
       inkscape:connector-curvature="0"
       id="path49"
       transform="matrix(-0.0479428,0.99885,-0.99885,-0.0479428,217.39514,146.62845)"
       d="m -17.601819,17.599104 35.200629,-1.17e-4 -1.17e-4,-35.200628 -11.732242,-2.4e-5 1.4e-4,23.468386 -11.732242,-2.3e-5 -1.4e-4,-23.468387 -11.736144,1.64e-4 z m 0,0"
       style="fill:none;stroke:#c70000;stroke-width:1;stroke-linecap:butt;stroke-linejoin:miter;stroke-miterlimit:10;stroke-opacity:1" />
    <path
       inkscape:connector-curvature="0"
       id="path51"
       transform="matrix(0.0479428,-0.99885,0.99885,0.0479428,215.09389,194.57324)"
       d="m -17.599382,17.598233 35.200629,-1.15e-4 7.2e-5,-35.196727 -11.736144,1.64e-4 -4.8e-5,23.464484 -11.732242,-2.4e-5 4.8e-5,-23.464484 -11.732243,-2.4e-5 z m 0,0"
       style="fill:none;stroke:#c70000;stroke-width:1;stroke-linecap:butt;stroke-linejoin:miter;stroke-miterlimit:10;stroke-opacity:1" />
    <path
       inkscape:connector-curvature="0"
       id="path53"
       transform="matrix(-0.99885,-0.0479428,0.0479428,-0.99885,212.79264,242.51805)"
       d="m -17.598611,17.600763 35.196727,6.9e-5 0.0038,-35.200816 -11.736144,1.65e-4 1.41e-4,23.468386 -11.732242,-2.3e-5 -1.41e-4,-23.468386 -11.732242,-2.4e-5 z m 0,0"
       style="fill:none;stroke:#c70000;stroke-width:1;stroke-linecap:butt;stroke-linejoin:miter;stroke-miterlimit:10;stroke-opacity:1" />
    <path
       inkscape:connector-curvature="0"
       id="path55"
       transform="matrix(0.99885,0.0479429,-0.0479429,0.99885,269.94245,53.040089)"
       d="m -17.599301,17.601257 35.200628,-1.21e-4 -1.21e-4,-35.200629 -11.736144,1.65e-4 -4.4e-5,23.464485 -11.732242,-2.2e-5 4.4e-5,-23.464485 -11.732242,-2.2e-5 z m 0,0"
       style="fill:none;stroke:#c70000;stroke-width:1;stroke-linecap:butt;stroke-linejoin:miter;stroke-miterlimit:10;stroke-opacity:1" />
    <path
       inkscape:connector-curvature="0"
       id="path57"
       transform="matrix(-0.99885,-0.0479428,0.0479428,-0.99885,267.6412,100.98489)"
       d="m -17.601702,17.599006 35.200628,-1.18e-4 -1.18e-4,-35.200628 -11.732242,-2.3e-5 1.41e-4,23.468386 -11.732242,-2.3e-5 -1.41e-4,-23.468386 -11.736144,1.64e-4 z m 0,0"
       style="fill:none;stroke:#c70000;stroke-width:1;stroke-linecap:butt;stroke-linejoin:miter;stroke-miterlimit:10;stroke-opacity:1" />
    <path
       inkscape:connector-curvature="0"
       id="path59"
       transform="matrix(0.0479428,-0.99885,0.99885,0.0479428,265.33995,148.92971)"
       d="m -17.598387,17.598224 35.196727,7.2e-5 7.2e-5,-35.196726 -11.732242,-2.4e-5 -4.8e-5,23.464484 -11.732243,-2.4e-5 4.8e-5,-23.464484 -11.732242,-2.4e-5 z m 0,0"
       style="fill:none;stroke:#c70000;stroke-width:1;stroke-linecap:butt;stroke-linejoin:miter;stroke-miterlimit:10;stroke-opacity:1" />
    <path
       inkscape:connector-curvature="0"
       id="path61"
       transform="matrix(0.0479428,-0.99885,0.99885,0.0479428,263.0387,196.87449)"
       d="m -17.598887,17.598719 35.200628,-1.16e-4 -1.15e-4,-35.200628 -11.736144,1.63e-4 1.39e-4,23.468386 -11.732242,-2.4e-5 -1.39e-4,-23.468386 -11.732243,-2.4e-5 z m 0,0"
       style="fill:none;stroke:#c70000;stroke-width:1;stroke-linecap:butt;stroke-linejoin:miter;stroke-miterlimit:10;stroke-opacity:1" />
    <path
       inkscape:connector-curvature="0"
       id="path63"
       transform="matrix(0.0479428,-0.99885,0.99885,0.0479428,260.73744,244.8193)"
       d="m -17.599373,17.599213 35.200629,-1.15e-4 -1.15e-4,-35.200629 -11.736144,1.64e-4 1.39e-4,23.468386 -11.732242,-2.4e-5 -1.4e-4,-23.468386 -11.732242,-2.4e-5 z m 0,0"
       style="fill:none;stroke:#c70000;stroke-width:1;stroke-linecap:butt;stroke-linejoin:miter;stroke-miterlimit:10;stroke-opacity:1" />
    <path
       inkscape:connector-curvature="0"
       id="path65"
       transform="matrix(0.0479428,-0.99885,0.99885,0.0479428,317.88725,55.341341)"
       d="m -17.600644,17.60181 35.200628,-1.15e-4 -1.15e-4,-35.200629 -11.732242,-2.4e-5 -4.8e-5,23.464485 -11.736144,1.63e-4 4.8e-5,-23.464485 -11.732242,-2.4e-5 z m 0,0"
       style="fill:none;stroke:#c70000;stroke-width:1;stroke-linecap:butt;stroke-linejoin:miter;stroke-miterlimit:10;stroke-opacity:1" />
    <path
       inkscape:connector-curvature="0"
       id="path67"
       transform="matrix(0.0479428,-0.99885,0.99885,0.0479428,315.586,103.28615)"
       d="m -17.601317,17.598402 35.200629,-1.15e-4 7.2e-5,-35.196727 -11.732242,-2.4e-5 -4.8e-5,23.464485 -11.732243,-2.4e-5 4.8e-5,-23.464484 -11.736144,1.63e-4 z m 0,0"
       style="fill:none;stroke:#c70000;stroke-width:1;stroke-linecap:butt;stroke-linejoin:miter;stroke-miterlimit:10;stroke-opacity:1" />
    <path
       inkscape:connector-curvature="0"
       id="path69"
       transform="matrix(-0.0479428,0.99885,-0.99885,-0.0479428,313.28475,151.23096)"
       d="m -17.598718,17.601847 35.200628,-1.16e-4 -1.16e-4,-35.200628 -11.736144,1.63e-4 -4.8e-5,23.464485 -11.732242,-2.4e-5 4.7e-5,-23.464484 -11.732242,-2.4e-5 z m 0,0"
       style="fill:none;stroke:#c70000;stroke-width:1;stroke-linecap:butt;stroke-linejoin:miter;stroke-miterlimit:10;stroke-opacity:1" />
    <path
       inkscape:connector-curvature="0"
       id="path71"
       transform="matrix(0.99885,0.0479429,-0.0479429,0.99885,310.9835,199.17575)"
       d="m -17.601422,17.598511 35.200629,-1.21e-4 6.6e-5,-35.196727 -11.732242,-2.2e-5 -4.4e-5,23.464485 -11.732243,-2.2e-5 4.5e-5,-23.464485 -11.736144,1.65e-4 z m 0,0"
       style="fill:none;stroke:#c70000;stroke-width:1;stroke-linecap:butt;stroke-linejoin:miter;stroke-miterlimit:10;stroke-opacity:1" />
    <path
       inkscape:connector-curvature="0"
       id="path73"
       transform="matrix(0.99885,0.0479429,-0.0479429,0.99885,308.68225,247.12055)"
       d="m -17.600927,17.598996 35.200628,-1.21e-4 -1.21e-4,-35.200628 -11.732242,-2.2e-5 1.43e-4,23.468386 -11.732242,-2.2e-5 -1.43e-4,-23.468386 -11.736144,1.65e-4 z m 0,0"
       style="fill:none;stroke:#c70000;stroke-width:1;stroke-linecap:butt;stroke-linejoin:miter;stroke-miterlimit:10;stroke-opacity:1" />
    <path
       inkscape:connector-curvature="0"
       id="path75"
       transform="matrix(0.0479428,-0.99885,0.99885,0.0479428,365.83206,57.642593)"
       d="m -17.600337,17.598393 35.200629,-1.15e-4 7.1e-5,-35.196727 -11.732242,-2.4e-5 -4.8e-5,23.464485 -11.736144,1.63e-4 4.8e-5,-23.464484 -11.732242,-2.4e-5 z m 0,0"
       style="fill:none;stroke:#c70000;stroke-width:1;stroke-linecap:butt;stroke-linejoin:miter;stroke-miterlimit:10;stroke-opacity:1" />
    <path
       inkscape:connector-curvature="0"
       id="path77"
       transform="matrix(0.99885,0.0479429,-0.0479429,0.99885,363.53081,105.5874)"
       d="m -17.601738,17.60094 35.200629,-1.21e-4 -1.21e-4,-35.200628 -11.732243,-2.2e-5 1.43e-4,23.468386 -11.732242,-2.2e-5 -1.43e-4,-23.468386 -11.736144,1.65e-4 z m 0,0"
       style="fill:none;stroke:#c70000;stroke-width:1;stroke-linecap:butt;stroke-linejoin:miter;stroke-miterlimit:10;stroke-opacity:1" />
    <path
       inkscape:connector-curvature="0"
       id="path79"
       transform="matrix(0.99885,0.0479429,-0.0479429,0.99885,361.22955,153.53221)"
       d="m -17.601243,17.601418 35.200628,-1.21e-4 -1.21e-4,-35.200629 -11.732242,-2.2e-5 -4.4e-5,23.464485 -11.732243,-2.2e-5 4.4e-5,-23.464485 -11.736144,1.66e-4 z m 0,0"
       style="fill:none;stroke:#c70000;stroke-width:1;stroke-linecap:butt;stroke-linejoin:miter;stroke-miterlimit:10;stroke-opacity:1" />
    <path
       inkscape:connector-curvature="0"
       id="path81"
       transform="matrix(-0.0479428,0.99885,-0.99885,-0.0479428,358.9283,201.477)"
       d="m -17.598712,17.600868 35.200628,-1.17e-4 -1.16e-4,-35.200628 -11.736144,1.64e-4 -4.7e-5,23.464484 -11.732243,-2.4e-5 4.8e-5,-23.464484 -11.732243,-2.4e-5 z m 0,0"
       style="fill:none;stroke:#c70000;stroke-width:1;stroke-linecap:butt;stroke-linejoin:miter;stroke-miterlimit:10;stroke-opacity:1" />
    <path
       inkscape:connector-curvature="0"
       id="path83"
       transform="matrix(0.99885,0.0479429,-0.0479429,0.99885,356.62705,249.4218)"
       d="m -17.600442,17.598502 35.200628,-1.21e-4 6.7e-5,-35.196727 -11.732243,-2.2e-5 -4.4e-5,23.464485 -11.736144,1.65e-4 4.4e-5,-23.464485 -11.732242,-2.2e-5 z m 0,0"
       style="fill:none;stroke:#c70000;stroke-width:1;stroke-linecap:butt;stroke-linejoin:miter;stroke-miterlimit:10;stroke-opacity:1" />
    <path
       inkscape:connector-curvature="0"
       id="path85"
       transform="matrix(-0.0479428,0.99885,-0.99885,-0.0479428,413.77686,59.943845)"
       d="m -17.60067,17.601866 35.200628,-1.17e-4 -1.16e-4,-35.200628 -11.732242,-2.4e-5 -4.7e-5,23.464485 -11.736144,1.63e-4 4.7e-5,-23.464484 -11.732242,-2.4e-5 z m 0,0"
       style="fill:none;stroke:#c70000;stroke-width:1;stroke-linecap:butt;stroke-linejoin:miter;stroke-miterlimit:10;stroke-opacity:1" />
    <path
       inkscape:connector-curvature="0"
       id="path87"
       transform="matrix(-0.99885,-0.0479428,0.0479428,-0.99885,411.47561,107.88865)"
       d="m -17.599256,17.600302 35.200628,-1.18e-4 -1.18e-4,-35.200628 -11.736144,1.64e-4 1.41e-4,23.468386 -11.732242,-2.3e-5 -1.41e-4,-23.468386 -11.732242,-2.3e-5 z m 0,0"
       style="fill:none;stroke:#c70000;stroke-width:1;stroke-linecap:butt;stroke-linejoin:miter;stroke-miterlimit:10;stroke-opacity:1" />
    <path
       inkscape:connector-curvature="0"
       id="path89"
       transform="matrix(-0.99885,-0.0479428,0.0479428,-0.99885,409.17436,155.83346)"
       d="m -17.599751,17.599824 35.200629,-1.18e-4 -1.18e-4,-35.200628 -11.732242,-2.3e-5 -0.00376,23.468573 -11.732242,-2.3e-5 -1.41e-4,-23.468386 -11.732243,-2.3e-5 z m 0,0"
       style="fill:none;stroke:#c70000;stroke-width:1;stroke-linecap:butt;stroke-linejoin:miter;stroke-miterlimit:10;stroke-opacity:1" />
    <path
       inkscape:connector-curvature="0"
       id="path91"
       transform="matrix(-0.0479428,0.99885,-0.99885,-0.0479428,406.87311,203.77825)"
       d="m -17.599207,17.600383 35.200629,-1.17e-4 -1.17e-4,-35.200628 -11.736144,1.63e-4 1.4e-4,23.468387 -11.732242,-2.4e-5 -1.4e-4,-23.468386 -11.732242,-2.4e-5 z m 0,0"
       style="fill:none;stroke:#c70000;stroke-width:1;stroke-linecap:butt;stroke-linejoin:miter;stroke-miterlimit:10;stroke-opacity:1" />
    <path
       inkscape:connector-curvature="0"
       id="path93"
       transform="matrix(-0.99885,-0.0479428,0.0479428,-0.99885,404.57186,251.72305)"
       d="m -17.600739,17.598839 35.200628,-1.18e-4 -1.18e-4,-35.200629 -11.732242,-2.3e-5 1.41e-4,23.468386 -11.736144,1.64e-4 -1.41e-4,-23.468386 -11.732242,-2.3e-5 z m 0,0"
       style="fill:none;stroke:#c70000;stroke-width:1;stroke-linecap:butt;stroke-linejoin:miter;stroke-miterlimit:10;stroke-opacity:1" />
    <path
       inkscape:connector-curvature="0"
       id="path95"
       transform="matrix(0.99885,0.0479429,-0.0479429,0.99885,461.72167,62.245096)"
       d="m -17.601262,17.599466 35.200629,-1.21e-4 -1.21e-4,-35.200628 -11.732243,-2.2e-5 1.44e-4,23.468386 -11.732243,-2.2e-5 -1.43e-4,-23.468386 -11.736144,1.65e-4 z m 0,0"
       style="fill:none;stroke:#c70000;stroke-width:1;stroke-linecap:butt;stroke-linejoin:miter;stroke-miterlimit:10;stroke-opacity:1" />
    <path
       inkscape:connector-curvature="0"
       id="path97"
       transform="matrix(-0.0479428,0.99885,-0.99885,-0.0479428,459.42041,110.1899)"
       d="m -17.600679,17.600886 35.200628,-1.16e-4 -1.16e-4,-35.200629 -11.732242,-2.3e-5 1.4e-4,23.468386 -11.736144,1.63e-4 -1.4e-4,-23.468386 -11.732243,-2.3e-5 z m 0,0"
       style="fill:none;stroke:#c70000;stroke-width:1;stroke-linecap:butt;stroke-linejoin:miter;stroke-miterlimit:10;stroke-opacity:1" />
    <path
       inkscape:connector-curvature="0"
       id="path99"
       transform="matrix(-0.0479428,0.99885,-0.99885,-0.0479428,457.11916,158.13471)"
       d="m -17.600202,17.600392 35.200629,-1.17e-4 -1.17e-4,-35.200628 -11.732242,-2.4e-5 1.4e-4,23.468386 -11.736144,1.64e-4 -1.4e-4,-23.468386 -11.732242,-2.4e-5 z m 0,0"
       style="fill:none;stroke:#c70000;stroke-width:1;stroke-linecap:butt;stroke-linejoin:miter;stroke-miterlimit:10;stroke-opacity:1" />
    <path
       inkscape:connector-curvature="0"
       id="path101"
       transform="matrix(0.0479428,-0.99885,0.99885,0.0479428,454.81791,206.0795)"
       d="m -17.600812,17.600847 35.200629,-1.15e-4 -1.15e-4,-35.200629 -11.732243,-2.4e-5 1.4e-4,23.468386 -11.732243,-2.4e-5 -1.39e-4,-23.468386 -11.736144,1.64e-4 z m 0,0"
       style="fill:none;stroke:#c70000;stroke-width:1;stroke-linecap:butt;stroke-linejoin:miter;stroke-miterlimit:10;stroke-opacity:1" />
    <path
       inkscape:connector-curvature="0"
       id="path103"
       transform="matrix(-0.99885,-0.0479428,0.0479428,-0.99885,452.51666,254.0243)"
       d="m -17.601225,17.599333 35.200629,-1.18e-4 -1.18e-4,-35.200628 -11.732242,-2.4e-5 1.41e-4,23.468387 -11.732243,-2.3e-5 -1.41e-4,-23.468387 -11.736144,1.65e-4 z m 0,0"
       style="fill:none;stroke:#c70000;stroke-width:1;stroke-linecap:butt;stroke-linejoin:miter;stroke-miterlimit:10;stroke-opacity:1" />
    <path
       inkscape:connector-curvature="0"
       id="path105"
       transform="matrix(0.999899,-0.0142362,0.0142362,0.999899,29.062982,280.5521)"
       d="m -17.6005,17.601464 35.19892,-0.0028 0.0011,-35.198864 -11.731671,9.54e-4 -0.00205,23.467193 -11.731616,-0.00295 -0.00191,-23.463343 -11.731615,-0.003 z m 0,0"
       style="fill:none;stroke:#c70000;stroke-width:1;stroke-linecap:butt;stroke-linejoin:miter;stroke-miterlimit:10;stroke-opacity:1" />
    <path
       inkscape:connector-curvature="0"
       id="path107"
       transform="matrix(0.999899,-0.0142362,0.0142362,0.999899,29.746319,328.54724)"
       d="m -17.600201,17.598516 35.198864,0.0011 0.0011,-35.198864 -11.731671,9.55e-4 -0.002,23.463287 -11.731671,9.55e-4 -0.00185,-23.467249 -11.731671,9.55e-4 z m 0,0"
       style="fill:none;stroke:#c70000;stroke-width:1;stroke-linecap:butt;stroke-linejoin:miter;stroke-miterlimit:10;stroke-opacity:1" />
    <path
       inkscape:connector-curvature="0"
       id="path109"
       transform="matrix(0.0142361,0.999899,-0.999899,0.0142361,30.429656,376.54237)"
       d="m -17.599386,17.598861 35.198864,0.0011 0.0011,-35.198864 -11.735521,-0.003 0.00185,23.467249 -11.731671,9.55e-4 -0.00185,-23.467248 -11.731672,9.55e-4 z m 0,0"
       style="fill:none;stroke:#c70000;stroke-width:1;stroke-linecap:butt;stroke-linejoin:miter;stroke-miterlimit:10;stroke-opacity:1" />
    <path
       inkscape:connector-curvature="0"
       id="path111"
       transform="matrix(-0.999899,0.0142361,-0.0142361,-0.999899,31.112993,424.53751)"
       d="m -17.600301,17.601235 35.198919,-0.0028 0.0011,-35.198864 -11.731672,9.56e-4 -0.00205,23.467193 -11.731615,-0.00295 -0.00191,-23.463343 -11.731615,-0.0029 z m 0,0"
       style="fill:none;stroke:#c70000;stroke-width:1;stroke-linecap:butt;stroke-linejoin:miter;stroke-miterlimit:10;stroke-opacity:1" />
    <path
       inkscape:connector-curvature="0"
       id="path113"
       transform="matrix(-0.999899,0.0142361,-0.0142361,-0.999899,31.796329,472.53265)"
       d="m -17.600545,17.600273 35.198864,0.0011 0.0011,-35.20277 -11.731671,9.55e-4 -0.00205,23.467193 -11.731671,9.56e-4 -0.00186,-23.467248 -11.731671,9.55e-4 z m 0,0"
       style="fill:none;stroke:#c70000;stroke-width:1;stroke-linecap:butt;stroke-linejoin:miter;stroke-miterlimit:10;stroke-opacity:1" />
    <path
       inkscape:connector-curvature="0"
       id="path115"
       transform="matrix(0.999899,-0.0142362,0.0142362,0.999899,77.058118,279.86876)"
       d="m -17.599538,17.601221 35.19892,-0.0028 0.0011,-35.198864 -11.735577,8.99e-4 0.00185,23.467249 -11.731616,-0.00295 -0.00191,-23.463342 -11.731616,-0.003 z m 0,0"
       style="fill:none;stroke:#c70000;stroke-width:1;stroke-linecap:butt;stroke-linejoin:miter;stroke-miterlimit:10;stroke-opacity:1" />
    <path
       inkscape:connector-curvature="0"
       id="path117"
       transform="matrix(-0.999899,0.0142361,-0.0142361,-0.999899,77.741455,327.8639)"
       d="m -17.600721,17.599495 35.198864,0.0011 0.0011,-35.198864 -11.731616,-0.0029 -0.00205,23.467192 -11.731671,9.56e-4 -0.00186,-23.467248 -11.731671,9.55e-4 z m 0,0"
       style="fill:none;stroke:#c70000;stroke-width:1;stroke-linecap:butt;stroke-linejoin:miter;stroke-miterlimit:10;stroke-opacity:1" />
    <path
       inkscape:connector-curvature="0"
       id="path119"
       transform="matrix(-0.0142362,-0.999899,0.999899,-0.0142362,78.424791,375.85904)"
       d="m -17.600332,17.599868 35.198864,0.0011 0.0012,-35.202769 -11.731671,9.54e-4 -0.00205,23.467193 -11.731671,9.55e-4 -0.00185,-23.467248 -11.731671,9.54e-4 z m 0,0"
       style="fill:none;stroke:#c70000;stroke-width:1;stroke-linecap:butt;stroke-linejoin:miter;stroke-miterlimit:10;stroke-opacity:1" />
    <path
       inkscape:connector-curvature="0"
       id="path121"
       transform="matrix(-0.999899,0.0142361,-0.0142361,-0.999899,79.108128,423.85417)"
       d="m -17.601263,17.601478 35.202825,-0.0028 -0.0028,-35.198919 -11.731671,9.55e-4 -0.00205,23.467193 -11.731616,-0.00295 -0.00191,-23.463343 -11.731616,-0.003 z m 0,0"
       style="fill:none;stroke:#c70000;stroke-width:1;stroke-linecap:butt;stroke-linejoin:miter;stroke-miterlimit:10;stroke-opacity:1" />
    <path
       inkscape:connector-curvature="0"
       id="path123"
       transform="matrix(-0.0142362,-0.999899,0.999899,-0.0142362,79.791465,471.84931)"
       d="m -17.598349,17.60041 35.198864,0.0011 0.0012,-35.20277 -11.735577,8.99e-4 0.00185,23.467248 -11.735577,8.99e-4 0.00205,-23.467192 -11.735578,8.99e-4 z m 0,0"
       style="fill:none;stroke:#c70000;stroke-width:1;stroke-linecap:butt;stroke-linejoin:miter;stroke-miterlimit:10;stroke-opacity:1" />
    <path
       inkscape:connector-curvature="0"
       id="path125"
       transform="matrix(0.999899,-0.0142362,0.0142362,0.999899,125.05325,279.18543)"
       d="m -17.598576,17.600977 35.198919,-0.0028 0.0011,-35.198864 -11.735577,8.99e-4 0.00185,23.467248 -11.735577,8.99e-4 0.00205,-23.467192 -11.735521,-0.003 z m 0,0"
       style="fill:none;stroke:#c70000;stroke-width:1;stroke-linecap:butt;stroke-linejoin:miter;stroke-miterlimit:10;stroke-opacity:1" />
    <path
       inkscape:connector-curvature="0"
       id="path127"
       transform="matrix(-0.0142362,-0.999899,0.999899,-0.0142362,125.73659,327.18057)"
       d="m -17.599127,17.600587 35.198864,0.0011 0.0012,-35.20277 -11.735577,8.99e-4 0.00185,23.467248 -11.735577,9e-4 0.00205,-23.467193 -11.735577,8.99e-4 z m 0,0"
       style="fill:none;stroke:#c70000;stroke-width:1;stroke-linecap:butt;stroke-linejoin:miter;stroke-miterlimit:10;stroke-opacity:1" />
    <path
       inkscape:connector-curvature="0"
       id="path129"
       transform="matrix(-0.999899,0.0142361,-0.0142361,-0.999899,126.41993,375.1757)"
       d="m -17.601926,17.598777 35.20277,0.0012 -0.0028,-35.198919 -11.731616,-0.003 0.00186,23.467249 -11.735577,9e-4 0.00205,-23.467193 -11.735577,9e-4 z m 0,0"
       style="fill:none;stroke:#c70000;stroke-width:1;stroke-linecap:butt;stroke-linejoin:miter;stroke-miterlimit:10;stroke-opacity:1" />
    <path
       inkscape:connector-curvature="0"
       id="path131"
       transform="matrix(-0.0142362,-0.999899,0.999899,-0.0142362,127.10326,423.17084)"
       d="m -17.60105,17.601073 35.202826,-0.0028 -0.0028,-35.198919 -11.731671,9.54e-4 -0.00205,23.467193 -11.731672,9.55e-4 -0.00185,-23.467249 -11.731616,-0.003 z m 0,0"
       style="fill:none;stroke:#c70000;stroke-width:1;stroke-linecap:butt;stroke-linejoin:miter;stroke-miterlimit:10;stroke-opacity:1" />
    <path
       inkscape:connector-curvature="0"
       id="path133"
       transform="matrix(0.0142361,0.999899,-0.999899,0.0142361,127.7866,471.16597)"
       d="m -17.601911,17.600301 35.20277,0.0012 -0.0028,-35.202826 -11.731671,9.56e-4 0.00185,23.467248 -11.735577,8.99e-4 0.00205,-23.467192 -11.735577,8.99e-4 z m 0,0"
       style="fill:none;stroke:#c70000;stroke-width:1;stroke-linecap:butt;stroke-linejoin:miter;stroke-miterlimit:10;stroke-opacity:1" />
    <path
       inkscape:connector-curvature="0"
       id="path135"
       transform="matrix(-0.999899,0.0142361,-0.0142361,-0.999899,173.04839,278.50209)"
       d="m -17.598495,17.600995 35.19892,-0.0028 0.0011,-35.198864 -11.735577,9e-4 0.00186,23.467248 -11.735577,9e-4 0.00205,-23.467192 -11.735522,-0.003 z m 0,0"
       style="fill:none;stroke:#c70000;stroke-width:1;stroke-linecap:butt;stroke-linejoin:miter;stroke-miterlimit:10;stroke-opacity:1" />
    <path
       inkscape:connector-curvature="0"
       id="path137"
       transform="matrix(-0.999899,0.0142361,-0.0142361,-0.999899,173.73173,326.49723)"
       d="m -17.598738,17.600037 35.198864,0.0011 0.0011,-35.20277 -11.735577,9e-4 0.00185,23.467249 -11.735577,9e-4 0.00205,-23.467193 -11.735578,9e-4 z m 0,0"
       style="fill:none;stroke:#c70000;stroke-width:1;stroke-linecap:butt;stroke-linejoin:miter;stroke-miterlimit:10;stroke-opacity:1" />
    <path
       inkscape:connector-curvature="0"
       id="path139"
       transform="matrix(0.999899,-0.0142362,0.0142362,0.999899,174.41506,374.49236)"
       d="m -17.600978,17.598692 35.202769,0.0012 -0.0028,-35.198919 -11.731671,9.54e-4 -0.002,23.463287 -11.731671,9.55e-4 -0.00185,-23.467249 -11.731671,9.55e-4 z m 0,0"
       style="fill:none;stroke:#c70000;stroke-width:1;stroke-linecap:butt;stroke-linejoin:miter;stroke-miterlimit:10;stroke-opacity:1" />
    <path
       inkscape:connector-curvature="0"
       id="path141"
       transform="matrix(-0.999899,0.0142361,-0.0142361,-0.999899,175.0984,422.4875)"
       d="m -17.599225,17.598114 35.198864,0.0011 0.0011,-35.198864 -11.735577,9e-4 0.00185,23.467248 -11.735521,-0.00301 0.00205,-23.467192 -11.731671,9.55e-4 z m 0,0"
       style="fill:none;stroke:#c70000;stroke-width:1;stroke-linecap:butt;stroke-linejoin:miter;stroke-miterlimit:10;stroke-opacity:1" />
    <path
       inkscape:connector-curvature="0"
       id="path143"
       transform="matrix(0.999899,-0.0142362,0.0142362,0.999899,175.78174,470.48264)"
       d="m -17.600492,17.600615 35.198864,0.0011 0.0012,-35.20277 -11.731671,9.55e-4 -0.00205,23.467192 -11.731671,9.55e-4 -0.00185,-23.467248 -11.731671,9.54e-4 z m 0,0"
       style="fill:none;stroke:#c70000;stroke-width:1;stroke-linecap:butt;stroke-linejoin:miter;stroke-miterlimit:10;stroke-opacity:1" />
    <path
       inkscape:connector-curvature="0"
       id="path145"
       transform="matrix(0.0142361,0.999899,-0.999899,0.0142361,221.04352,277.81875)"
       d="m -17.598428,17.599462 35.198864,0.0011 0.0011,-35.198864 -11.735522,-0.003 0.00185,23.467248 -11.735577,9e-4 0.00205,-23.467193 -11.735577,9e-4 z m 0,0"
       style="fill:none;stroke:#c70000;stroke-width:1;stroke-linecap:butt;stroke-linejoin:miter;stroke-miterlimit:10;stroke-opacity:1" />
    <path
       inkscape:connector-curvature="0"
       id="path147"
       transform="matrix(0.999899,-0.0142362,0.0142362,0.999899,221.72686,325.81389)"
       d="m -17.600316,17.601393 35.19892,-0.0028 0.0011,-35.198864 -11.731671,9.54e-4 -0.00205,23.467193 -11.731616,-0.00295 -0.00191,-23.463343 -11.731616,-0.003 z m 0,0"
       style="fill:none;stroke:#c70000;stroke-width:1;stroke-linecap:butt;stroke-linejoin:miter;stroke-miterlimit:10;stroke-opacity:1" />
    <path
       inkscape:connector-curvature="0"
       id="path149"
       transform="matrix(-0.999899,0.0142361,-0.0142361,-0.999899,222.4102,373.80903)"
       d="m -17.599943,17.599319 35.198864,0.0011 0.0011,-35.198864 L 5.8684,-17.6014 5.86635,5.865792 -5.865322,5.866748 -5.867177,-17.6005 l -11.731672,9.55e-4 z m 0,0"
       style="fill:none;stroke:#c70000;stroke-width:1;stroke-linecap:butt;stroke-linejoin:miter;stroke-miterlimit:10;stroke-opacity:1" />
    <path
       inkscape:connector-curvature="0"
       id="path151"
       transform="matrix(-0.0142362,-0.999899,0.999899,-0.0142362,223.09353,421.80416)"
       d="m -17.600508,17.599091 35.198864,0.0011 0.0011,-35.198864 -11.731615,-0.003 -0.00205,23.467192 -11.731671,9.55e-4 -0.00185,-23.467248 -11.731672,9.55e-4 z m 0,0"
       style="fill:none;stroke:#c70000;stroke-width:1;stroke-linecap:butt;stroke-linejoin:miter;stroke-miterlimit:10;stroke-opacity:1" />
    <path
       inkscape:connector-curvature="0"
       id="path153"
       transform="matrix(0.999899,-0.0142362,0.0142362,0.999899,223.77687,469.7993)"
       d="m -17.59953,17.600372 35.198864,0.0011 0.0012,-35.20277 -11.735577,8.99e-4 0.00185,23.467248 -11.731671,9.55e-4 -0.00185,-23.467249 -11.731672,9.55e-4 z m 0,0"
       style="fill:none;stroke:#c70000;stroke-width:1;stroke-linecap:butt;stroke-linejoin:miter;stroke-miterlimit:10;stroke-opacity:1" />
    <path
       inkscape:connector-curvature="0"
       id="path155"
       transform="matrix(-0.0142362,-0.999899,0.999899,-0.0142362,269.03866,277.13542)"
       d="m -17.601289,17.599267 35.20277,0.0012 -0.0028,-35.198919 -11.731616,-0.003 -0.00205,23.467193 -11.731671,9.54e-4 -0.00185,-23.467248 -11.731671,9.55e-4 z m 0,0"
       style="fill:none;stroke:#c70000;stroke-width:1;stroke-linecap:butt;stroke-linejoin:miter;stroke-miterlimit:10;stroke-opacity:1" />
    <path
       inkscape:connector-curvature="0"
       id="path157"
       transform="matrix(0.999899,-0.0142362,0.0142362,0.999899,269.722,325.13056)"
       d="m -17.599354,17.60115 35.198919,-0.0028 0.0011,-35.198864 -11.735577,8.99e-4 0.00185,23.467249 -11.735578,8.99e-4 0.00205,-23.467193 -11.731616,-0.003 z m 0,0"
       style="fill:none;stroke:#c70000;stroke-width:1;stroke-linecap:butt;stroke-linejoin:miter;stroke-miterlimit:10;stroke-opacity:1" />
    <path
       inkscape:connector-curvature="0"
       id="path159"
       transform="matrix(-0.0142362,-0.999899,0.999899,-0.0142362,270.40533,373.12569)"
       d="m -17.599303,17.599809 35.198864,0.0011 0.0012,-35.20277 -11.735577,8.99e-4 0.00185,23.467249 -11.735577,8.99e-4 0.00205,-23.467193 -11.731672,9.55e-4 z m 0,0"
       style="fill:none;stroke:#c70000;stroke-width:1;stroke-linecap:butt;stroke-linejoin:miter;stroke-miterlimit:10;stroke-opacity:1" />
    <path
       inkscape:connector-curvature="0"
       id="path161"
       transform="matrix(0.0142361,0.999899,-0.999899,0.0142361,271.08867,421.12083)"
       d="m -17.599752,17.601621 35.19892,-0.0028 0.0011,-35.198864 -11.731671,9.55e-4 -0.00205,23.467193 -11.731615,-0.00295 -0.00191,-23.463342 -11.731616,-0.003 z m 0,0"
       style="fill:none;stroke:#c70000;stroke-width:1;stroke-linecap:butt;stroke-linejoin:miter;stroke-miterlimit:10;stroke-opacity:1" />
    <path
       inkscape:connector-curvature="0"
       id="path163"
       transform="matrix(-0.0142362,-0.999899,0.999899,-0.0142362,271.77201,469.11596)"
       d="m -17.601226,17.600295 35.20277,0.0012 -0.0028,-35.202825 -11.731672,9.55e-4 -0.00205,23.467192 -11.731672,9.55e-4 -0.00185,-23.467248 -11.731671,9.55e-4 z m 0,0"
       style="fill:none;stroke:#c70000;stroke-width:1;stroke-linecap:butt;stroke-linejoin:miter;stroke-miterlimit:10;stroke-opacity:1" />
    <path
       inkscape:connector-curvature="0"
       id="path165"
       transform="matrix(0.0142361,0.999899,-0.999899,0.0142361,317.0338,276.45208)"
       d="m -17.59897,17.601445 35.198919,-0.0028 0.0011,-35.198864 -11.735577,9e-4 0.00185,23.467248 -11.735521,-0.00301 0.00199,-23.463287 -11.735521,-0.003 z m 0,0"
       style="fill:none;stroke:#c70000;stroke-width:1;stroke-linecap:butt;stroke-linejoin:miter;stroke-miterlimit:10;stroke-opacity:1" />
    <path
       inkscape:connector-curvature="0"
       id="path167"
       transform="matrix(0.999899,-0.0142362,0.0142362,0.999899,317.71713,324.44722)"
       d="m -17.598393,17.600906 35.19892,-0.0028 0.0011,-35.198864 -11.735577,8.99e-4 0.00185,23.467249 -11.735577,8.99e-4 0.00205,-23.467193 -11.735521,-0.003 z m 0,0"
       style="fill:none;stroke:#c70000;stroke-width:1;stroke-linecap:butt;stroke-linejoin:miter;stroke-miterlimit:10;stroke-opacity:1" />
    <path
       inkscape:connector-curvature="0"
       id="path169"
       transform="matrix(0.0142361,0.999899,-0.999899,0.0142361,318.40047,372.44235)"
       d="m -17.600957,17.600903 35.202826,-0.0028 -0.0028,-35.198919 -11.731671,9.55e-4 -0.00205,23.467193 -11.731672,9.55e-4 -0.00185,-23.467248 -11.731616,-0.003 z m 0,0"
       style="fill:none;stroke:#c70000;stroke-width:1;stroke-linecap:butt;stroke-linejoin:miter;stroke-miterlimit:10;stroke-opacity:1" />
    <path
       inkscape:connector-curvature="0"
       id="path171"
       transform="matrix(-0.0142362,-0.999899,0.999899,-0.0142362,319.08381,420.43749)"
       d="m -17.600021,17.601014 35.198919,-0.0028 0.0011,-35.198864 -11.731672,9.55e-4 -0.00205,23.467193 -11.731671,9.54e-4 -0.00185,-23.467248 -11.731615,-0.003 z m 0,0"
       style="fill:none;stroke:#c70000;stroke-width:1;stroke-linecap:butt;stroke-linejoin:miter;stroke-miterlimit:10;stroke-opacity:1" />
    <path
       inkscape:connector-curvature="0"
       id="path173"
       transform="matrix(0.999899,-0.0142362,0.0142362,0.999899,319.76714,468.43262)"
       d="m -17.601513,17.59983 35.20277,0.0012 -0.0028,-35.202825 -11.731671,9.54e-4 -0.00205,23.467193 -11.731671,9.55e-4 0.00205,-23.467193 -11.735577,8.99e-4 z m 0,0"
       style="fill:none;stroke:#c70000;stroke-width:1;stroke-linecap:butt;stroke-linejoin:miter;stroke-miterlimit:10;stroke-opacity:1" />
    <path
       inkscape:connector-curvature="0"
       id="path175"
       transform="matrix(-0.0142362,-0.999899,0.999899,-0.0142362,365.02893,275.76874)"
       d="m -17.600803,17.60119 35.19892,-0.0028 0.0011,-35.198864 -11.731671,9.55e-4 -0.00205,23.467193 -11.731671,9.55e-4 -0.00185,-23.467249 -11.731616,-0.003 z m 0,0"
       style="fill:none;stroke:#c70000;stroke-width:1;stroke-linecap:butt;stroke-linejoin:miter;stroke-miterlimit:10;stroke-opacity:1" />
    <path
       inkscape:connector-curvature="0"
       id="path177"
       transform="matrix(-0.999899,0.0142361,-0.0142361,-0.999899,365.71227,323.76388)"
       d="m -17.598679,17.601066 35.19892,-0.0028 0.0011,-35.198864 -11.735577,9e-4 0.00186,23.467248 -11.735577,9e-4 0.00205,-23.467192 -11.735522,-0.003 z m 0,0"
       style="fill:none;stroke:#c70000;stroke-width:1;stroke-linecap:butt;stroke-linejoin:miter;stroke-miterlimit:10;stroke-opacity:1" />
    <path
       inkscape:connector-curvature="0"
       id="path179"
       transform="matrix(0.0142361,0.999899,-0.999899,0.0142361,366.39561,371.75902)"
       d="m -17.6012,17.599941 35.20277,0.0012 -0.0028,-35.202826 -11.731672,9.55e-4 -0.00205,23.467193 -11.731671,9.55e-4 -0.00185,-23.467248 -11.731671,9.55e-4 z m 0,0"
       style="fill:none;stroke:#c70000;stroke-width:1;stroke-linecap:butt;stroke-linejoin:miter;stroke-miterlimit:10;stroke-opacity:1" />
    <path
       inkscape:connector-curvature="0"
       id="path181"
       transform="matrix(0.0142361,0.999899,-0.999899,0.0142361,367.07894,419.75415)"
       d="m -17.600238,17.599698 35.198864,0.0011 0.0011,-35.198864 -11.731616,-0.003 -0.00205,23.467193 -11.731671,9.55e-4 -0.00185,-23.467248 -11.731671,9.55e-4 z m 0,0"
       style="fill:none;stroke:#c70000;stroke-width:1;stroke-linecap:butt;stroke-linejoin:miter;stroke-miterlimit:10;stroke-opacity:1" />
    <path
       inkscape:connector-curvature="0"
       id="path183"
       transform="matrix(-0.999899,0.0142361,-0.0142361,-0.999899,367.76228,467.74929)"
       d="m -17.599409,17.598181 35.198864,0.0011 0.0011,-35.198864 -11.735577,9e-4 0.00185,23.467248 -11.731615,-0.00295 -0.00186,-23.467248 -11.731671,9.55e-4 z m 0,0"
       style="fill:none;stroke:#c70000;stroke-width:1;stroke-linecap:butt;stroke-linejoin:miter;stroke-miterlimit:10;stroke-opacity:1" />
    <path
       inkscape:connector-curvature="0"
       id="path185"
       transform="matrix(-0.999899,0.0142361,-0.0142361,-0.999899,413.02407,275.0854)"
       d="m -17.599342,17.598361 35.198864,0.0011 0.0011,-35.198864 -11.735577,9e-4 0.00191,23.463343 -11.731671,9.55e-4 -0.00186,-23.467248 -11.731671,9.56e-4 z m 0,0"
       style="fill:none;stroke:#c70000;stroke-width:1;stroke-linecap:butt;stroke-linejoin:miter;stroke-miterlimit:10;stroke-opacity:1" />
    <path
       inkscape:connector-curvature="0"
       id="path187"
       transform="matrix(-0.0142362,-0.999899,0.999899,-0.0142362,413.7074,323.08054)"
       d="m -17.601462,17.598489 35.20277,0.0012 -0.0028,-35.19892 -11.731671,9.55e-4 -0.002,23.463287 -11.731671,9.55e-4 0.00205,-23.467193 -11.735577,8.99e-4 z m 0,0"
       style="fill:none;stroke:#c70000;stroke-width:1;stroke-linecap:butt;stroke-linejoin:miter;stroke-miterlimit:10;stroke-opacity:1" />
    <path
       inkscape:connector-curvature="0"
       id="path189"
       transform="matrix(0.999899,-0.0142362,0.0142362,0.999899,414.39074,371.07568)"
       d="m -17.600132,17.601326 35.19892,-0.0028 0.0011,-35.198864 -11.731671,9.54e-4 -0.00205,23.467193 -11.731616,-0.00295 -0.00191,-23.463343 -11.731616,-0.003 z m 0,0"
       style="fill:none;stroke:#c70000;stroke-width:1;stroke-linecap:butt;stroke-linejoin:miter;stroke-miterlimit:10;stroke-opacity:1" />
    <path
       inkscape:connector-curvature="0"
       id="path191"
       transform="matrix(0.999899,-0.0142362,0.0142362,0.999899,415.07408,419.07082)"
       d="m -17.599833,17.598382 35.198864,0.0011 0.0011,-35.198864 -11.731672,9.55e-4 -0.002,23.463287 -11.731672,9.54e-4 -0.00185,-23.467248 -11.731671,9.55e-4 z m 0,0"
       style="fill:none;stroke:#c70000;stroke-width:1;stroke-linecap:butt;stroke-linejoin:miter;stroke-miterlimit:10;stroke-opacity:1" />
    <path
       inkscape:connector-curvature="0"
       id="path193"
       transform="matrix(-0.999899,0.0142361,-0.0142361,-0.999899,415.75741,467.06595)"
       d="m -17.60037,17.598425 35.198864,0.0011 0.0011,-35.198864 -11.731671,9.56e-4 -0.00199,23.463287 -11.731671,9.55e-4 -0.00186,-23.467248 -11.731671,9.56e-4 z m 0,0"
       style="fill:none;stroke:#c70000;stroke-width:1;stroke-linecap:butt;stroke-linejoin:miter;stroke-miterlimit:10;stroke-opacity:1" />
    <path
       inkscape:connector-curvature="0"
       id="path195"
       transform="matrix(0.999899,-0.0142362,0.0142362,0.999899,461.0192,274.40207)"
       d="m -17.599657,17.599163 35.198864,0.0011 0.0011,-35.198864 -11.735522,-0.003 0.00185,23.467248 -11.731671,9.55e-4 -0.00185,-23.467248 -11.731671,9.54e-4 z m 0,0"
       style="fill:none;stroke:#c70000;stroke-width:1;stroke-linecap:butt;stroke-linejoin:miter;stroke-miterlimit:10;stroke-opacity:1" />
    <path
       inkscape:connector-curvature="0"
       id="path197"
       transform="matrix(0.999899,-0.0142362,0.0142362,0.999899,461.70254,322.39721)"
       d="m -17.599414,17.600121 35.198864,0.0011 0.0012,-35.20277 -11.735578,8.99e-4 0.00185,23.467248 -11.731671,9.55e-4 -0.00185,-23.467249 -11.731671,9.55e-4 z m 0,0"
       style="fill:none;stroke:#c70000;stroke-width:1;stroke-linecap:butt;stroke-linejoin:miter;stroke-miterlimit:10;stroke-opacity:1" />
    <path
       inkscape:connector-curvature="0"
       id="path199"
       transform="matrix(-0.0142362,-0.999899,0.999899,-0.0142362,462.38588,370.39234)"
       d="m -17.598274,17.599749 35.198864,0.0011 0.0012,-35.20277 -11.735577,8.99e-4 0.00185,23.467248 -11.735577,8.99e-4 0.00205,-23.467192 -11.735577,8.99e-4 z m 0,0"
       style="fill:none;stroke:#c70000;stroke-width:1;stroke-linecap:butt;stroke-linejoin:miter;stroke-miterlimit:10;stroke-opacity:1" />
    <path
       inkscape:connector-curvature="0"
       id="path201"
       transform="matrix(-0.999899,0.0142361,-0.0142361,-0.999899,463.06921,418.38748)"
       d="m -17.601089,17.59963 35.20277,0.0011 -0.0028,-35.19892 -11.731616,-0.0029 -0.00205,23.467193 -11.731671,9.55e-4 -0.00186,-23.467248 -11.731671,9.56e-4 z m 0,0"
       style="fill:none;stroke:#c70000;stroke-width:1;stroke-linecap:butt;stroke-linejoin:miter;stroke-miterlimit:10;stroke-opacity:1" />
    <path
       inkscape:connector-curvature="0"
       id="path203"
       transform="matrix(-0.0142362,-0.999899,0.999899,-0.0142362,463.75255,466.38261)"
       d="m -17.600197,17.600236 35.198864,0.0011 0.0012,-35.20277 -11.731671,9.55e-4 -0.00205,23.467193 -11.731671,9.55e-4 -0.00185,-23.467249 -11.731671,9.55e-4 z m 0,0"
       style="fill:none;stroke:#c70000;stroke-width:1;stroke-linecap:butt;stroke-linejoin:miter;stroke-miterlimit:10;stroke-opacity:1" />
  </g>
  <WCB
     application="Axidraw"
     randseed="0"
     pausedposy="0"
     pausedposx="0"
     lastknownposy="0"
     lastknownposx="0"
     lastpathnc="0"
     lastpath="0"
     node="0"
     layer="0" />
</svg>
